<svg xmlns="http://www.w3.org/2000/svg" viewBox="0 0 669.86 443.33"><defs><style>.cls-1{opacity:0.4;}.cls-2{fill:#fff;}</style></defs><g id="Layer_2" data-name="Layer 2"><g id="txto"><g class="cls-1"><path class="cls-2" d="M495.6,435.7a51,51,0,0,0-21.31-29.29c-5.79-3.9-11.84-7.41-17.41-11.65a3.56,3.56,0,0,1-1.78-2.42,82,82,0,0,1-.35-19.17c1.77-18.13,3.81-36.21,7.82-54,3.28-14.58,9.5-26.85,23.78-33.64A81.29,81.29,0,0,0,497,279.25c7.35-5,15-9.67,21-16.47,1.17-1.33,2.22-1.32,3.63-.07a27.93,27.93,0,0,0,7.92,5.13c12.63,5.18,25.49,6.73,38.8,2.88,5-1.45,10-3,13.51-7.12,1.12-1.3,2-1.07,3.08,0,5.32,5.18,11.68,9,17.74,13.17,5.83,4,11.77,7.89,17.07,12.63.74.66,1.49,2.48,2.64,1.24.84-.92-.58-2-1.31-2.84a7.08,7.08,0,0,0-.63-.59,127.09,127.09,0,0,0-16.17-11.92c-7.71-5-15.65-9.9-21.67-16.86-6.89-8-9.84-17.85-10.59-28.35a3.5,3.5,0,0,1,1.7-3.61c2.59-1.71,4.37-4.34,6.07-6.82,1.23-1.8,2.77-4.23.34-6.48.94-.8,2.3-1,3-2.19,2.09-3.57,4.27-7.15,3.92-11.5-.21-2.52.85-3.78,3.08-4.8,4.61-2.1,9.15-4.38,13.58-6.84,2-1.1,2.66-.66,3.65,1.17,2.42,4.47,4.94,8.91,7.76,13.12a69.21,69.21,0,0,0,18.12,19c1.49,1,2.61,1.38,4.06.25,3.78-2.95,7.66-5.79,10.23-10,1.74-2.84,3.66-5.6,5.26-8.53,2.52-4.6,5.62-9,6.8-14.17.4-1.78.92-1.59,2.26-1,1.88.87,3.83,2,6.27,1-.42-.38-.59-.66-.84-.74-6.66-2.22-10.17-7.41-12.89-13.44-2.43-5.4-2.68-11.35-4.46-16.92a2.55,2.55,0,0,1,.83-2.61c2.79-2.75,4.91-6.13,8-8.59a7,7,0,0,0,2.87-6,4.11,4.11,0,0,1,1.28-3c3.36-3.9,5-9.08,3-13.35-1.52-3.24-1-5.44-.61-8.39,1.09-9.43-1.43-18.25-6.08-26.38-1.87-3.26-4.31-6.5-8.62-6.87-2.35-.19-3.18-.64-2.31-3.28,1.81-5.46-.41-9.14-5.78-10.37-7.33-1.69-18.62,4.74-20.73,11.88A3,3,0,0,1,620,83c-7.59,3.48-12.27,9.62-15,17.28-2.37,6.63-4,13.4-2.3,20.51a2.37,2.37,0,0,1-.16,1.36c-2.87,7-1.68,11.16,4.56,15.46a3.75,3.75,0,0,1,1.55,2.2,19.38,19.38,0,0,0,11.49,12.11A45.09,45.09,0,0,0,651,153.15c-2.61,1.79-2.26,4.23-1.74,6.74.43,2.07.73,4.15,1.1,6.23,1.22,6.8,2.24,13.7,7.76,18.7,1,.9.53,1.77.06,2.58C653.86,195,650,202.76,645.1,210c-2.37,3.51-5.57,6.3-8.56,9.26-1.25,1.24-2,.92-3.32-.15-10.53-8.72-17.83-19.93-24.76-31.47-.9-1.5-1-2.58.42-3.69a44.83,44.83,0,0,0,8-9c4-5.5,6.76-11.39,4.73-18.46-.59-2.07-.77-2.18-3.09-2.76,2.89,3.71,3.07,6.58.59,11-.42-.72-.84-1.35-1.16-2-3.78-8.19-9.72-14.68-16.43-20.47-7.2-6.21-15.25-11.3-23.33-16.25-9.83-6-16.55-14.07-19-25.48-.44-2.09-1-4.15-1.67-6.91-1.09,3-.07,5.12.46,7.24,1.51,6,2.77,12.2,7.34,16.91.89.92.32,1.75,0,2.63-4.22,11.37-11.11,20.81-21.12,27.62-2.79,1.9-6.29,4.06-10.37,1.68a80.35,80.35,0,0,1-7.86-5.79c-6.68-5.07-11.38-11.79-15.66-18.88-1.58-2.62-1-4.58,1.11-6.2,3.74-2.85,5.63-7,7.89-10.85,1.75-3,2.57-8.09,1.76-10.62A47.67,47.67,0,0,1,514.78,112a39.47,39.47,0,0,1-9.55,9.83c-1.25,1-2.3.83-2.72-.9-1.31-5.33-3.65-10.29-5.6-15.38-2.41-6.29-6.14-12-12-15.35A38.73,38.73,0,0,0,463,85.58c-10,.65-17.91,6-24.24,13.06-9.52,10.69-13.47,23.66-13,38,.05,1.55.92,3.09.2,4.73a47,47,0,0,0-17.84-13.17c-5.45-2.43-10.47-5.59-13.61-11-3.36-5.83-4.48-12.16-4.59-18.78-.06-3.83,1.45-6.66,4.3-9.22,3.55-3.19,7-6.65,7-12a2.31,2.31,0,0,1,.73-1.82c3.67-3.16,3.79-7.53,4-11.84a8.32,8.32,0,0,0-1-4.16c-.81-1.61-2.5-.88-4.38-1.53,3.71-1.52,3.72-4.36,3.92-7.14a50.75,50.75,0,0,0-3.24-20.83c-1.93-5.44-5-10.32-10.75-12.36-2.74-1-3.43-1.76-2.62-4.66,2.09-7.4-3.39-13.62-10.91-12.7a20.26,20.26,0,0,0-9.36,3.42c-3.52,2.5-7.12,5.1-7,10.19,0,1.06-1,1.31-1.67,1.79-3.45,2.39-7.11,4.52-9.65,8-5.45,7.58-6.72,16.29-7.13,25.29-.21,4.75,1.66,9.47.08,14.23a2.94,2.94,0,0,0,.06,1.71c1.45,4.29,1.45,9.65,7.72,10.41,1.1.13,1.06,1.21.48,1.74-1.39,1.28-.63,2.52,0,3.65a22.33,22.33,0,0,0,7.43,8.61,4.83,4.83,0,0,1,2.21,3.14c2,8.72-.64,16.47-5.21,23.71-3.27,5.17-8.31,8.35-13.57,11.24-10.65,5.84-20.66,12.49-28.13,22.35-.88,1.17-1.87,2.28-1.55,4.25,3.31-3.56,6.13-7.08,9.43-10.06A103.44,103.44,0,0,1,344.21,128c1.57-.78,2.3-1,3.09,1a62.11,62.11,0,0,0,9.88,17.11c1.25,1.5,2.28,3.19,3.69,5.17a68.49,68.49,0,0,0-23.4,4.7c-2.7,1.08-4.41,2.71-4.89,5.47-1,5.75-2.15,11.49-1.92,17.39.15,3.65,0,7.29.47,10.93.09.74.5,1.78-.74,2.16a3.62,3.62,0,0,1-4.4-2.53c-.73-2.78-1.4-5.57-2.29-8.3-2-6.07-2.77-12.55-6.27-18.08a58.11,58.11,0,0,0-21.74-20.37,21.73,21.73,0,0,1-5.29-3.8h0l0,0h0v0a4.83,4.83,0,0,1-.7-1.35c-4.51-6.26-8.39-12.77-8.35-20.92,0-1.22-.5-2.38-2-2.28-1.31.08-1.64,1.14-1.75,2.27a22.24,22.24,0,0,0,.92,8.8c.94,3,2.18,5.94,3.39,8.86a4.22,4.22,0,0,1-1,5c-1.78,1.87-3.55,3.77-5.33,5.64-3.51,3.68-6.47,7.83-10.05,11.43-1.91,1.91-2.9,1.84-4.91,0a20,20,0,0,1-2.61-2.68A105.25,105.25,0,0,0,246.11,140c-1.65-1.53-3.41-3.42-1.56-6,3.44-4.8,4.18-10.4,4.77-16,.13-1.22.27-2.52-1.17-2.82-1.6-.34-2.08.94-2.33,2.27a80.55,80.55,0,0,1-2.08,8.37,13.33,13.33,0,0,1-5,7.19c-1.76,1.29-2.58.94-2.77-1.22-.22-2.58-.42-5.17-.85-7.71a147.33,147.33,0,0,1-1.55-30c.11-3.15.44-6.34-.21-9.48a3.69,3.69,0,0,1-.56.26l-1.68,0a54.71,54.71,0,0,0-1.24,10.82c-.67,13.8,1.75,27.31,3.73,40.86.25,1.73.13,2.52-1.82,2.53a30.56,30.56,0,0,0-5.14.51c-9.75,1.76-17.6,6.26-22.08,15.53h0c-.18.38-.35.76-.53,1.15-4,8.11-6.73,16.5-5.43,25.74a7.77,7.77,0,0,1-.45,4.49,3.66,3.66,0,0,0-.4,2.23c1.68,5.83,3.43,11.69,9.12,15.05,1.25.73,2,1.35,1.5,2.86-.59,0-.77-.49-1.07-.84s-.45-1-1-.74-.65.91-.58,1.48a9,9,0,0,0,3,5.4,39.58,39.58,0,0,1,6.84,8.83,8,8,0,0,1,.91,5.53c-2.08,12.26-8.48,21.73-19.1,28a127.94,127.94,0,0,0-20.85,15.15,45.14,45.14,0,0,0-9.83,11.91,10.29,10.29,0,0,1-3,3.55c1.25-4.84,2.62-9.65,3.73-14.52,2.2-9.59,4.46-19.25,4.21-29.13-.31-12.1-2.47-23.78-11.07-33.23a17.84,17.84,0,0,0-7.27-5c-4.77-1.68-9.41-3.94-14.53-4.15a25.24,25.24,0,0,0-16,4.48c-1.65,1.16-2.42.94-3.58-.71-4.83-6.87-11.64-11.51-18.52-16.07a154.4,154.4,0,0,1-17.78-13.06c-1.19-1.06-1-1.62.09-2.7,5.51-5.75,12.68-8.5,19.91-11.06a67.28,67.28,0,0,0,16-8.22c1.92-1.33,3.32-3.42,4.89-5.22,1-1.09,1.82-1.54,3.09-.4.84.76,2,1.19,2.82,2,9.47,8.62,20.32,10.21,32.3,6.57,6.14-1.87,12.37-3.46,17.69-7.31a12.21,12.21,0,0,0,3.61-3.62c.31-.53.83-1.27.27-1.85-.69-.73-1.2.14-1.67.49-3.42,2.46-6.7,5.12-10.62,6.79-12,5.16-24.11,6.69-36.25.34-2.81-1.46-4.81-4.06-7.66-5.54-1.42-.74-.22-1.92.21-2.72a77.54,77.54,0,0,0,7-16.29c1.05-3.87,2.49-7.65,2.63-11.73-1.41,0-1.24,1.29-1.59,2.07-3.11,6.88-5.08,14.22-8.47,21A39.79,39.79,0,0,1,107.7,155c-9.15,4.22-19.28,6.76-26.13,15a1.11,1.11,0,0,1-1.93,0c-1.54-1.83-3.21-3.56-4.64-5.47-5.6-7.43-8.46-16-10.36-25-.42-1.95-.6-3.95-.91-6a1.37,1.37,0,0,0-.64,1.46,54,54,0,0,0,8,28.35c1.18,1.95,1.08,3.12-.44,4.65a34.42,34.42,0,0,1-11.23,7.35,4.38,4.38,0,0,1-3.61-.07c-7-3-14.64-3.6-21.52-1-7.17,2.66-12.5,1.22-17.76-3.39a12.69,12.69,0,0,0-2.32-1.68c-1.76-1-2.06-1.82-.52-3.44A41.45,41.45,0,0,0,24.44,147c1-4,1.1-6.95-.43-9.42-.37,6.73-2.86,12.63-5.75,18.33a33.33,33.33,0,0,1-8.35,10.49,99.24,99.24,0,0,0-8.39,8.27c-.65.69-1.72,1.56-.65,3.45,2.63-2.81,5-5.37,7.43-7.94,1.53-1.65,2.86-2,4.7-.15a38.65,38.65,0,0,0,11,7.69A48.62,48.62,0,0,0,8.63,207.12c-1.29,9-1,18.13-.19,27.2a7.19,7.19,0,0,0,2.08,4.62,43.83,43.83,0,0,0,11.9,8.43,9,9,0,0,0,4.44,1,1.91,1.91,0,0,0,1.73-.83c.44-.76-.19-1.25-.6-1.75l-4.12-5a3.51,3.51,0,0,1,1,.35c10,6.66,20.5,7,31.44,2.79,1.47-.58,3-1.1,4.74-1.76a5.56,5.56,0,0,1-2.85,3.5,2.87,2.87,0,0,0-1.57,2.21,26.82,26.82,0,0,0,.95,13.58c1.13,3.2,3.07,5.95,4.35,9.06.53,1.28.61,2-1,2a12.44,12.44,0,0,0-2,.38,11.52,11.52,0,0,0-9.66,12.53,1.52,1.52,0,0,1-.88,1.79c-8.3,4.67-11.73,12.49-13.7,21.25a.94.94,0,0,1-.3.43l-.34.51h0a71.23,71.23,0,0,0-1.67,17.41,6.4,6.4,0,0,1-.52,3.06,11.24,11.24,0,0,0,1.71,13.36,39.89,39.89,0,0,1,6.62,9.72,25,25,0,0,0,7.09,8.87c2.35,1.75,2.84,3.88,2.42,6.48a44,44,0,0,1-11.08,23.22c-4,4.38-9,7.17-14.22,9.55-8.92,4.12-15.9,10.45-22.26,17.68A9.92,9.92,0,0,0,.3,422c-.27.75-.66,1.8.39,2.27s1.36-.47,1.75-1.11c2-3.29,5-5.76,7.47-8.7a28.27,28.27,0,0,1,8.87-7.22,158.36,158.36,0,0,0,14.55-8.06c2.17-1.4,2.93-.87,4,1.23,6,11.81,12.5,23.29,21.62,33.06,2,2.1,3,2.29,4.92.05,8.86-10.31,18-20.41,24.59-32.45,2-3.65,2-3.62,6.06-2.13.81.3,1.66.49,2.46.8,4,1.55,8.31,2.64,11.69,5.33A46.41,46.41,0,0,1,123,425.18a3.82,3.82,0,0,1-.23,3.58c-1.64,2.76-2.12,5.95-3.33,8.87-.24.57-.81,1.45.36,1.85.18-.14.43-.23.46-.37,1.79-8.65,7-15.09,13.16-21.07,7.14-6.91,16.19-10,25.07-13.62a52.59,52.59,0,0,0,18-11.53c1.65-1.67,2.76-1.72,4.55-.28,3.12,2.51,6.25,5.15,10.28,6.16,8.33,2.09,16.8,3.16,25.34,2.06,7.55-1,14.35-3.85,19.54-9.74h0c-.08-.09-.14-.2-.22-.3-1.91-1.69-3.52.11-4.71,1.07-4.67,3.76-10.14,5.5-15.85,6.36-6.4,1-12.78-.08-19.12-1.13A23.9,23.9,0,0,1,184.6,392c-1.79-1.49-2.17-2.92-1-5a86.92,86.92,0,0,0,5.29-9.89c1.54-3.63,2.75-7.37,2.52-11.4-.06-1-.41-2-1.58-2.09s-1.55.8-1.69,1.86c-.67,5.34-2.95,10.09-5.47,14.75a45.52,45.52,0,0,1-11.12,13.07c-2.48,2.09-3.77,1.62-4.8-1.43a29.79,29.79,0,0,1-1.11-4.47c-1.5-8.79-3.18-17.54-5.12-26.25a112.92,112.92,0,0,1-2.9-20.77A129.67,129.67,0,0,1,160,308.65c1.71-7.91,4.1-15.61,8.21-22.63a59,59,0,0,1,14.65-17.2,173.85,173.85,0,0,1,15.47-11c2.25-1.37,2.91-1.06,3.74,1.45a13.25,13.25,0,0,0,1.92,4.16c3.18,4.08,6.44,8.06,10.82,11,8.29,5.61,17.47,7.47,26.9,4.8,8.9-2.53,14.25-9.33,16.6-18.28.65-2.45,1.54-3,3.8-1.85,1.72.86,1.59,2.14,1.1,3.65-1.94,6-3.4,12-.85,18.24a3,3,0,0,1-.11,2.26c-1.52,3.7-1.07,7.35.3,10.94a6.83,6.83,0,0,1-.33,5.54c-1.39,3.16-2.24,6.57-.29,9.68s1.49,5.66-1.11,8.08a10,10,0,0,0-2.11,3.06,6.58,6.58,0,0,0-.23,6.12c1.62,2.93,1,5.22-1.09,7.55-3.22,3.62-3.34,8-2.77,12.5.17,1.32.65,2.67,2.4,2.78.8,1.17,1.4,2.6,2.46,3.47,1.64,1.35,1.16,2.35.25,3.84-5.5,9.1-4.14,16.08,1.42,23.73,2.27,3.13,2.41,3,4.14-.5.42-.86,1-1.67,1.38-2.52,3.36-6.71,4.17-13.33-.77-19.69-1-1.27-.59-2.06.54-2.82a20.66,20.66,0,0,0,2.13-1.47c1.48-1.3,2.2-.7,2.88.87,2.45,5.72,5,11.41,7.5,17.11a274.22,274.22,0,0,0,14.79,28.6c.57,1,1.11,2.27,2.38,2.28,1.53,0,1.78-1.56,2.3-2.63,2.53-5.18,3.82-10.81,5.84-16.19a317.41,317.41,0,0,1,16.42-35.57c3.64,3,4.07,6.35,1.07,10a6.15,6.15,0,0,0-.57,1c-4.51,8.57-1.53,17.21,3.28,22.63,1.09,1.23,2,1.29,3.28,0a22.88,22.88,0,0,0,5.79-10.43c1.48-5.24.73-10-3.09-14.19-.74-.8-2.49-1.52-1.19-3s2.46-2.81,4.66-1.94c9.92,3.93,18.26,9.73,22.89,19.74,3.9,8.44,5.72,17.41,6.59,26.62.14,1.51-.65,2-1.77,2.53-10.29,4.87-19.87,10.85-27.59,19.31a43.78,43.78,0,0,0-9.77,17.07c-.35,1.2-.76,2.49.56,3.59.52-1.86.84-3.56,1.46-5.15,5-12.93,14.9-21.36,26.46-28,9.92-5.74,20.72-10.05,28.93-18.45.95-1,1.59-.86,2.55.17,5.17,5.52,10.23,11.16,15.74,16.33,3.68,3.46,7.34,7,11.73,9.7a4.48,4.48,0,0,0,4.84.27,26.69,26.69,0,0,0,6.9-5.58c6.22-6.48,12.23-13.18,18.44-19.68,1.07-1.12,1.91-4.05,4.39-1.65,8,7.73,17.68,13.1,26.77,19.29a48.62,48.62,0,0,1,18.82,24.28c.69,1.89,1.46,3.75,2.21,5.61.2.51.28,1.27,1,1.15s.89-.92.85-1.59A8.82,8.82,0,0,0,495.6,435.7ZM658.8,141.77c-.69,0-.77-.93-.89-1.53-.21-1,.68-.88,1.27-1s1.13-.11,1.11.76C660.07,140.79,659.7,141.72,658.8,141.77Zm5-18.59c1.33.25.77,1.71.91,2.68,0,.28,0,.57,0,1.49-.41,3.38-.77,7.41-4.58,10-1.4.94-2,.94-2.34-1.05-.41-2.47-.24-4.42,2-6,1.72-1.18,1.57-3.38,2.39-5.07C662.53,124.45,662.64,123,663.77,123.18ZM648.18,133.3c-9.33.91-18.65,2-27.86-.82-.36-.11-.73-.23-1.09-.36-5.39-1.9-5.39-1.9-5.35-7.48,0-7,2.44-10.42,9.49-13,5.92-2.13,11.42-4.87,16-9.26.5-.48,1.06-1.12,1.58-.17,3,5.54,8.33,8.41,13.28,11.79a15,15,0,0,1,4.93,6.24c1.74,3.79,1.75,5-1.34,7.83C655.11,130.63,652.14,132.92,648.18,133.3Zm-36.57,7.07c-.49-3.53-3.85-4.53-5.89-6.68a9.45,9.45,0,0,1-2.58-8.14c.12-.89.32-1.78,1.32-2s1.36.52,1.67,1.26a14.81,14.81,0,0,0,4.93,6.52,1.72,1.72,0,0,1,.61,1.51c.15,2.46.28,4.92.43,7.55A3.83,3.83,0,0,1,611.61,140.37Zm.14-17.42c-.13,1.4,0,2.83,0,4.52a3.82,3.82,0,0,1-2.4-2.23c-.39-.65-.72-1.62-1.3-1.83-3.93-1.38-3.28-4.55-3.28-7.6,0-8.89,2.34-17,7.91-24a20,20,0,0,1,5.59-4.88c2.91-1.71,5.57-3.51,6-7.44.26-2.38,2.36-3.87,4.4-5,4-2.26,8.19-3.8,12.84-3,4.26.69,5.42,2.77,4.24,6.95a21.08,21.08,0,0,1-.93,2.39c-.7,1.69-2.31,3,1.65,3.12,4.26.11,8,2.6,10.35,6.77,4.29,7.63,5.81,15.88,6.16,24.47a8.64,8.64,0,0,1-1.09,4.45C659,114.24,655.32,110.41,650,108c-4-1.78-7.24-4.61-7.9-9.42-.21-1.47-1-1.58-1.88-.51-4.5,5.44-10.66,8.27-17,10.69a26,26,0,0,0-8.94,6.11C612.05,117.05,612,120.1,611.75,123ZM643.62,152a47.31,47.31,0,0,1-21.49-2.27,18.83,18.83,0,0,1-7.14-5.12,3.68,3.68,0,0,1-.87-2.66,41,41,0,0,0-.4-7.17c-.29-1.45.33-1.69,1.57-1.14,11.31,5,23.06,3.32,34.77,2.27a9.6,9.6,0,0,0,3.75-1.37c1.3-.72,1.7-.21,1.67,1.11s0,2.87,0,4.6c-.35,1.74.94,4-.71,5.79A17.65,17.65,0,0,1,643.62,152ZM26.27,245.91a54.37,54.37,0,0,1-10.31-5c-4.28-2.6-6.25-5.68-5.71-11.17.92-9.19-.08-18.53,2-27.7a40.58,40.58,0,0,1,11.27-20.31c3-3,7.23-4.23,11.36-5.2a33.78,33.78,0,0,1,15.65,0c7.43,1.78,12.68,6.63,16,13.34,3.44,7,6.58,14.2,7.19,22.18.08,1.11.8,2.4-1.42,1.86-2-.49-2.82,1.05-3.5,2.56a.56.56,0,0,1,0,.13l0,0,0,0h-.06a15.85,15.85,0,0,1-14.6,8c-7.28-.08-14.57.35-21.84-.45a15.82,15.82,0,0,1-2.81-.53c-3.54-1.08-7.84-2.52-8.12-6.31a12.77,12.77,0,0,1,6.33-11.86c2.23-1.39,4.81-1.89,7.21-2.84,5.35-2.14,10.55-4.51,14.41-10,.78,5.61,4.75,7.8,8.68,10.11,5,2.92,8.65,6.92,9.68,12.84a1.18,1.18,0,0,0,1,1l.07,0,0,0h0l.06,0,0,0a.2.2,0,0,0,0-.08c.12-5.66-2.31-10-6.88-13.29a31.6,31.6,0,0,0-3.09-2.09c-4.42-2.41-8.28-5.27-8.63-10.79-1.26-.12-1.65.68-2,1.25-3.9,5.59-9.73,8.41-15.86,10.32C25.56,204,21.54,208,20.1,214.72c-.52,2.42-1.31,2.72-3,.85-.87-1-1.74-2.15-3.38-1.53A4.27,4.27,0,0,0,11,217.75c-.7,4.57,2.18,9.19,7.55,12.09.37-.05.95,0,1.09-.18.56-.88-.36-.78-.78-1a11.89,11.89,0,0,1-6.73-8.43,6.22,6.22,0,0,1,.22-3.4c.62-1.84,2.06-2.22,3.17-.7a23.55,23.55,0,0,0,4,4.13,3.62,3.62,0,0,1,1.3,3c-.07,2.21,0,4.42,0,6.63,0,.91.5,2.24-.42,2.62s-1.8-.78-2.56-1.47c-2-.16-1.54.93-.88,1.88,2,2.84,4,5.68,6.85,7.73l.05,0,0,.06v0c-.89.7-.31,1.24.23,1.82C24.81,243.43,25.91,244.13,26.27,245.91Zm47.5-25.68a12.57,12.57,0,0,1-4.57,9.61c-1.8,1.58-2.54,1.23-2.87-1.06a8.5,8.5,0,0,0-.25-1.7,4.89,4.89,0,0,1,1.46-6c1.15-1,1.63-2.76,2.45-4.15.41-.7.51-1.84,1.63-1.72s1.48,1.12,1.68,2.06C73.53,218.37,73.66,219.5,73.77,220.23ZM57.4,241.37c-11.75,5.19-22.57,3.25-32.86-3.75-.94-.64-1.9-1.33-1.89-2.69,0-3.15,0-6.31,0-9.47,0-1.39.48-1.75,1.71-1,4.14,2.43,8.68,2.75,13.34,2.56,6.69-.27,13.42.49,20.1-.58a11.21,11.21,0,0,0,3.61-.83c2.49-1.38,2.93-.07,3,2,.07,1.34.13,2.68.15,3.31C64.67,237.23,63.35,238.73,57.4,241.37ZM74.15,225.3l.83.28c0,4.76,0,9.51,0,14.27A2.5,2.5,0,0,1,73.83,242a35.61,35.61,0,0,1-16.37,6.37C63.84,240.82,69.73,233.59,74.15,225.3Zm-17,27.77c-.15-2.2.35-3,2.87-3.28,5.92-.69,11.66-2.28,16.23-6.54A5.28,5.28,0,0,0,78,238.94c0-6.71-.32-13.41-.62-20.11a74.16,74.16,0,0,0-9.77-33.17c-1.45-2.59-4.05-4.56-6.26-6.69-1.23-1.18-1.06-1.67.42-2.37,4.16-2,8.29-4.08,10.78-8.26.76-1.27,1.27-.49,1.92.14,3.46,3.3,6.71,6.8,10.3,10,4,3.58,8.65,6.28,13,9.34,6.66,4.68,13.37,9.24,19.14,15.05,1.94,1.94,2,3.17.1,5.4a59.17,59.17,0,0,0-14.92,37.89,197,197,0,0,0,3.79,42.51c.42,2.25.08,3.81-2.38,4.72-3.36,1.25-5.86,3.95-8.89,5.78-.49.3-.95.64-1.33.9-1.08.16-1.19-.66-1.48-1.2-2.89-5.43-6.92-9.62-12.85-11.67-1.76-.62-2.22-1.25-1-3,2.8-4.28,1.6-7.79-3.15-9.77a28.45,28.45,0,0,0-8.63-2c-1.08-.09-2.06-.16-2.68-1.28C60.29,265.46,57.62,259.67,57.18,253.07ZM37.79,302.15c2.36-6,5.9-10.92,11.77-13.92,1.36-.7,2.35-1.08,1.42-3.32-1.51-3.63,3.62-9.71,8.07-10.11a32.41,32.41,0,0,1,13.85,1.71c4.54,1.6,5.64,5.21,2.29,8.65-1.41,1.45-.68,1.75.24,2.43a7.53,7.53,0,0,0,1.76,1c10,4,14.54,11.91,15.56,22.2a49,49,0,0,1-.27,13.19A5.52,5.52,0,0,1,89.64,328c-.21-1.21-.34-2.33-.59-3.42-1.24-5.48-3.59-9.94-9.45-12-3.68-1.25-6-4.07-7.2-8-.87-2.89-1.89-3-3.41-.49-3.06,5.09-8,6.41-13.23,6.74-11,.69-13.89,4.41-17,14.24-.53,1.67-.7,2.42-2.89,2.12-2.37-.31-1.8-1.52-1.87-2.91A52.82,52.82,0,0,1,37.79,302.15Zm2.44,45.72c.44-2.6-1.23-3.22-2.84-4.25-3.57-2.3-5.33-8.84-3.42-12.21.43-.76.92-1.55,1.81-1.71,1.23-.23,1.11,1.07,1.6,1.67,4.77,5.86,4.11,13.07,5.3,20.29C41.05,350.5,40,349.08,40.23,347.87Zm.09-17.54c.76-4.24,1.77-8.42,4.22-12.09,2.13-3.18,5.34-4.1,8.9-4.33a68,68,0,0,0,8.76-1.4c4-.8,6.34-3.64,8.92-7.63.68,5.29,3.31,8,7.2,9.22,5.82,1.84,7.79,6.34,8.69,11.68.83,5-1.1,8.29-6.72,10.37a65.78,65.78,0,0,1-19.51,4.1c-5.39.26-10.89-.27-15.89-2.88C43.38,336.59,40,331.94,40.32,330.33Zm7.13,27.26a2.34,2.34,0,0,1-1.07-1.95c-.23-4.95-2.37-9.65-1.89-15.11,13.57,4.65,26.53,2.22,39.68-2.95A85.28,85.28,0,0,0,83,352.64a1.81,1.81,0,0,1-.6,1.24c-5.81,4.87-11.65,9.79-19.87,9.51C56.85,363.2,52.11,360.46,47.45,357.59Zm105.72-77.38c1.75,3.61,3.3,7.36,6.38,10.13,1.21,1.08,1.34,2.26.73,3.87-5.95,15.49-7.41,31.53-6,48,.84,9.88,3.15,19.45,5.14,29.1,1.81,8.82,2.76,17.83,6,26.31.54,1.44-.35,1.8-1.23,2.44-3.72,2.71-8.17,3.8-12.33,5.48-10.35,4.19-19.38,10-26.24,19a9.1,9.1,0,0,1-1.15,1c-.62-1.58-1.29-2.92-1.7-4.34-2.18-7.61-7.14-13.36-12.82-18.42-3.12-2.77-7.27-4.22-11.3-5.45C93,395.62,88.06,393,85.05,387.61a42.75,42.75,0,0,1-4.84-13.71,9.32,9.32,0,0,0-.29-1.69c-1.68-4.47-.78-8.17,3-11.22A5.34,5.34,0,0,0,85,357.44c-2.93,2.48-5.14,5.65-8.06,8.14-.66.56.9,1.75.85,3.05-.18,5.62,1.35,11,3,16.3,1.3,4.28,4.18,7.52,7.15,10.6,1.27,1.32,1.4,2.15.54,3.64A165.73,165.73,0,0,1,66.06,429c-4.78,5.15-4.83,5.15-9.68-.44-6.13-7.07-10.82-15.09-15.25-23.28A62.34,62.34,0,0,0,38,399.43c-1.33-1.94-.76-3.11.72-4.66,6-6.27,10.43-13.46,11.8-22.21a21.46,21.46,0,0,0,.33-4.86c-.12-1.82.47-2.24,2.25-1.72l-2.8-2.07.54-.67c2.52.82,5,1.84,7.57,2.43,7.66,1.76,14.33-.5,20.23-5.42,4-3.32,8.15-6.41,11.24-10.65.58-.79,1.84-1.85.9-2.7-1.14-1-1.65.71-2.4,1.27s-1.07,1.34-2.21,1.52c-.81-4.79.51-9.38.61-14,0-.67,1-1.33,1.55-2,1.19-1.44,3-2.3,3.63-4.3.52-1.52,1.81-1.38,2.47.08a8.62,8.62,0,0,1,.22,6.72c-1.12,3.06-2.34,6.08-5.23,8-.55.37-1.42.7-1.28,1.68,5.53-.4,7.78-4.44,9.27-10.12,1-3.76.36-7.26-3.16-9.66-.83-.56-.65-1.26-.51-2a46.43,46.43,0,0,0-.27-20c-.38-1.55.17-2.3,1.44-3.25,4.62-3.47,10.09-5.5,14.69-9,7.86-5.91,11.19-14.06,11.53-23.65,0-.67.08-1.34.13-2s.54-1.28-.11-2c-1,.33-.67,1.2-.66,1.82a32.36,32.36,0,0,1-4.42,16.16c-1.64,3-4.19,4.94-6.59,7.11-.92.84-1.42.72-1.6-.64-2.13-15.86-4.51-31.81-2.75-47.76,1.71-15.42,7.45-29.21,22.14-37.18a20.38,20.38,0,0,1,15.86-1.41c1.74.51,3.44,1.2,5.19,1.65,9.66,2.45,14.21,9.86,17.46,18.32a29.71,29.71,0,0,1,2.11,10.58,4.06,4.06,0,0,0-5.3,2.23,1.58,1.58,0,0,1-1.64,1c-1-.16-.61-1.05-.72-1.64-1.4-7.42-4.92-12.82-13-13.95-3.75-.53-6-3.29-8.18-5.91-1.47-1.73-2.64-1.69-4.27-.14-3.36,3.21-7.48,5.23-11.78,6.94s-8.39,3.87-9.62,9c-.32,1.33-.72,2.14-2.53,1.33s-3.27.51-3.4,2.36c-.4,5.53-.17,11,4.35,15.11,1.72,1.57,1.9,3.9,3,5.76,4.39,7.14,10.76,10.88,19,11.75,7.6.79,14.59-1.11,21.14-4.83a11.37,11.37,0,0,0,2.87-2.35c3.9-4.48,8.19-8.67,10.91-14.37a140.66,140.66,0,0,1-3.48,22.52c-1.23,5.4-3,10.64-4,16.11-.36,2-.76,3.88.47,5.76-7.34-5.75-9.83-13.82-10.91-22.64C150.91,271.51,151.16,276,153.17,280.21Zm-12-38.29a41.31,41.31,0,0,1-8,.56c-4.47-.18-9-.14-13.37-1.27-4.2-1.09-5.53-4.19-4.49-8.32,1.24-4.95,4.62-7.26,9-9.07,4.2-1.72,8.56-3.49,11.1-7.73.61-1,1.42-1.52,2-.1,2.06,4.79,6.18,6.42,10.82,7.53,5.61,1.35,10.29,7.41,10.54,13.19.06,1.36-.85,1.49-1.74,1.86C152,240.65,146.58,241.18,141.2,241.92Zm15,.36c-2.07,4.32-.88,8.75-1.65,13-.44,2.39-1.17,4-3.29,5.21-9.23,5.42-21.7,5.2-29.55-1.62-2.72-2.36-4.76-11-3.16-14,.54-1,1.26-.65,2-.57a111.47,111.47,0,0,0,23.74.1C148.21,244,152,243,156.23,242.28Zm-41.07,6.93c-6.18-3.28-6.06-9-6.21-14.64,0-.85.17-1.83,1.36-1.81,1.36,0,1,1.09,1,1.91a9.19,9.19,0,0,0,2.4,5.37c1.54,2,3.05,3.86,1.68,6.61A7.31,7.31,0,0,0,115.16,249.21Zm43.05-5.39a4.4,4.4,0,0,1,2.68-3.78c1.73-.8,2.47-2.56,3.46-4,.38-.57.73-1.28,1.46-1.19s.71,1,.83,1.63c.81,4.26-.42,8.22-2.53,11.75-1.59,2.68-4,4.89-6,7.31C157.18,251.36,157.94,247.6,158.21,243.82Zm414-2.23a50.4,50.4,0,0,0,8.21,17.58c1.09,1.5,1,2.31-.4,3.56a22.68,22.68,0,0,1-9.33,5.43c-5.91,1.63-11.8,3.34-18.47,3.72-10-1.3-20.44-2.71-29.28-9.36-1.69-1.27-2.27-2.15-.69-4,6.89-8.07,10.68-17.59,12.55-27.93.38-2.14.87-2.91,3.29-1.72,8,4,16.6,3.85,25.23,2.69,2-.28,3.74-1.44,5.57-2.24,1.22-.53,1.77-.44,2,1.16C571.42,234.17,571.35,237.92,572.25,241.59Zm-46.48-29.27a28.38,28.38,0,0,1-5.39-4.24c-3.26-3.76-3.54-8.32-3.21-13,.16-2.44,1.78-2.61,3.42-1.45,3.26,2.3,5.84,5.48,9.26,7.62a1.65,1.65,0,0,1,.63,1.52c0,5.49-.91,10.93-.48,16.8a4.52,4.52,0,0,1-2.6-4.36C527.55,213.61,526.81,213.06,525.77,212.32Zm1.1-18.27c1.78-9.46,8.14-14.59,18.28-14.89,4.78-.14,9.58.53,14.32-.42,3.6-.72,7-2,9.57-4.77.63-.69,1.42-1.08,1.6.17.92,6.45,5.29,11.63,6.53,18,.41,2.09-.25,3.26-1.53,4.79-5.82,6.94-13.52,7.62-20.91,6.87a63.68,63.68,0,0,1-15.91-1.06c-4.36-.92-7.85-3.4-11.41-5.8C526.28,196.17,526.68,195.07,526.87,194.05Zm6.75,32.35a2.2,2.2,0,0,1,.86,2.54,17.57,17.57,0,0,1-2.22,5.95c-1.24-4.52-2.25-8.57-4.67-12.88C530,223.79,531.8,225.12,533.62,226.4Zm37.61-1.64c-5.12,3.37-10.6,5.27-16.46,4.4-7.83.65-14.48-1.63-20.62-5.74a3,3,0,0,1-1.47-3c0-4.87.62-9.76-.26-14.62-.37-2.05.06-2.92,2.36-1.79a24.29,24.29,0,0,0,10.3,2.18c6.41.11,12.82.56,19.23,0a17.73,17.73,0,0,0,2.53-.37c3.39-.86,3.55-.89,3.83,2.55.39,4.66.67,9.31,1.9,13.85C572.91,223.53,572.19,224.13,571.23,224.76Zm8.87-11.6h-.05c.2,2.83-1.76,4.39-3.59,6.13-.12-4,1.06-6,3.59-6.13a.16.16,0,0,1,0-.07Zm1.68-3.51c-.16.23-.33.59-.55.64-4.17,1-5.18,4.45-5.94,8.12l-.79-.26c-.73-4.5-1.44-9-2.21-13.51a1.66,1.66,0,0,1,.36-1.58c2.94-3.12,5.77-6.35,8.85-9.33,1.56-1.51,2.73-.36,3,1.33C585.39,200.23,584.81,205.18,581.78,209.65Zm-14-88.68c11,8.58,23.74,14.72,34,24.25,5.34,4.94,10.28,10.32,13.5,17a7.49,7.49,0,0,0,1.07,2c3,3.09,1.41,5.86-.52,8.62-5.23,7.45-11.73,13.28-20.37,16.63-2.64,1-5,2.81-7.45,4.3-.72.45-1.27.93-1.71-.29-1-2.88-3.24-2.83-5.44-2.08,3.88-10.91,2.88-21.38-3.47-31S562,145.25,549.09,147.12C557.41,139.15,564.35,131.36,567.79,121Zm-11.17,28.57c10,1.29,16.35,7.37,20.55,16,3.92,8,3.6,16.45,1.47,25a17,17,0,0,0-2.29-7.91,63.66,63.66,0,0,1-4.24-9.73c-.56-1.77-1.5-2.07-3-.91-4.49,3.55-9.8,4.66-15.32,4.82a92.65,92.65,0,0,0-14.29,1.18c-8.56,1.56-12.81,8.63-14.21,14.84-.15.7.29,1.8-.68,2s-1.35-.86-1.76-1.62c-1.76-3.34-1.23-7.12-2.06-10.64-2.71-11.56,5.36-23.76,15.58-28.59C542.75,150.87,549.33,148.61,556.62,149.54Zm-52.43-21.38c-.2-1.24-.85-2.82.85-3.87s2.87-1.43,4.07,1.06A55.45,55.45,0,0,0,525,145.11c3,2.32,4.92,6,9.26,6.74-3.8,2.93-7.52,5.29-10.29,9a28.43,28.43,0,0,0-5.26,24.37c.25,1.12.48,2.24.72,3.36s.24,1.88-1.18,2.05c-2.58.3-3.11,2.24-3.23,4.37a43.92,43.92,0,0,0,.33,8.23C511,198,505,195.89,499.23,193.43c-2.25-1-2.3-1.82-1.35-3.77,2.36-4.83,4.41-9.76,3.91-15.37-.32-3.7-1.13-7.24-3.38-10.19a5,5,0,0,1-.76-5.34c.75-1.86,1.5-3.72,2.34-5.54C503.72,145.26,505.61,137,504.19,128.16Zm-64.58-27.88c6.13-7.19,14-12.77,23.87-13,11.89-.22,23.72,3.25,29.63,15.64a106.19,106.19,0,0,1,8.61,24c1.73,8.29.21,16.15-3.5,23.7-1.72,3.49-3.77,6.92-3.45,11.09a5.08,5.08,0,0,0,1.08,3.19c4.41,4.92,4.25,10.59,2.66,16.47a17.92,17.92,0,0,1-1.63,4.29,26.45,26.45,0,0,0-2.57,20.83,11.67,11.67,0,0,1-1.23,9.4c-1.76,2.94-3.65,5.8-5.49,8.7-.63-4.54-2.74-8-5.38-11.26A38.85,38.85,0,0,1,476.65,203c-1.92-4.76.57-8.69,3.51-12.29.42-.52.93-1,1.4-1.45,4.47-4.52,4.53-5.69,1.92-11.64-1.61-3.66-3-7.44-3-11.58a8.83,8.83,0,0,1,2.25-6.06,38.18,38.18,0,0,0,8.23-13.59c.83-2.49,3.29-4.58,4.93-6.91s1.68-5.06,1.21-7.72a3.53,3.53,0,0,0-3.41-3c-1.37-.1-2.61.35-2.79,2.15,4.16-.83,5.86,1,4.38,5.28a18.16,18.16,0,0,1-5.44,8c-1.17,1-1.83.78-2.16-.67-.43-2-.79-3.78.85-5.61,5.16-5.72.16-18.92-5.71-21-1.45-.53-2.85-1.16-4.28-1.71a8.53,8.53,0,0,1-5.84-6.9c-.29-2-.9-1.71-2.08-.77a29.36,29.36,0,0,0-3.87,3c-3.11,3.49-7.27,4.73-11.56,5.13-7.27.69-10.91,4.93-12.51,11.5-.54,2.18-.93,3.5-3.69,2.07s-4.47.08-4.29,3.16a11.16,11.16,0,0,0,.62,3.66q4.71,10.91,9.64,21.73a8.82,8.82,0,0,0,1.9,2.5c3.77,3.72,4.13,8.12,2.31,12.73-1.22,3.09-2.15,6-1.55,9.45a15.8,15.8,0,0,1-1.91,10.31c-3.69,6.68-3.3,13.62-1.75,20.68a25.27,25.27,0,0,1-1.2,15.76,15,15,0,0,1-.92,1.78c-.13.21-.41.33-1,.76-.24-7.81-5.34-12.46-10.38-17-4.35-3.92-7.49-8.27-8.45-14.23a18,18,0,0,1,2.61-12.38c3.7-6.23,3.82-12-1-17.72-2.22-2.65-2-6,.84-8.54,5.39-4.78,5.66-10.35,4.44-17C425.86,128.5,428.64,113.16,439.61,100.28Zm9.4,80.51a7.44,7.44,0,0,1,.9-5c2.73-5.39,3.42-10.71-.4-16.13,4.62,2.44,8.84,5.3,14.09,5.68a24.52,24.52,0,0,0,14.95-3.46c-1.26,6.8,1.11,12.35,3.5,17.85,1.09,2.5,1.49,4.35-1.1,6.46a20.16,20.16,0,0,0-6.24,9.48,12.87,12.87,0,0,0,1.61,12.07c3,4.17,2.5,7.78-.42,11.65a29.76,29.76,0,0,0-4.1,8.83c-1.84,5.56-5,10.56-6.57,16.22-.11.41-.25,1.07-.84,1s-1-.83-1.33-1.4c-3-5.48-5.86-11-8.85-16.45a164.61,164.61,0,0,1-8-16.52,18.55,18.55,0,0,1,.93-16.34A20.43,20.43,0,0,0,449,180.79Zm-7.8-36.73a27.82,27.82,0,0,1-4.83-9.38c-.42-1.35-1-3.39.63-4.14s3,.86,3.95,2.18a22.45,22.45,0,0,1,3.84,18.53c-1.62-1.82-3.33-3.16-2.7-5.59C442.34,144.75,441.6,144.54,441.21,144.06Zm2.71-15.29c.37-1.29.84-2.55,1.24-3.83,1.49-4.66,4.73-7,9.56-7.32,5.8-.33,10.83-2.22,14.54-7,1.23-1.56,2.16-2,2.79.61.73,3.09,3.29,4.69,6.05,5.69a17.65,17.65,0,0,1,9.39,8c3,5,.14,12.82-5,14.23-3.08.86-6,2.61-9.24,3-2.65.29-5.29,1-6.72.82-6.55-.36-11.78-.83-16.79-2.75A9.33,9.33,0,0,1,443.92,128.77ZM447.08,148c0-6.32,0-6.24,4.84-4.82,10.57,3.08,21,2.75,31.18-1.66,1.72-.75,2.26-.29,2.44,1.34.19,1.8.53,3.6.55,5.41.05,3.08-2.37,5-4.11,6.94-7,7.83-16,10.47-26.31,4.68a9.2,9.2,0,0,0-1.52-.8C448.32,157.08,446.07,153,447.08,148ZM404,129.05a26.72,26.72,0,0,0,4.17,1.9,42.54,42.54,0,0,1,16.26,11.9,11.34,11.34,0,0,1,3,8.5,12.72,12.72,0,0,1-3.65,8.19c-4.48,4.66-4.63,7.83-.94,13.25a11.32,11.32,0,0,1,.73,12.46c-2.34,4.53-4.33,9.13-3.75,14.5.27,2.45-2.24,2.89-3.87,3.66a49.42,49.42,0,0,0-17.48,14.19c-6,7.44-8.56,16.17-9,25.58-.17,3.68,0,7.38,0,11.07-5.21-7.09-7.8-15-9-23.48a35.41,35.41,0,0,0,3.13,17.69c1.47,3.12,3.17,6.13,4.8,9.16a2.91,2.91,0,0,1,.24,3c-4.39,8.85-8.83,17.7-15.78,24.89a120.33,120.33,0,0,1-9.29,8.15c-1.29,1.1-2.68.78-4-.15C352,288,344,283.13,337.93,275.93A45.76,45.76,0,0,1,331,263.72c-.63-1.51.24-2.23,1-3.24,6.79-8.76,10.48-18.77,12.23-29.89-1.5.27-1.36,1.29-1.53,2-2,8.44-4.69,16.58-9.44,24-1.83,2.85-4.63,4.56-6.81,7a1.18,1.18,0,0,1-1.55.33,1.41,1.41,0,0,1-.54-1.79c2.08-2.65,1.65-5.84,1.9-8.81a342.43,342.43,0,0,0,1.31-43.89c2.07,2.08,4.14,3.87,5.26,6.61,4,9.83,12.09,14,22,15.64A49,49,0,0,0,374,231c7.42-1.71,13-5.82,15.41-13.43a5.71,5.71,0,0,0,.4-3.37,1.72,1.72,0,0,1,.92-2.18c6.29-3.32,5.6-9.23,5.36-14.86-.13-3-1.34-5.36-5-5.34-1.75,0-1.27-1.5-1.29-2.62-.18-9.57-.29-19.15-.64-28.72-.09-2.53,0-5.65-4.14-5.52a2.65,2.65,0,0,1-2.29-1.38c7.47-6.7,12.92-14.89,17.71-23.51C401.5,128,402.21,127.89,404,129.05ZM316.62,301.54a6.7,6.7,0,0,1-2.31,7.19c-5.47,5-11.62,7.43-19.15,6.09-5.31-.95-10.52-2-15.25-4.72-2.55-1.47-4.13-3.34-4-6.64.11-3-.53-6-.86-9.13,12.92,6,25.55,3.4,38.13-.38,4.09-1.23,4.11-1.36,3.39,3A10.94,10.94,0,0,0,316.62,301.54Zm-3.37-10.64c-9.7,3.32-19.72,5.66-29.81,3.27s-10.21-3.82-8.52-13.31a29.9,29.9,0,0,1,2.42-7.35c2.44-5.23,7.24-7.05,12.49-7.23,4.19-.14,8.08-.2,10.63-4.75,2.35,5.31,7.06,6,11.39,6.89s6.12,3.8,6.75,7.78c.38,2.36.71,4.73,1,7.09.12.85.11,1.75,1.24,1.86l0,0,.05,0-.05,0,.05,0c.09-1.22.16-2.43.27-3.65,1-11.47-2.73-15.13-12-16.4-3.41-.47-6.08-1.65-7.68-4.72-.7-1.34-1.48-1.07-2.19-.23-2.58,3-6,3.27-9.71,3.88-11.13,1.81-15,6.24-17.17,18.74-.25,1.48-.2,3-.31,4.69-4.31-3.74-8.34-7.55-7.59-13.67a40.06,40.06,0,0,1,4-14c4-7.6,9.75-13.34,18.21-15,9.87-1.91,19.65-.72,27.78,5.89,4.49,3.64,6.64,9,8.09,14.59,1.61,6.17,1.75,12.28-.59,18.33a2.81,2.81,0,0,1-1.12,1.53v.07h-.07A15.5,15.5,0,0,1,313.25,290.9Zm-40.17,4.73c0,3.52,0,3.52-3,2-3.37-1.64-6.48-8.05-5.77-11.92.12-.7.38-1.36,1.13-1.51s1,.39,1.3.91a22.22,22.22,0,0,0,5.66,7.09C273.52,293.12,272.93,294.56,273.08,295.63Zm51.27-11.28a1.4,1.4,0,0,1,1.77.39,4.24,4.24,0,0,1,1.18,3.74,26.36,26.36,0,0,1-6.53,12.42c-.84.93-1.58.73-1.55-.63a45,45,0,0,0-.6-7.69C318.45,291.48,323.3,284.85,324.35,284.35ZM388,211.53c-1.47,1-3.32,1.42-4.69,2.82,2.4.62,2.33,1.65-.54,6.45-.3-4.93-.28-9.39-.89-13.75-.87-6.25,3.27-9.54,7.16-12.89,2.11-1.82,4.57-.62,5,2.2a21.94,21.94,0,0,1-1.27,11.25C392,209.77,389.73,210.36,388,211.53Zm0,3.53a25.11,25.11,0,0,1-4.1,7.19c.54-3.25,1.81-5.41,2.66-7.71.2-.54.45-1.22,1.15-1S388.24,214.55,388.05,215.06Zm-7.49-13.77a3.34,3.34,0,0,1-2,.94,83,83,0,0,1-21.36,2.31c-3.74-.11-7.48-.08-11.22-.19-2.26-.07-4.12-.62-5.51-2.88-1.28-2.07-4.81-3.69-4.75-5.41.09-2.21.52-4.69.82-7.06.54-4.15.82-8.38,4.28-11.57a11.4,11.4,0,0,1,8.34-3.17c3.26.05,6.52,0,9.78,0,4.58.63,9.21-.19,13.77.87a28.62,28.62,0,0,1,6.73,2.48c4.33,2.22,6,5.86,6.7,10.62C387,194,383.75,197.52,380.56,201.29Zm.31,22.28a2.6,2.6,0,0,1-1.69,2.86c-5.32,2.92-11,3.53-17.58,3.4a34.44,34.44,0,0,1-16.29-3.57c-2.71-1.31-4.56-2.82-4.16-6.3.45-4,.43-8,.57-12,0-1.52.49-2.32,2.25-2a80.9,80.9,0,0,0,33.26-1c1.23-.29,2.4-.68,2.31,1.24C379.27,212,380.46,217.76,380.87,223.57ZM397.65,79.44c-.08-1.13-.58-2.2.39-3a.8.8,0,0,1,1.18.43C399.46,78.05,398.73,78.78,397.65,79.44Zm4.65-19.19c.55-1,1.16-.42,1.41.27a19.78,19.78,0,0,1,.57,2.55,33.91,33.91,0,0,1-2,8.6,5.2,5.2,0,0,1-2.36,2.39c-1.45,1-1.44.24-1.88-1C396.09,67.57,400.14,64.24,402.3,60.25ZM350.8,72.33c0,.53-.23,1-.77,1a2.84,2.84,0,0,1-2.74-1.27,17.58,17.58,0,0,1-3.32-9,8.8,8.8,0,0,1,.09-1.79c.31-1,.13-2.55,1.6-2.71,1.27-.15,1.58,1.15,2.06,2.07a10.69,10.69,0,0,0,1.69,3C352.13,66.26,350.9,69.37,350.8,72.33Zm.39-15.4c1.33-7.81,6.14-12.21,14.17-12.39,6.76-.15,10.81-3.56,13.38-10.1a12.53,12.53,0,0,0-4,3.92,10.94,10.94,0,0,1-8.44,4.27c-10.85.86-15.23,5-16.86,15.84,0,.16-.2.31-.26.4C344,57.28,343.72,53.37,344,49c.4-7.47,1.83-14.6,5.65-21.12,2.8-4.79,7.06-8,11.71-10.75,1.52-.9,2.75-1.66,1.78-3.77a3.37,3.37,0,0,1,.29-2.78c2.33-4.8,10.92-9.07,16.16-8,5.66,1.14,8.08,6.13,5.51,11.68-.89,1.93-2.33,2.91,1.34,4,6,1.78,10.14,6.45,12.22,12.45a58,58,0,0,1,3.45,22.55,2.1,2.1,0,0,1-.86,2.09,18.16,18.16,0,0,0-4.72-8.27,26.48,26.48,0,0,0-9-5.92c-3.37-1.31-6.94-2.82-6.77-7.5,0-.53-.19-1.08-.73-1-.33.06-.72.65-.81,1.06a6.15,6.15,0,0,0,2.53,6.58,21.94,21.94,0,0,0,5,2.8c7.82,3,12.28,8.42,12.94,16.86,0,.38.25.8-.14,1-2.35,1.3-3.64,3.9-6.32,4.87-8,2.89-16.27,3.31-24.6,2.44a62.14,62.14,0,0,1-11.55-2C352.35,64.92,350.37,61.72,351.19,56.93Zm5.37,27.48c-2.17-1.93-2.6-4.35-2.8-6.93s.21-5.16-.41-7.72c-.35-1.46.39-1.52,1.62-1.18a83.37,83.37,0,0,0,27.22,2.79,41.43,41.43,0,0,0,10.05-2c2.64-.83,3.24-.08,3,2.33-.07.57,0,1.15,0,2.26-.2,2.7-.44,5.94-.67,9.18s-2.95,4.53-5.14,6.11c-5,3.59-10.61,3.42-16.25,2.35C367.11,90.41,361.32,88.65,356.56,84.41Zm3.95,64.23c-4.22-5.69-8.46-11.35-11.44-17.85-2-4.29-2.14-4.13,1.65-6.79,8.85-6.19,15.42-21.6,10.65-30.9a12.66,12.66,0,0,1-.59-2.22c9.71,3.44,19.15,6.51,28.9,1.71-1.61,5.52-1,11,.07,16.41,1.27,6.42,3.69,12.3,9.07,16.5,1.37,1.07,1.19,2.14.41,3.46A151.92,151.92,0,0,1,385,149.82c-1.85,2.2-3.89,3.4-7,2.34-4-1.35-8.3-1.39-12.53-1.18A5.4,5.4,0,0,1,360.51,148.64Zm-26.88,14.07c.8-3.86,3.28-5.21,6.54-6.35,11.76-4.12,23.82-4.49,36-3.08,3.62.42,6.5,2.73,9.74,4.14a3.07,3.07,0,0,1,1.64,2.86c.36,10,1.29,19.9,1.19,29.87a10.67,10.67,0,0,1-.2,1.38l-.55,0a3.15,3.15,0,0,1-.21-1c1.43-11-6.91-15.79-15.44-17.08s-17-.81-25.56-.59c-4.69.12-9.23,4.4-10.43,9.08a37,37,0,0,0-1.19,9.67c0,.72.47,2-.89,2a2,2,0,0,1-2-1.73,17,17,0,0,1-.33-2.55C331.65,180.4,331.81,171.53,333.63,162.71Zm-7.89,33.08c.05-1.19.39-2.38,1.75-2.65a2.83,2.83,0,0,1,3.05,1.2c1.64,1.89,3.75,3.43,5.49,5.33,2.69,2.94,4.45,6,3.88,10.22-.48,3.54-.48,7.15-.71,11a5.94,5.94,0,0,1-3.22-4.77,5.34,5.34,0,0,0-3-4.34,12.91,12.91,0,0,1-6.08-8.39A27,27,0,0,1,325.74,195.79Zm-81.92-53-8.25-3.12C239.4,136.82,239.84,137,243.82,142.75Zm-35.67,59.5c-.73.41-1.23-.31-1.68-.75C203,198,201.2,193.62,200,189c-.19-.76-.4-1.84.6-2.28.84-.36,1.33.52,1.95.92,4.73,3,5.68,7.76,6,13.12C208.47,201,208.83,201.87,208.15,202.25Zm-.6-14.94a5,5,0,0,1-.1,1.15c0,.16-.2.29-.42.59-2.55-1.3-3.79-4.24-6.49-5.37-.32-.13-.41-1-.44-1.58a46.6,46.6,0,0,1,7.5-29.33c7.09-10.75,22.22-14,32.66-9.42,10.94,4.82,14.19,13.67,16.12,23.93a55,55,0,0,1,1,13.93,31.65,31.65,0,0,0-14.53-13.67,13.12,13.12,0,0,1-6.09-6.32c-1-2.17-2.18-1.7-3-.22-3.3,5.61-8.19,8.64-14.34,10.62C212.1,174,207.29,178.9,207.55,187.31Zm50.25,1.38c.33-.34.63-.77,1.18-.66.88.18.79,1,.9,1.6.47,2.84-1.5,8.63-4.31,12.45A12.55,12.55,0,0,1,257.8,188.69Zm-38-15.29c6.06-2.35,11.55-5.06,14.79-11.67,2.54,5.24,6.89,7.47,11.19,10.05a20.8,20.8,0,0,1,9.88,12.52c.26,1,.81,2.12-.13,3-3.65,3.42-6.53,7.48-11.5,9.66-7.09,3.11-14,2.46-21,.86a47.71,47.71,0,0,1-9.46-3.27c-2.75-1.27-3.73-3.08-3.92-6.22C209.17,180.51,213.29,175.93,219.82,173.4ZM211,205.34c0-2.48-.35-5-.58-7.44-.19-2,.58-2.11,2.11-1.22,5.5,3.17,11.59,4.41,17.8,4.9,8.95.7,12.13-.6,21.13-5.55.49,2.92,1,5.8,1.44,8.7a3.88,3.88,0,0,1-1.43,3.82c-4.6,3.86-9.07,7.83-15.11,9.52a16.1,16.1,0,0,1-6.75.67,55.36,55.36,0,0,1-8.66-1.9C215.2,215,211.13,212,211,205.34Zm43.85,56c-3.92,10.76-11.69,17.52-24.09,15.88-10.79-1.42-18.4-7.54-24.35-16.15-1.48-2.15-1.9-4.79-2.76-7.22-.51-1.44.28-2.42,1.34-3.44,7.13-6.88,11.46-15.09,12.38-25.13.25-2.76-.46-4.83-2.59-7.4,14.75,3.84,18.6,6.51,33.59-2.48a2.52,2.52,0,0,1,.17.44c-5.39,3.41-3.31,8.65-2.88,13.19.42,4.34,1.94,8.57,2.87,12.87a22.09,22.09,0,0,0,5.93,11.23C256.74,255.43,255.78,258.82,254.86,261.33Zm1.61-10.18c-6.26-5.37-7.21-12.88-9.13-20-.83-3.11-.89-6.44-1.25-9.67-.07-.55-.13-1.41.18-1.65,2.89-2.3,3.79-6.1,6.47-8.53.64-.58,1.5-1.16,1.73-1.9,1.74-5.66,6.18-10.06,7.32-16,.51-2.68.71-5.16-1.28-7.27-.78-.84-.6-1.77-.64-2.7-.16-4.21.32-8.42-.31-12.63a88.52,88.52,0,0,0-2.43-12.47c1.58.74,2.21,1.91,3.05,2.84,2,2.24,2.78,2.28,4.86.05,6.49-6.93,13-13.82,19.39-20.85,1.5-1.66,2.56-1.67,4-.2,2.09,2.19,4.82,3.42,7.28,5.05,11.84,7.83,21.08,17.64,24.14,32.16,1.08,5.14,3.38,10,4.1,15.21.65,4.73,2,9.52,2.07,14.1.15,14.7.13,29.45-1.7,44.1-.29,2.35-.84,4.68-1.38,7.59-.92-1.35-1.56-2.19-2.09-3.09-5.49-9.35-14.07-12.86-24.48-13.41-8.23-.44-15.52,1.37-21.89,6.82a23.93,23.93,0,0,0-5.49,6.18c-1,1.74-2.11,2.42-4.16,1.09C262.12,254.21,259.07,253.37,256.47,251.15Zm12.66,95.77a10.22,10.22,0,0,1-3.34,5.81c-3.12,2.69-3.34,3.73-1.17,7.07,4.38,6.7,2.9,13.1-.66,19.5-.91,1.63-1.52.62-2-.17-2.12-3.33-3.89-6.82-3.92-10.9a18.91,18.91,0,0,1,3.72-11.6c1.05-1.5,1.4-2.89-.06-4.36-5.08-5.13-5-13.75,1.11-19.18,1.47-1.3,1.86-2.16.71-4-3.49-5.61-2.81-8.52,2.51-12.72,3.14-2.47,3.2-2.52.65-5.66-2.8-3.45-3.65-7.1-1.5-11.17.35-.65.63-1.52,1.55-1.52a1.84,1.84,0,0,1,1.65,1.4,21.23,21.23,0,0,0,4.79,8.06c1.21,1.17.91,2.45-.44,3.39-2.57,1.81-2.66,4.08-1.57,6.81,2.51,6.29,1.82,8.91-3.59,13.17-1.53,1.2-1.39,2.21-.63,3.65C269,338.39,270.18,342.4,269.13,346.92Zm4.13-19.6c2.72-3.47,2.46-7.21-.16-10.54-2.13-2.7.27-3.61,1.5-5,1.66-1.92,2.75.14,3.4.92,2,2.44,4.68,4.76,3.82,8.67-1.19,6.82-3.12,13.43-7.79,18.92-.48.56-1,1.39-1.81,1.22s-.51-1.34-.89-1.89C268.12,334.86,270.3,331.1,273.26,327.32Zm44.4,23.32C310.55,362.33,306,375.19,301.47,388c-1.36,3.88-2.28,7.9-4.08,11.63-.85,1.75-1.57,1.69-2.51.11a249.93,249.93,0,0,1-15.47-30.16c-2.31-5.47-4.79-10.87-7.37-16.22-.76-1.56-1.22-3-.58-4.61a8.84,8.84,0,0,0,.51-3.67,2.49,2.49,0,0,1,1.37-2.56,14.84,14.84,0,0,0,6.07-7.79c1.75-4.57,3.56-9.06,3.56-14.11a11.35,11.35,0,0,0-2.5-6.91c7,2.61,14.26,3,21.35,3.93,2.33.31,4.73-.59,6.92-1.55,1.45-.64,1.86-.31,1.78,1.19a57.92,57.92,0,0,0,.59,10.61c.72,5.21,2,10.13,5.73,14.14C319.25,344.65,319.75,347.2,317.66,350.64Zm1.16-9.2c-3.59-2.7-4.93-6.41-5.76-10.25a67.44,67.44,0,0,1-1.6-14c0-.2,0-.39,0-.58a3.59,3.59,0,0,1,2.26-3.65c.45-.24,1.21-.8,1.46,0,.49,1.57,2.27,2.65,1.63,4.66-1.23,3.86-2.05,8.3.77,11.24C321.55,333,319.47,337,318.82,341.44Zm11.49,19c2,2.85,1.81,6.08,1.32,9.16-.58,3.66-1.38,7.34-4.15,10.23-1.48,1.55-2.16,1.27-3-.53-4.88-10-4.65-14,1.88-25.55A29.84,29.84,0,0,0,330.31,360.41Zm-1.54-8.67c-.61.67-1.18,1.75-2.25.51-3.5-4.05-6.67-8.2-5.55-14.1.42-2.23,1.12-4.21,3.45-5.56-5.33-2.38-7.17-6.79-6.12-11.65.72-3.3,1.67-5.77-1-8.66-1.55-1.67.65-3.41,1.72-4.67,1.87-2.19,3.94-4.15,4.8-7,.18-.6.7-1.31,1.44-1.21s.86,1,1,1.61c.56,3.69,1.25,7.4-1.35,10.72a19.62,19.62,0,0,0-1.47,2.47c-.84,1.47-.63,2.43.93,3.48,5.49,3.66,6.27,9.47,2,14.64-1.11,1.35-.58,1.95.51,2.72C332.72,339.13,333.56,346.47,328.77,351.74Zm44.82,42.06c-1.95,1-3.6,2.54-5.44,3.75-2.43,1.61-2.75,1.43-2.9-1.4a70.54,70.54,0,0,0-5.68-23c-4.5-10.94-13.1-17.72-24-21.74-2.51-.94-3-1.74-1.72-4.2,1.84-3.42.06-9.58-3.53-12.41-1.57-1.23-1.46-1.87-.41-3.35,3.1-4.37,1.39-11.66-3.25-14.55-1-.64-2.12-1-.78-2.49,4.36-4.71,3.55-10,1.44-15.32a3.51,3.51,0,0,1,.15-3.61c1.28-2.21,2.68-4.32,2.69-7.14,0-3-1.08-5.24-3.61-6.65-1.35-.76-1.62-1.45-1.18-2.94a21.07,21.07,0,0,0-.1-11.36c-.87-3.43,2.66-2.49,3.89-3.84.7-.77,1.17,1.25,1.47,2.1,2.64,7.34,7.32,13.07,13.19,18.13,3.87,3.33,8.05,6.17,12.14,9.16,5.05,3.71,6.32,3.25,11.31-.46,9.43-7,15.89-16.17,20.86-26.62.72-1.5.45-4.21,2.36-4.24,1.23,0,2.57,2.09,3.72,3.37,2.79,3.11,6.68,4.82,9.68,7.65.68.64,1.42,1.23,2.4,2.07-1.81.66-3.29,1.27-4.82,1.75-14.5,4.57-21.63,15.4-24.73,29.47a66.05,66.05,0,0,0-.24,25.3c.71,4.23-.34,8.42-.43,12.63-.3,14.78.78,29.53.7,44.3C376.79,390.87,376.06,392.55,373.59,393.8Zm63.28-47-.78-.09c0-1.84,0-3.68,0-5.52,0-2.87.69-6-.22-8.55-1.24-3.5.12-5.4,2.41-7.34,1.28-1.08,1.84-2.67,2.83-3.95,2-2.6,4.34-2.29,5.65.74,2.46,5.7-.75,13.16-6.22,15.45C441.66,341.79,438.17,343.86,436.87,346.78Zm5.59-28.67c-3.38,1-5,3.95-7.24,6.28a3.66,3.66,0,0,1-4.07,1.25c-2.76-.78-5.6-1.26-8.41-1.87a2.26,2.26,0,0,1-2-2.35,64,64,0,0,0-2.59-13.2c-2.12-7-6.59-10.19-13.83-9.84a27.66,27.66,0,0,0-8.18,1.45c-5.61,2.05-7.62,4.63-7.9,10.66a75.58,75.58,0,0,0,.14,10.28c-2.48-2.85-6.26-1.88-9.23-3.32-1.26-.61-1.9-1-1.76-2.36,1.17-10.73,3.23-21.34,11.52-29a39.2,39.2,0,0,1,43.14-6.68c3.16,1.46,4.42,4.93,6.32,7.63,2.81,4,3.9,8.66,4.61,13.42a97.71,97.71,0,0,1,.56,14.91C443.54,316.44,443.7,317.73,442.46,318.11Zm-45.24,14a69.28,69.28,0,0,0,30.35,1.33,43.15,43.15,0,0,0,5.64-1.77c0,4.85.24,9.46-.09,14-.2,2.81,1.56,5.73-.82,8.5-2.52,2.92-5.91,3.8-9.27,4.79a28,28,0,0,1-23.35-3.11,4.77,4.77,0,0,1-2-2.83,52.59,52.59,0,0,1-3.09-18.84C394.59,332.1,394.77,331.44,397.22,332.11Zm-6.78-12.28a47,47,0,0,1-.63-9.12c.42-6.29,2.64-8.93,10.69-10.54.66-.14,1.34-.12,2-.2,7.88-1,12.13,1.95,13.93,9.67,1,4.28,2,8.57,2.84,12.88a2.81,2.81,0,0,0,2.27,2.54c2.76.76,5.48,1.69,8.22,2.57.68.21,1.85-.14,1.9.84s-1.17,1.15-1.92,1.44c-3.71,1.43-7.68,1.34-11.55,1.81a22.88,22.88,0,0,1-2.87,0A74.78,74.78,0,0,1,400,330C394.42,328.84,391.16,325.61,390.44,319.83Zm-8.84,0c4.2,2,7,5.54,9.95,9a1.57,1.57,0,0,1,.33,1.3,62.43,62.43,0,0,0,1.2,17.9c-2.63-2.14-4.09-4-4.13-6.53,0-1.66-.78-2.24-2.1-2.92-6.26-3.24-9.15-8.78-9.93-15.5C376.49,319.39,378.3,318.27,381.6,319.84Zm-1.27,68.24c-.35.3-.66.84-1.18.55-.71-.4-.48-1.18-.49-1.82-.1-8.32,0-16.65-.34-25-.4-9.19-.28-18.35,0-27.66,1.94,2.41,3.82,4.66,6.63,5.91a1.53,1.53,0,0,1,1,1.3c.37,4.71,3.52,7.93,6.7,10.68,5,4.28,5.45,9.35,3.36,14.76A51.82,51.82,0,0,1,380.33,388.08Zm61.74-.64c-6.44,6.81-12.76,13.75-19.24,20.54-2,2.06-4.31,3.77-6.47,5.65-1.43,1.25-2.7,1.23-4.34.1-6.89-4.79-12.66-10.8-18.59-16.65-2.65-2.62-5.18-5.37-7.85-8-1.13-1.1-1-1.83-.08-3.1,2.85-3.83,6.06-7.37,8.42-11.6s4.63-8.6,4.2-13.76c-.05-.65-.56-1.88.78-1.83,1.68.71,3.17,1.37,4.67,2,9.43,3.81,18.57,2.43,27.39-1.89,1.94-.95,2.11-.43,2.49,1.22,1.13,4.94,2.1,9.92,3.62,14.78a27.36,27.36,0,0,0,5.07,9.89A1.65,1.65,0,0,1,442.07,387.44Zm3.28-49.91-.07,0a4.77,4.77,0,0,0-.29,2.93c2.17,16.74,5,33.37,7.9,50a12.16,12.16,0,0,1,0,1.25c-5.51-4.25-10.49-8.49-13.11-15a124,124,0,0,1-5.55-18.07,3.94,3.94,0,0,1,.65-3.47c3.11-4.54,5.95-9.25,8.69-14,.68-1.17.08-2.95,1.71-3.63,0,0,0-.05,0-.07h.06c3.51-4.81,5.59-10,3.93-16.06-.24-.91-.58-2.14-1.26-2.51-3.14-1.73-2.13-4.44-2-7,.62-9.72-.62-18.89-6-27.46-4.51-7.18-11.21-9.3-18.81-10.34a50.92,50.92,0,0,0-10.9,0,4.58,4.58,0,0,1-4-1.2c-4.21-4.47-9.87-7.32-13.59-12.31-.69-.92-1.63-1.65-1.61-2.94.1-8.61-.62-17.25,2-25.7a45.64,45.64,0,0,1,14.35-21.43,50.24,50.24,0,0,1,10.15-7c1.52-.78,2.46-1.14,3.09,1.06A23,23,0,0,0,429.08,217a24.91,24.91,0,0,1,7.4,8.31c1.06,2.1,1.21,4.4,1.72,6.62.58,2.49,1.49,2.92,3.51,1.3,3.19-2.55,4.37-6.23,4.73-10.12.23-2.56,0-5.16.45-7.87,2.3,4.43,4.58,8.87,6.89,13.3q4.46,8.53,9,17.05c.42.79.74,2,1.88,1.92s1-1.48,1.33-2.32c3.94-10.07,7.88-20.14,13.39-29.5.63-1.07,1.23-1.15,1.94-.25,2.37,3,4.89,6,4.1,10.3-.09.54-.47,1.17.18,1.55a1.12,1.12,0,0,0,1-.19c5.53-5.4,11.12-10.82,10.49-19.47a61.21,61.21,0,0,0-1.4-7,11,11,0,0,1-.22-2.28c.07-3.65.8-4.13,4-2.43a101.81,101.81,0,0,1,13.07,8.21c4.25,3.16,7.64,7.48,12.64,9.63,1.43.62,1.31,1.93,1.5,3.17a1.83,1.83,0,0,1-.6-.06c-.93-.51-1.54-2.42-2.62-1.52-.89.74.5,2,1,3a59.56,59.56,0,0,1,6.6,18.3c.33,2.07-.58,3.74-1.34,5.48a69.54,69.54,0,0,1-12.63,19c-8.83,9.69-19.61,16.69-30.92,22.63-14.68,7.72-21.8,20-25.11,35.48-3.88,18.12-5.81,36.5-8,55-1.64-8.83-3.4-17.54-4.27-26.41-.25-2.56-.73-5.1-1.17-7.64a2.85,2.85,0,0,0-2.2-2.64l0,0,0,0Z"/><path class="cls-2" d="M649.46,428.58c-8.59-15-15.21-30.91-22-46.73-.87-2-.55-3.35,1-5.06,5.22-5.81,10-12,11.31-20,.35-2.11.75-4.26-1.34-6.79a15.56,15.56,0,0,1,.06,5.48c-3,12.67-10.64,21.91-21.84,27.82a175,175,0,0,0-21.19,13c-3.06,2.22-3,2.22-4.65-1a13.47,13.47,0,0,0-1.19-2C584,385.83,577.48,379.51,569,375c-8.18-4.34-6.67-2.78-5.72-10.9,0-.29,0-.57.07-.86,1.44-13.1,3.5-26.13,4.48-39.28.42-5.62.13-11.22-2.43-16.25C559.85,296.79,550.83,289.88,539,287c-7-1.69-13.84-.74-19.75,3.53a41.39,41.39,0,0,0-13.87,17.61c-5.3,12.45-5.3,25.47-4,38.65.73,7.42,1.87,14.83,1.55,22.35a3.12,3.12,0,0,1-1.94,3.11c-3.79,1.86-7.51,3.84-11.27,5.77-4.36,2.23-7.71,5.76-10.77,9.37-2.88,3.4-4.91,7.54-7.24,11.4a5.24,5.24,0,0,0-.84,4.69c1.69-3.07,3-5.52,4.38-7.91,4.14-7,9.06-13.22,16.44-17.16,5.5-2.93,11.39-5.11,16.6-8.58,1.35-.89,1.8-.24,2.34.87a39.21,39.21,0,0,0,7.26,9.91c6,6.28,20.56,6.76,25.7,3.68,4.39-2.63,9.28-5,11.48-10.06,1.51-3.45,2.83-3.2,5.69-1.27,6.63,4.47,14.28,7.34,20,13.25a54.76,54.76,0,0,1,8.66,11c1.29,2.26,1.14,4-.6,5.93-6.36,6.91-9.69,15.25-11.42,24.38a38.85,38.85,0,0,0-.57,10.86c.07.78,0,2.08,1.12,2s.4-1.24.46-1.9c.21-2.1.24-4.21.45-6.31,1.36-13.82,7.18-25.28,18.23-33.88,8.17-6.36,17.69-10.7,25.81-17.13,2-1.6,2.81-1.26,3.84,1,5.42,12.15,9.82,24.76,16.47,36.36,3.23,5.64,6,11.55,9,17.33.32.63.55,1.6,1.49,1.5s.73-1.05,1-1.62c1-2.19,2.4-4.12,3.2-6.42a139.14,139.14,0,0,1,6.9-16.73c1.18-2.36,2-4.88,3-7.33-6.39,9.33-8.69,20.52-14.38,30.81C651.88,433.12,650.74,430.81,649.46,428.58ZM505.61,314.68a40.56,40.56,0,0,1,14.94-21.79,20.3,20.3,0,0,1,16.39-3.5,38,38,0,0,1,21.67,12.83c5.39,6.21,6.66,13.06,6.44,20.73-.78,0-.43-.61-.56-.91s-.27-.92-.42-1.38c-.92-2.78-2.31-3.28-4.63-1.48-1,.77-1.36,1-2-.34a21.8,21.8,0,0,0-13.29-11.5c-4-1.28-7-3.84-9.83-6.77-.78-.81-1.48-1.76-2.41-.23a13.73,13.73,0,0,1-7.93,5.85c-7.23,2.15-10.75,7.22-12.62,14a16,16,0,0,1-.68,1.61c-2.09-1.61-2.75-4.11-5.1-5C504.92,316.56,505.39,315.41,505.61,314.68Zm43.87,13a45.36,45.36,0,0,1-11.16.65c-7.34-.28-14.74-.18-21.88-2.36-4.31-1.32-5-2.53-3.65-6.74,1.81-5.65,4.78-10.11,11.3-11.29a12.08,12.08,0,0,0,7.49-5c.83-1.14,1.22-1.26,2.26-.1,3.2,3.59,7.42,5.64,11.89,7.18,4.71,1.62,7.35,5.39,9.66,9.39C557.2,322.54,554.09,326.71,549.48,327.69Zm3.59,14c.16,2.82-2.88,4.36-4.88,5.94-8.55,6.72-26.08,2.94-32-3.42a4.88,4.88,0,0,1-1.15-3.71,56.35,56.35,0,0,0-1.38-12.13c4.32.43,8.57,1,12.84,1.26,7.82.56,15.65,1.79,23.48.25,1.57-.31,1.83.36,2,1.55C552.48,334.81,552.88,338.26,553.07,341.66Zm-47.78-20.81c0-.49.15-1,.65-1.17a1.1,1.1,0,0,1,.94.39c2.41,4.2,6.38,7.8,5.27,13.39h.05l0,0c.9,1.79.45,3.66.42,5.79-1.46-.67-1.92-1.94-2.69-2.89-.58-.73-.57-1.44.53-1.67a2.53,2.53,0,0,0,1.74-1.23,0,0,0,0,0,0,0h0c-4.08.37-5-.23-6.21-4.08A22.51,22.51,0,0,1,505.29,320.85Zm55.09,45.52c-.1.81-.13,1.92-1,2.17s-1.19-.79-1.73-1.31c-4.2-4-5.85-9.33-7.51-14.63-.24-.8-.09-1.73-1.19-1.92l0,0,0,0a33.11,33.11,0,0,0,5.78,16.83,2.21,2.21,0,0,1,.26,2.81,34,34,0,0,1-12.18,11.86c-5.53,3.29-17.38,2.07-22.4-2.26a32,32,0,0,1-8-9.7,3.57,3.57,0,0,1,.49-4.61c3.34-3.93,6-8.26,5.57-13.75a1.91,1.91,0,0,0-1-1.91,18.21,18.21,0,0,1-3.61,11.48c-2.38,3.34-4.89,6.58-9.29,8.54.64-13.83-1.53-27.19-.91-40.7,1.81,3.68,4.12,7,5.95,10.72,3.92,7.91,11.19,11.68,19.79,13,6.72,1.05,13.31,1.17,19.48-2.33,0,0,0,0,0-.06l0,0,0,0H549c4.22-3.52,8.58-6.94,8.92-13.24-1.73.18-1.52,2.07-2.94,2.6-.2-3.47-.76-6.82-1.28-10.17-.37-2.4,2.25-3.12,3.14-4.89.76-1.51,2.41-2.42,3.22-4a1.48,1.48,0,0,1,1.6-1c.78.18,1,.92,1,1.58.45,4,.05,7.85-2.18,11.35-.94,1.49-2.53,1.93-4.25,2.39,3.14,2.05,4.95.61,8-6.26.73,2.56-.15,4.74-.36,6.85C562.84,346.09,561.58,356.23,560.38,366.37Z"/><path class="cls-2" d="M510.37,77.25c-2,.63-1.11,2-.75,3.2,1.38,4.37,4.82,6.79,8.32,9.47,9.91,7.58,32.74,9.71,44.32-1,3.78-3.49,6.64-9.38,5.29-13.4-2,2.84-2.86,6.23-5.07,9-1.67-2.38.41-3.67.77-5.29.63-2.76,2.25-4.29,5.21-4.42a3.88,3.88,0,0,0,3.48-2.63,22.56,22.56,0,0,0,1.64-12.1c-.27-1.89-1-4.48-2.93-4.55-4-.14-3.47-2.66-3.41-5,.24-9.87-.38-19.71-.94-29.56a6.08,6.08,0,0,0-3.21-5.11,21.59,21.59,0,0,0-10.57-3.23,144,144,0,0,0-22.06,1.26,51.14,51.14,0,0,0-16.27,4.33,7.6,7.6,0,0,0-3.85,4.06,50.46,50.46,0,0,0-4,18.94A55.61,55.61,0,0,0,508,55.8c-4-1.64-6.35-.89-6.85,2.22a17.83,17.83,0,0,0,4.61,15.39A41.59,41.59,0,0,0,510.37,77.25Zm.07,0h-.05l0,0s0,0,0,0c3,.38,2.08,3.32,3,5.06C512.05,80.89,510.57,79.51,510.44,77.27Zm47.37,11.46a20.67,20.67,0,0,1-10.45,4.4c-8.92.74-17.76.69-25.83-4.23-2.32-1.42-3.46-2.79-2.74-5.72,1.13-4.52.88-9.24,1.38-14.14,8.09,2.64,16.48,2.47,24.87,2.47a24.64,24.64,0,0,0,10.79-2.41c1.46-.7,2.41-.76,2.29,1.26-.3,5,.54,9.92,1.29,14.82A3.29,3.29,0,0,1,557.81,88.73ZM514.05,60.35a1.22,1.22,0,0,1-.37-1c.77-4.87.77-9.94,3.61-14.31a6.72,6.72,0,0,1,4.34-3c4.59-1.08,9.29-1.07,13.94-1.43,6.19-.49,12.41-.77,18.62-.73,5.17,0,6.79,1.74,7.37,7.16.44,4.16.52,8.37.81,12.56a1.6,1.6,0,0,1-.61,1.44c-5.68,5.55-12.23,8.72-19.72,7.55-6.14.65-11.48-.18-16.88-1.06C520.25,66.75,517.65,62.89,514.05,60.35ZM565,50.8c.22,2.22.45,4.43.68,6.65C564.1,55.33,564.57,53.07,565,50.8Zm.54,9.49c.51-.35,1.2-.36,1.4-1.15a2.06,2.06,0,0,1,2.34-1.69c1.25.14,1.68,1.3,1.91,2.29A19.62,19.62,0,0,1,570.37,71a3,3,0,0,1-2.27,2c-3.14.67-5.69,1.83-5.64,5.66,0,.3-.4.61-1.13,1.66-.65-4.61-1.84-8.51-1.54-12.28C560.06,64.85,562.72,62.24,565.5,60.29ZM508.81,39.72A67,67,0,0,1,513,22.53c.67-1.77,1.55-2.8,3.25-3.18a176.78,176.78,0,0,1,22.86-3.73c5.14-.44,10.27-1.06,15.44,0a24.77,24.77,0,0,1,7.6,3.23c1.63.93,1.69,2.84,1.72,4.36.15,7.26.07,14.53.07,21.11-2.47-6.7-2.63-6.94-10.68-6.79-9.75.19-19.5.6-29.19,1.7-6.74.76-10.66,5.18-11.94,12.28a17.59,17.59,0,0,0-.1,5.12c.07.6.31,1.51-.66,1.62s-1.14-.71-1.23-1.35C509.32,51.17,508.22,45.52,508.81,39.72ZM503,59.89c.21-2.66,1.21-3.09,3.52-1.78,4,2.28,7.79,4.84,10.51,8.69.49.71,1.2,1.26,1.07,2.6-1.18,4.59-.53,9.73-1.45,14.72-.1.5-.24,1-.84.81s-1.17-.71-.36-1.21c1.36-.84.31-1.62.13-2.45-.85-3.88-3.82-5.86-6.75-8.07A14.4,14.4,0,0,1,503,59.89Z"/><path class="cls-2" d="M12.09,115.43a6.82,6.82,0,0,1,2,3.35c2.22,6.84,6.39,12.31,12.83,15.5,12.14,6,29.57,4.52,40.17-6.22,2.8-2.83,4.29-6,3.13-10-.33-1.12.47-1.11,1-1.32,6-2.5,6.62-8,7.12-13.31a8.22,8.22,0,0,0-1.82-5.64c-.89-1.16-2-2-3.42-1.64-2.1.52-2-.57-2.08-2.11-.27-6,.28-12-.55-18.08-1.3-9.52-6.53-16.88-16.37-19-1-.21-2-.58-3-.8-6.23-1.36-12.65-2.08-18.77-.38-10,2.77-15.46,10.24-17.71,20C13.11,82,13.76,88.4,14.11,95c-4.83-.73-7.39.74-7.49,4.77C6.47,105.57,7.22,111.27,12.09,115.43Zm50.26-4.15c-.18,5.15-.88,10.29-.11,15.44.28,1.89-1,3-2.3,3.66-10.06,5.61-23,6.25-33.5.59-3.57-1.92-3.58-5.12-3.75-8.32a64,64,0,0,1,.73-14.55c12,5.29,24.24,3.63,36.48,1.22C62,108.9,62.42,109.39,62.35,111.28Zm-13.12-3c-2.28.2-4.51,1.09-6.86.54-6-.47-12.21-.34-17.79-3.47-3.3-1.85-5.23-5-7.79-7.52-.62-.61-.19-1.27.06-1.87a41.89,41.89,0,0,1,6.44-11.49c2.8-3.32,7-3.19,10.86-3.7,6.75-.9,13.57-.71,20.37-.64,7.74.08,9.38,1.64,10.1,9.22.38,4,.64,8,2,11.82.83,2.24-.7,3.14-2.41,3.8A55,55,0,0,1,49.23,108.27Zm21.84-7.84c.29-1.4.77-3,2.6-3,1.66,0,2.06,1.54,2.51,2.77,1.82,5-1.07,12.14-5.83,14.45a4.7,4.7,0,0,0-2.94,4.18,63.19,63.19,0,0,1-1.54,7,8.73,8.73,0,0,1-1.23-5.06c0-2.87.1-5.76,0-8.62-.13-2.45-.15-4.27,2.63-5.75C69.14,105.45,70.53,103,71.07,100.43Zm-2.46-3.7c.09.46.42,1.09.23,1.34-.78,1.07,2,2.57,0,2.88-1.12.17-.48-2-.71-3.16a3.58,3.58,0,0,1,.09-1.07ZM18.47,70.59c6.4-11.29,12.87-13.93,26-12.74a55,55,0,0,1,9.51,2c7.9,2.19,12.09,7.49,13.5,15.35,1,5.7.45,11.43.37,17.16-.47-2.58-.85-5.17-1.43-7.72-1-4.37-3.08-6.6-7.38-6.73C49,77.57,39,77.67,29,79.33c-6.07,1-8.83,5.19-11.13,10.1-.49,1-1,2.06-1.44,3.09C15.6,85,14.57,77.46,18.47,70.59ZM8.09,99.92c.1-1.56.59-2.82,2.18-3.37s2.46.32,3.54,1.26c2.61,2.31,4.11,5.49,6.45,8a1.78,1.78,0,0,1,.5,1.27c-1.2,5.63-.13,11.25,0,16.86a11.36,11.36,0,0,1-.32,1.45c-1.46-2.09-2.63-3.71-3.73-5.36-.39-.59-1.09-1.23-.28-2s.16-1-.47-1.38C9.75,112.77,7.67,106.94,8.09,99.92Z"/><path class="cls-2" d="M137,110c-.33-1-.74-2.1.16-3s2-.31,2.92.17c7,3.58,14.43,4.17,22.06,3.46a32,32,0,0,0,9.64-2.53c3.55-1.52,4.17-1.3,4,2.41-.49,8.79,2.11,16.81,6.34,24.23a50,50,0,0,0,20,19.62c.61.32,1.4.42,1.78,1,.25-.14.51-.27.75-.43a55.88,55.88,0,0,1-13.43-10.18c-9.45-9.59-14.51-20.93-14.84-34.43-.06-2.56.31-4.28,2.67-5.89,4.05-2.76,5.13-7.77,2.51-11.64.66,2.91.13,4.83-2,6.25,0-4.79.94-6.35,4.77-8,5.9-2.48,8.31-7.54,6.76-14a13.82,13.82,0,0,0-2.26-4.62c-1.18-1.69-3-1.54-5.13-1.24a9.81,9.81,0,0,0,1.41-3.61,41.85,41.85,0,0,0-.45-17.09c-1.88-7.37-5.72-13.44-12.42-17.54-6-3.68-12.6-3.85-19.35-4.23C140.46,28,126.05,42.15,124,52.94a38.57,38.57,0,0,0,.29,17.65c.42,1.53.58,3-2,2-2.22-.85-3.7.11-4.24,2.46-.81,3.49.13,6.85.76,10.23.56,3,1.7,5.68,4.59,7.27a3.58,3.58,0,0,1,1.78,2.12A19.42,19.42,0,0,0,134,105.24a3.92,3.92,0,0,1,2.13,3c.23,1.29-.12,3.33,2.17,3.47A2.78,2.78,0,0,1,137,110Zm48.9-37.3c1.31-.29,2,.9,2.56,1.91a10.27,10.27,0,0,1-4,14.53l-.51.27c-2.27,1.29-5.36,1.84-5,5.75-1.1-3.88-1.63-7.65-3.5-11-.53-1,.41-1.55,1-2.14a21.88,21.88,0,0,0,5.13-7.18C182.4,72.75,184.33,73,185.89,72.67ZM146.3,31.88c10.3-2.71,21-2.2,29,6.7,5.32,6,8.56,12.94,7.51,20.21-.06,4,.22,7-.63,9.93-.23.81,0,2-.92,2.25-1.13.3-1.11-1-1.57-1.69-2-2.7-3.63-5.64-6.17-7.92-3.56-3.2-5.42-3.52-9.48-1s-8.43,3.69-13.08,1.62a20.64,20.64,0,0,1-3.87-2.44c-4.1-3.11-7.66-3-11.19.68s-5.24,8.38-6.26,13.32c-.14.69.24,1.75-.78,1.91-.79.12-1.36-.63-1.82-1.24-1.08-1.44-1.25-3.2-1.64-4.87C121.19,51.31,131.72,35.73,146.3,31.88Zm-13,57.27c-.93,3.53-.71,7.29-.67,11.19-1.62-.68-1.44-1.86-1.84-2.75-.18-.42.46-2.86-1.45-1-.27.27-.63-.26-.75-.62-.44-1.33,1.2-.6,1.36-1.57a29.82,29.82,0,0,1-3.37-1.56c-5.31-3.31-8.46-11-7.17-17.15.31-1.45,1.11-2.59,2.53-1.73,2.94,1.78,6,3.24,8.5,5.9S134.29,85.26,133.26,89.15ZM131,72.89c1.18-4.43,2.69-8.79,6.3-12,2.54-2.28,4.9-2.73,7.39-.5,6.79,6.1,13.73,5.85,21,1,1.93-1.28,3.62-1.13,5.45.43,3.8,3.25,6.26,7.45,8.81,11.61a1.84,1.84,0,0,1-.46,2.54c-1.2,1.23-2.39,2.48-3.54,3.77C171.28,85,165.1,85.32,159,85.19c-7.77.12-15.08-1.44-22.34-3.11C132.13,81,129.79,77.33,131,72.89Zm3.65,26.27a15.16,15.16,0,0,0,0-3.4c-.23-3.29.83-6.76.57-10.33-.12-1.82,1.32-1.21,2.27-1a88.71,88.71,0,0,0,26.17,2.59c3.09-.13,6.12-.4,8.81-2.08,1.06-.66,1.72-.57,2.14.71a39.64,39.64,0,0,1,2.07,16.11c-.28,3-3.81,4.32-6.43,5.45-5.47,2.37-11.34,2.64-17.19,2.11a33.25,33.25,0,0,1-15.62-5.09C135.44,102.94,134,101.86,134.64,99.16Z"/><path class="cls-2" d="M203.32,155.72l.72.38a1.43,1.43,0,0,0-.22-.72A2.93,2.93,0,0,0,203.32,155.72Z"/><path class="cls-2" d="M669.84,345.28c-.23-1.27-1.3-.94-2.09-.83a51.2,51.2,0,0,0-5.07.89,35.18,35.18,0,0,1-22.44-1.5c-2.48-1-4.6-2.54-5.28-5.26-.85-3.42-1.42-6.92-2.13-10.38-.15-.74-.64-1.62.1-2.13s1.48,0,2.18.34a26.93,26.93,0,0,0,14.28,2.41c5.77-.72,11.49-1.82,17.23-2.74,1.2-.19,2.63-.5,2.45-1.86-.24-1.82-2-1.16-3.08-1-3.87.54-7.74,1.16-11.55,2a38.94,38.94,0,0,1-20.64-1.35c-2.46-.79-3.2-2.12-2.51-4.77,2.42-9.36,7.51-16.25,17-19.29,1.55-.5,3.1-1,4.68-1.41a21.21,21.21,0,0,0,9.55-5c1.27-1.22,1.8-1.43,2.4.5.68,2.21,1.63,4.36,4.46,5.69-.56-3.23-2.91-5-3.53-7.64-.68-2.9-1.46-3.07-3.46-.87-3,3.33-6.81,5-11,6.33-7.89,2.44-15.33,5.63-19.13,13.89-1.22,2.64-1.81,5.45-2.68,7.71-8.06-2.3-7.05-8.66-6.85-14.64a18.63,18.63,0,0,1,.56-3.38c2.67-11.93,8.1-21.75,20.59-25.76,5.23-1.68,10.47-3.77,16.22-2.15a55.17,55.17,0,0,1,6.39,2.54c.83.34,2.06,1.11,2.6.2.68-1.16-.71-1.86-1.51-2.39a22.18,22.18,0,0,0-6.32-2.67c-6.34-1.79-12.36-.06-18.24,2-3.59,1.24-7.32,2.59-10.08,5.36-10.28,10.33-15.34,22.4-11.94,37.16a2.24,2.24,0,0,1,.09,1.11c-2.11,6.24,1.55,10.44,5.26,14.52a7.58,7.58,0,0,1,1.95,3.38c1.54,6.22,6,10,11.43,12.37,7.48,3.28,15.39,3.3,23.32,1.61,1.77-.38,3.57-.63,5.33-1.08C669.2,346.9,670,346.34,669.84,345.28ZM630,334.93c.11-3.54-2.8-5.21-4.46-7.65-1.56-2.28-3.19-4.56-3.27-7.48,0-.82-.28-1.85.79-2.22.89-.32,1.27.57,1.87,1,5,3.47,6.1,8.64,6.36,14.21.07,1.31.33,2.61.54,4.14A2.12,2.12,0,0,1,630,334.93Z"/><path class="cls-2" d="M233.53,82.11a39.5,39.5,0,0,0,3.39-8.28c4.37-12.8,11.69-22.67,25.91-25.27,6.39-1.17,12.69-.72,18.2,3.19,6.87,4.87,10.28,11.91,12,19.93,2.55,11.84,1.64,23.71.21,35.55-1.12,9.32-3,18.53-3.83,27.89a5.63,5.63,0,0,0,.24,2.32l.69.95c0,.14,0,.27,0,.4s0,0,0,0c1.9.3,2.78-.43,2.93-2.44A105.55,105.55,0,0,1,294.6,125a171.44,171.44,0,0,0,3.24-40.55c-.44-9.12-1.47-18-6.49-26.13-6.67-10.87-16.53-14.91-28.24-13.12s-20.1,8.56-25.8,18.69a43.35,43.35,0,0,0-5.63,17.95h1.64C233.4,81.92,233.46,82,233.53,82.11Z"/><path class="cls-2" d="M290.36,138.82s0,0,0,0a.08.08,0,0,1,0,0Z"/><path class="cls-2" d="M236.24,391.09c3.52,2.48,6.75,5.35,10.53,7.47,6.61,3.7,13.25,7.32,19.79,11.14,10,5.85,18,13.69,23.28,24.07,1.64,3.17,3.23,6.37,4.85,9.56.07-3-1.48-5.28-2.48-7.79a48.86,48.86,0,0,0-10.86-16.8c-6.44-6.38-14.12-11.1-22.09-15.43-5.71-3.1-11.53-6.08-16.78-10s-9.54-8.32-10.91-15c-.16-.73-.58-1.44-.1-2.21,3.6-5.77,7.25-11.46,12.73-15.76a81.25,81.25,0,0,1,11.19-7c1.22-.66,1.71-1.17-.14-1.51-11.09,3.52-18.08,11.88-24.49,21.36-.78-3.54.11-6.82-1.48-9.77a34.61,34.61,0,0,0-.35,10.45A32.64,32.64,0,0,0,236,390.78c.09.09.18.16.27.26Z"/><path class="cls-2" d="M34.64,308.45c-1.36.44-1.92-.58-2.47-1.45-1.55-2.42-3.05-4.86-4.54-7.32a205.54,205.54,0,0,1-11-20.49c-.58-1.24-1.24-2.61.26-3.59C20.16,273.46,21.75,270,24,267c3.9-5.12,4.45-11.13,4.77-17.22a12.28,12.28,0,0,0-1.08,3.67c-1.23,8.71-5.75,15.42-12.39,21-3.72,3.11-8.38,4.65-12.13,7.65-1,.83-2.44,1.46-2.29,3.6,3.52-3,7.53-4.42,11.06-6.68,2.26-1.45,3.24-.94,4.38,1.42a242.29,242.29,0,0,0,15.19,27.34c.54.83.81,2.4,2.49,1.6a1,1,0,0,1,.34-.51Z"/><path class="cls-2" d="M233.35,84.44v0c1-.61.85-1.44.17-2.35l-.08.13a1.42,1.42,0,0,1-1.77-.41,4.19,4.19,0,0,0-.56,2.87C231.79,84,232.49,83.48,233.35,84.44Z"/><path class="cls-2" d="M18.17,230.37l0,0h0Z"/><path class="cls-2" d="M20.5,228.88a1,1,0,0,1-.05-.16C20.46,228.77,20.49,228.82,20.5,228.88Z"/><path class="cls-2" d="M18.75,230.61a1.16,1.16,0,0,0,1.34-.28,1.49,1.49,0,0,0,.43-1.35,1.81,1.81,0,0,1,0,.56,1.29,1.29,0,0,1-1.73,1Z"/><path class="cls-2" d="M18.75,230.61c-.18-.06-.36-.14-.54-.22l-.43.71C18.43,231.13,18.72,231,18.75,230.61Z"/><path class="cls-2" d="M18.45,230.47l.3.08a1.79,1.79,0,0,0-.2-.71c-.12.18-.23.36-.34.55Z"/><path class="cls-2" d="M578.09,216c.33-.55.58-1.16.91-1.72A14.13,14.13,0,0,0,578.09,216Z"/><path class="cls-2" d="M577.68,216.86l0,0h0C577.47,217.17,578.07,216.9,577.68,216.86Z"/><polygon class="cls-2" points="512.2 333.46 512.2 333.46 512.2 333.46 512.15 333.48 512.2 333.46"/><path class="cls-2" d="M511.27,78.23a13.06,13.06,0,0,1,1,1.83A11.65,11.65,0,0,0,511.27,78.23Z"/><path class="cls-2" d="M510.79,77.64l.16.18Z"/><path class="cls-2" d="M114,290.75c-.35-.29-.58-.84-1.13-.41a1.11,1.11,0,0,0-.23,1.33,6,6,0,0,0,2.89,3.46c4.71,2.4,9.12,5.11,14.76,5.78A34.72,34.72,0,0,0,151.5,297c2.13-1.14,3.54-2.91,4.89-5.56a34.34,34.34,0,0,0-5.32,2.48C140.43,300.43,123.62,298.82,114,290.75Z"/><path class="cls-2" d="M181,353.3c1.5,3.7,4.89,5.53,7.77,7.84,7.67,6.12,16.47,9,26.16,7.37,12.15-2,19.22-9.84,22.36-21.45a4.92,4.92,0,0,1,2.21-2.8c4.41-3.28,6.4-11.3,4.09-16.19-1-2.18-2.72-3.23-4.86-2.05-2.81,1.54-3.46.26-4.4-2.15-1.1-2.82-1.34-6.15-3.69-8.31-4.16-3.84-11.19-4.07-15.84-.64a10.93,10.93,0,0,1-11.61,1.46,26.93,26.93,0,0,1-5.43-3.14c-3.45-2.55-6.13-2.13-9.11.87-3.34,3.35-4.68,7.61-6,11.92-.32,1,0,2.8-1.23,2.9s-2.17-1.42-3-2.43a6.12,6.12,0,0,1-.77-1.85c-4.16-11.68.11-21.36,7.35-30.25a16.67,16.67,0,0,1,5.58-4.91c8.51-4,17.1-6.65,26.6-3.19,9.78,3.55,17.2,9.22,19.6,19.89a38,38,0,0,1-.18,17.08c-.14.63-.58,1.48.11,1.83.9.46,1.35-.47,1.69-1.12a11.5,11.5,0,0,0,.81-2.14c1-3.67.82-7.47.47-11.15-.5-5.38-2-10.64-5.41-14.95-8.14-10.36-24-15.59-37.35-10.62-12.87,4.78-19.49,14.19-22,27a24,24,0,0,0,2.17,15c-4.23-1.47-6.33.21-6.14,4.16.32,6.52,3.5,11.6,8,16,.53.51,1.78.69,1.21,1.93C179.35,350.86,180.47,352,181,353.3Zm46.41,6c-6.75,5.94-14.45,8.47-23.32,6a45.31,45.31,0,0,1-10.19-3.78,6.83,6.83,0,0,1-3.85-6.09c-.39-4.78-.19-9.56-.55-14.32-.15-2,.12-2.7,2.23-1.72,10.32,4.77,20.81,3.65,31.36.87,1.44-.38,2.5-2.58,4-1.55,1.24.87.26,2.91.64,4.37.67,2.55.44,5.14.63,7.72a35.31,35.31,0,0,0,.08,5.73A2.64,2.64,0,0,1,227.4,359.31Zm8.12-28.2a7,7,0,0,0,2.65-2,2.26,2.26,0,0,1,2.06-1.32c1.22.08,1.5,1,1.85,1.92,1.68,4.26-.17,11-3.8,13.84-1.79,1.39-3.61,2.75-5.39,4.11.61,1,1.29-.14,2,.46a19.46,19.46,0,0,1-3.58,5.52c-.57-5.52-.24-10.8-1.84-15.85-.08-.26-.14-.69,0-.83C231.41,334.94,233.16,332.52,235.52,331.11Zm-51.27-3.62c1.69-4.22,2.17-8.92,5.9-12.2,2.71-2.38,3.69-2.54,6.24,0a14.54,14.54,0,0,0,11.71,4.32,13.49,13.49,0,0,0,8-3.46c2.73-2.32,5.31-2.35,8.71-1,3.65,1.43,6.09,3.25,6.65,7.21a3.3,3.3,0,0,0,.31.8c2.24,5.25,1.74,6.31-2.4,10.31-4.32,4.19-9.82,4.79-15.21,5.71-2.5.42-5.07,1.11-7.7.7-7-.37-13.73-1.87-19.75-5.74C184.32,332.53,182.94,330.77,184.25,327.49Zm-5.2,17.43c-3.62-3.78-6.17-8.3-6.4-13.77-.05-1.26-.1-2.6,1.24-3.26s1.82.66,2.72,1.06c3.84,1.68,5.84,5.43,9.06,7.77a2.46,2.46,0,0,1,1.06,2.18c.13,5-.48,10,.59,14.85-.24.69.42,1.8-.74,1.9a1.71,1.71,0,0,1-1.6-1.44C184.44,350.15,181.7,347.67,179.05,344.92Z"/><path class="cls-2" d="M290.39,99.08a5.68,5.68,0,0,1,1.21-3.45,13.9,13.9,0,0,0,2.2-12c-.77-3.1-2.53-4-5.5-2.63a10.67,10.67,0,0,0-5.87-7.73,44.4,44.4,0,0,0-7.83-3.55c-4.52-1.34-6.75-4.36-7.68-8.72-.14-.69.2-1.74-.84-1.91-.88-.14-1.33.73-1.7,1.36-2.91,4.92-7.29,7.43-12.86,8.16a8.6,8.6,0,0,0-4,2.14c-4.22,3.19-5.77,7.66-6.14,13.1-1.29-1.52-2.21-2.72-3.26-3.78-1.45-1.46-3-1.12-3.64.83a9,9,0,0,0-.36,3.11c.18,4.76,2.12,9.1,3.5,13.54,2,6.31,6.75,10.63,11.78,14.51a16,16,0,0,0,11.26,3.62c3.91-.32,7.81-.86,11.73-1.09,9.12-.54,13.41-7.16,17.67-13.84A3.26,3.26,0,0,0,290.39,99.08Zm-51-5.14c-2.87-3.44-4-7.42-3.59-12.75,2.27,3.08,3.95,5.57,5.94,7.82,1.14,1.3.55,3.63,0,5.26S240,94.67,239.42,93.94Zm.87,4.54c-.26-.54-.72-1.29.37-1.53.79-.17,1.25.21,1.36,1,.13,1,.26,2,.45,3.44A5.79,5.79,0,0,1,240.29,98.48Zm42.48,4.82c-.63,5.79-3.29,8.26-9.63,9-2.94.36-5.94.4-8.85.91C252,115.42,244.81,107,243.88,96.94c-.68-7.4-.75-7.26,6.49-6.13a83.61,83.61,0,0,0,10.86.77c6.65.18,13.33,1.17,19.92-.6,1.38-.38,1.7.24,1.69,1.41,0,1.82,0,3.64,0,5.45h0A52.31,52.31,0,0,1,282.77,103.3Zm.34-15.89a22.28,22.28,0,0,1-7.8,1.74c-10,.32-19.9.09-29.72-2-2.47-.52-3-1.73-2.74-4,.55-4.57,1.94-8.59,5.9-11.35a6.74,6.74,0,0,1,2.79-1.42c5.54-.91,10.69-2.47,13.65-8.25.93,8,7.62,9.18,13,11.87,3.15,1.6,6.49,3,7.86,6.68C287.31,84.15,286.55,86,283.11,87.41ZM286,98.48c-1.71-.36-.26-3.42-.89-5.13-.89-2.41-.06-3.95,2-5.24a8.84,8.84,0,0,0,2.35-2.48c.65-.92.41-2.26,1.41-3.33,2.09,3,1.85,8.44-.77,11.91C288.87,95.82,288.09,98.93,286,98.48Z"/></g></g></g></svg>