<svg xmlns="http://www.w3.org/2000/svg" viewBox="0 0 452.01 104.84"><defs><style>.cls-1{fill:#7313aa;}</style></defs><g id="Layer_2" data-name="Layer 2"><g id="txto"><path class="cls-1" d="M80.65,0V104.84h-21L18.66,34c.05,1.79.11,3,.16,3.53a42.26,42.26,0,0,1,.31,4.53v62.75H0V0H26.47L62.14,61.83q-.47-4.61-.46-7V0Z"/><path class="cls-1" d="M153.21,0,186,104.84h-26.4l-6.46-21.58H119.28l-6.58,21.58H91.17L124.77,0Zm-28,63.9h22.21l-11-36.79Z"/><path class="cls-1" d="M243.77,104.84,217.9,19.36v85.48H197.32V0h38.24L254,62.75,273.32,0h38.36V104.84H287V19.36l-26.37,85.48Z"/><path class="cls-1" d="M357.54,65.9v38.94h-25V0h41.32q13.83,0,21.16,3a31.16,31.16,0,0,1,13.1,10.56q5.76,7.61,5.76,18.66a38.94,38.94,0,0,1-3.07,15.13,27.19,27.19,0,0,1-8.68,11.6,31.67,31.67,0,0,1-10.87,5.61Q386,65.9,374.82,65.9Zm-.85-19.05h16q9.13,0,12.82-4.22A14.29,14.29,0,0,0,389.18,33a13.08,13.08,0,0,0-4.11-10.14Q381,19,372.59,19.05h-15.9Z"/><path class="cls-1" d="M452,0V104.84h-24.5V0Z"/></g></g></svg>