<svg xmlns="http://www.w3.org/2000/svg" viewBox="0 0 341.93 62.16"><defs><style>.cls-1{fill:#7313aa;}</style></defs><g id="Layer_2" data-name="Layer 2"><g id="Botones"><path class="cls-1" d="M14.91,25.76,10.22,16H10v32.9H0V0H11.62L25,23.1l4.69,9.8h.21V0h10V48.86H28.28Z"/><path class="cls-1" d="M65,49.7a18.78,18.78,0,0,1-7.25-1.33,14.52,14.52,0,0,1-5.39-3.85A17.49,17.49,0,0,1,49,38.43a25,25,0,0,1-1.19-8,25,25,0,0,1,1.19-8,17.17,17.17,0,0,1,3.39-6.06,14.77,14.77,0,0,1,5.39-3.81A18.6,18.6,0,0,1,65,11.27a18.58,18.58,0,0,1,7.24,1.33,14.77,14.77,0,0,1,5.39,3.81,17.34,17.34,0,0,1,3.4,6.06,25.24,25.24,0,0,1,1.19,8,25.24,25.24,0,0,1-1.19,8,17.67,17.67,0,0,1-3.4,6.09,14.52,14.52,0,0,1-5.39,3.85A18.76,18.76,0,0,1,65,49.7Zm0-8.19a6,6,0,0,0,4.76-1.89,7.86,7.86,0,0,0,1.68-5.39V26.74a7.86,7.86,0,0,0-1.68-5.39A6,6,0,0,0,65,19.46a6,6,0,0,0-4.76,1.89,7.86,7.86,0,0,0-1.68,5.39v7.49a7.86,7.86,0,0,0,1.68,5.39A6,6,0,0,0,65,41.51Z"/><path class="cls-1" d="M102.05,49.7a20.8,20.8,0,0,1-9-1.72,20.56,20.56,0,0,1-6.51-4.86L92.68,37A15.61,15.61,0,0,0,97,40.39a11.3,11.3,0,0,0,5.38,1.26c2.06,0,3.48-.32,4.27-.95a3.07,3.07,0,0,0,1.19-2.55c0-1.73-1.23-2.75-3.71-3.08l-4-.49Q87.78,33,87.78,23.24a11.48,11.48,0,0,1,1-4.87,10.86,10.86,0,0,1,2.87-3.78,13.51,13.51,0,0,1,4.48-2.45,18.73,18.73,0,0,1,5.91-.87,30.51,30.51,0,0,1,5.08.38,17.79,17.79,0,0,1,3.92,1.12,15.31,15.31,0,0,1,3.15,1.82A32.77,32.77,0,0,1,117,17l-6,6.09a13.5,13.5,0,0,0-4-2.77,10.81,10.81,0,0,0-4.52-1,6.47,6.47,0,0,0-3.78.84,2.68,2.68,0,0,0-1.12,2.24,3,3,0,0,0,.81,2.27,5.56,5.56,0,0,0,3,1.16l4.13.56Q117.81,28,117.8,37.45a10.79,10.79,0,0,1-1.12,4.9,11.35,11.35,0,0,1-3.18,3.88,15.16,15.16,0,0,1-5,2.56A21.87,21.87,0,0,1,102.05,49.7Z"/><path class="cls-1" d="M139.78,49.7a18.76,18.76,0,0,1-7.24-1.33,14.44,14.44,0,0,1-5.39-3.85,17.67,17.67,0,0,1-3.4-6.09,25.24,25.24,0,0,1-1.19-8,25.24,25.24,0,0,1,1.19-8,17.34,17.34,0,0,1,3.4-6.06,14.69,14.69,0,0,1,5.39-3.81,20.4,20.4,0,0,1,14.49,0,14.77,14.77,0,0,1,5.39,3.81,17.17,17.17,0,0,1,3.39,6.06,25.24,25.24,0,0,1,1.19,8,25.24,25.24,0,0,1-1.19,8,17.49,17.49,0,0,1-3.39,6.09A14.52,14.52,0,0,1,147,48.37,18.82,18.82,0,0,1,139.78,49.7Zm0-8.19a6,6,0,0,0,4.76-1.89,7.86,7.86,0,0,0,1.68-5.39V26.74a7.86,7.86,0,0,0-1.68-5.39,6.94,6.94,0,0,0-9.52,0,7.86,7.86,0,0,0-1.68,5.39v7.49A7.86,7.86,0,0,0,135,39.62,6,6,0,0,0,139.78,41.51Z"/><path class="cls-1" d="M176.81,48.86q-5.38,0-8.15-2.73t-2.77-8v-18h-5.18v-8h2.59a3.4,3.4,0,0,0,2.87-1,4.73,4.73,0,0,0,.77-2.9v-6h9.31v9.94h7.28v8.05h-7.28V40.81H183v8Z"/><path class="cls-1" d="M190.74,48.86V12.11H201.1v8h.35a11.45,11.45,0,0,1,1-3,9.25,9.25,0,0,1,1.85-2.55,8.82,8.82,0,0,1,2.77-1.79,9.9,9.9,0,0,1,3.78-.66h1.82v9.66h-2.59q-4.56,0-6.76,1.19t-2.2,4.41V48.86Z"/><path class="cls-1" d="M233.58,49.7a18.82,18.82,0,0,1-7.25-1.33,14.52,14.52,0,0,1-5.39-3.85,17.49,17.49,0,0,1-3.39-6.09,25,25,0,0,1-1.19-8,25,25,0,0,1,1.19-8,17.17,17.17,0,0,1,3.39-6.06,14.77,14.77,0,0,1,5.39-3.81,20.4,20.4,0,0,1,14.49,0,14.69,14.69,0,0,1,5.39,3.81,17.34,17.34,0,0,1,3.4,6.06,25.24,25.24,0,0,1,1.19,8,25.24,25.24,0,0,1-1.19,8,17.67,17.67,0,0,1-3.4,6.09,14.44,14.44,0,0,1-5.39,3.85A18.76,18.76,0,0,1,233.58,49.7Zm0-8.19a6,6,0,0,0,4.76-1.89A7.86,7.86,0,0,0,240,34.23V26.74a7.86,7.86,0,0,0-1.68-5.39,6.94,6.94,0,0,0-9.52,0,7.86,7.86,0,0,0-1.68,5.39v7.49a7.86,7.86,0,0,0,1.68,5.39A6,6,0,0,0,233.58,41.51Z"/><path class="cls-1" d="M270.61,49.7a20.81,20.81,0,0,1-9-1.72,20.56,20.56,0,0,1-6.51-4.86L261.23,37a15.61,15.61,0,0,0,4.34,3.43A11.31,11.31,0,0,0,271,41.65c2.05,0,3.47-.32,4.27-.95a3.09,3.09,0,0,0,1.19-2.55c0-1.73-1.24-2.75-3.71-3.08l-4-.49Q256.33,33,256.33,23.24a11.48,11.48,0,0,1,1-4.87,10.86,10.86,0,0,1,2.87-3.78,13.51,13.51,0,0,1,4.48-2.45,18.75,18.75,0,0,1,5.92-.87,30.47,30.47,0,0,1,5.07.38,17.79,17.79,0,0,1,3.92,1.12,15.31,15.31,0,0,1,3.15,1.82A32.77,32.77,0,0,1,285.58,17l-5.94,6.09a13.68,13.68,0,0,0-4-2.77,10.76,10.76,0,0,0-4.51-1,6.43,6.43,0,0,0-3.78.84,2.66,2.66,0,0,0-1.12,2.24,3,3,0,0,0,.8,2.27,5.57,5.57,0,0,0,3.05,1.16l4.13.56q12.11,1.61,12.1,11.06a10.79,10.79,0,0,1-1.12,4.9,11.35,11.35,0,0,1-3.18,3.88,15.16,15.16,0,0,1-5,2.56A21.8,21.8,0,0,1,270.61,49.7Z"/><path class="cls-1" d="M307.21,62.16V53.55h34.72v8.61Z"/></g></g></svg>