<?xml version="1.0" encoding="utf-8"?>
<!-- Generator: Adobe Illustrator 24.1.1, SVG Export Plug-In . SVG Version: 6.00 Build 0)  -->
<svg version="1.1" id="Layer_1" xmlns="http://www.w3.org/2000/svg" xmlns:xlink="http://www.w3.org/1999/xlink" x="0px" y="0px"
	 viewBox="0 0 1800 120" style="enable-background:new 0 0 1800 120;" xml:space="preserve">
<style type="text/css">
	.st0{fill:#939393;}
	.st1{fill-rule:evenodd;clip-rule:evenodd;fill:#939393;}
	.st2{font-family:'MyriadPro-Regular';}
	.st3{font-size:12px;}
</style>
<g>
	<g id="Capa_2">
		<g id="Contacto">
			<path class="st0" d="M771,25.2c-0.3,0-0.5,9.1-0.5,20.4S770.8,66,771,66s0.5-9.2,0.5-20.4S771.3,25.2,771,25.2"/>
			<path class="st0" d="M791.7,40.5c0.1-1-0.3-2.1-1.2-2.7c-1.3-0.6-2.7-0.8-4.2-0.7h-1.8v6.6h1.8c1.1,0,2.1-0.1,3.2-0.3
				c0.6-0.1,1.2-0.4,1.6-1C791.5,41.9,791.7,41.2,791.7,40.5 M800.1,40.5c0,1-0.2,2-0.5,3c-0.4,1-1,1.9-1.7,2.7
				c-0.9,0.9-2,1.6-3.2,2c-1.5,0.6-3.1,0.8-4.7,0.8h-5.4v10.3h-8.3V31.8H790c1.6,0,3.2,0.2,4.7,0.8c1.2,0.4,2.3,1.2,3.2,2.1
				c0.7,0.8,1.3,1.7,1.7,2.8C799.9,38.4,800.1,39.4,800.1,40.5"/>
			<path class="st0" d="M831.3,47c0.1,2.1-0.4,4.1-1.3,6c-0.8,1.6-2,2.9-3.5,3.9c-1.4,1-3,1.7-4.7,2.1c-1.6,0.4-3.3,0.6-5,0.6
				c-2.3,0-4.6-0.4-6.8-1.2s-4.1-2.2-5.5-4c-1.6-2.2-2.3-4.8-2.2-7.4V31.8h8.3v13c0,1.5,0.2,3.1,0.8,4.5c0.4,1.1,1.2,2,2.2,2.6
				c2,1.1,4.5,1.1,6.5,0c1-0.6,1.8-1.5,2.2-2.6c0.6-1.4,0.9-2.9,0.8-4.4V31.8h8.3L831.3,47z"/>
			<path class="st0" d="M859.8,57.3c-1.1,0.6-2.3,1.1-3.5,1.4c-1.2,0.4-2.4,0.6-3.6,0.8c-1.2,0.2-2.5,0.2-3.8,0.2
				c-2.2,0-4.4-0.3-6.4-1c-1.8-0.6-3.5-1.6-4.9-2.9c-1.4-1.3-2.4-2.8-3.1-4.5c-0.7-1.8-1-3.7-1-5.7c0-2.1,0.4-4.3,1.2-6.2
				c0.8-1.7,1.9-3.2,3.4-4.4s3.2-2.1,5-2.6c1.9-0.6,4-0.9,6-0.8c3.6,0.1,7.2,0.8,10.6,2.1V41c-1.3-0.8-2.6-1.5-4-2.1
				c-1.5-0.6-3.1-0.9-4.7-0.8c-1.6,0-3.1,0.3-4.5,1c-1.3,0.6-2.5,1.5-3.3,2.7c-1.7,2.4-1.7,5.5-0.2,8c0.8,1.1,1.8,2.1,3.1,2.7
				c1.4,0.7,2.9,1,4.5,1c1.3,0,2.6-0.2,3.8-0.5c1-0.3,2-0.6,3-1.1c0.9-0.4,1.7-0.9,2.5-1.4L859.8,57.3L859.8,57.3z"/>
			<path class="st0" d="M877.6,40.5c0.1-1-0.3-2.1-1.2-2.7c-1.3-0.6-2.7-0.8-4.2-0.7h-1.8v6.6h1.8c1.1,0,2.1-0.1,3.2-0.3
				c0.6-0.1,1.2-0.4,1.6-1C877.5,41.9,877.6,41.2,877.6,40.5 M886,40.5c0,1-0.2,2-0.5,3c-0.4,1-1,1.9-1.7,2.7c-0.9,0.9-2,1.6-3.2,2
				c-1.5,0.6-3.1,0.8-4.7,0.8h-5.4v10.3h-8.3V31.8H876c1.6,0,3.2,0.2,4.7,0.8c1.2,0.4,2.3,1.1,3.2,2.1c0.7,0.8,1.3,1.7,1.7,2.8
				C885.9,38.4,886.1,39.4,886,40.5"/>
			<path class="st0" d="M759,37c0.3,0.8,1.1,1.2,1.9,0.9c0.1,0,0.2-0.1,0.3-0.2l2.8-1.3v-0.8l-3,1.4c-0.6,0.3-1,0.1-1.2-0.3
				c-0.2-0.5-0.1-0.8,0.5-1.1l3-1.6l-0.6-0.5L760,35C758.9,35.5,758.6,36.1,759,37 M723.6,36.1c0.5-0.8,0.3-1.5-0.8-2.1l-2.7-1.5
				l-0.6,0.5l2.9,1.7c0.6,0.3,0.7,0.7,0.4,1.1c-0.2,0.4-0.6,0.5-1.2,0.2l-3-1.5l-0.1,0.8l2.7,1.4C722.4,37.1,723,37,723.6,36.1
				 M761.1,44.7l0.8-0.1l-0.1-1.5L763,43l0.1,1.1l0.8-0.1l-0.1-1.1l1.3-0.1l0.1,1.6l0.8-0.1l-0.2-2.3l-4.9,0.4L761.1,44.7z
				 M746.1,25.5l-1.5-0.3l0.3-1.3l1.1,0.2l0.2-0.8l-1.1-0.2l0.3-1.3l1.5,0.3l0.2-0.7l-2.3-0.5l-1,4.8l2.2,0.5L746.1,25.5z
				 M739.3,25.6l-0.1-0.8l-1.5,0.3l-0.2-1.3l1.1-0.2l-0.1-0.8l-1.1,0.2l-0.2-1.3l1.5-0.3l-0.1-0.8l-2.3,0.4l0.7,5L739.3,25.6z
				 M721.1,45.2h-0.8l0.1,1.5l-1.3,0.1l-0.1-1.1h-0.8l0.1,1.1l-1.3,0.1l-0.1-1.6h-0.8l0.1,2.3l4.9-0.3L721.1,45.2z M753.2,67l-2-3.6
				l0.6-0.3l2,3.6L753.2,67z M751.6,67.8l-1.8-3.8l0.6-0.3l1.8,3.8L751.6,67.8z M748.8,68.9l-2.9-3.5l0.6-0.2l1.7,1.9l0.2-2.5
				l0.7-0.2L748.8,68.9z M745.2,69.8l-1.2-1.4l-0.8,1.6l-0.7,0.1l1-2.2L742,66l0.7-0.1l1.2,1.4l0.8-1.7l0.7-0.1l-1,2.2l1.5,1.9
				L745.2,69.8z M741.1,70.1l-0.5-2.6l-1.1,1.2l-0.9-1.4l-0.9,2.5l-0.7-0.1l1.4-4.1l1.2,1.9l1.5-1.7l0.7,4.2L741.1,70.1z
				 M735.1,69.2c-0.7-0.2-1.1-1.2-0.8-2.3c0.3-1.1,1.1-1.9,1.8-1.7c0.5,0.2,0.9,0.7,0.8,1.3l-0.7-0.2c-0.1-0.2-0.2-0.4-0.3-0.4
				c-0.4-0.1-0.8,0.4-1,1.2s-0.1,1.4,0.3,1.5c0.2,0,0.4-0.1,0.5-0.2l0.7,0.2C736.2,69,735.6,69.3,735.1,69.2 M733.1,68.8l-0.6-0.3
				l0.4-2.6l-1.5,0.8l-0.4-1.6l-1.8,2l-0.6-0.3l2.7-3.3l0.5,2.2l2-1L733.1,68.8z M741.1,65.4c-9.4,0-17.4-6.6-19.3-15.8h-5.5
				c2.3,13.7,15.3,22.9,29,20.6c10.5-1.8,18.8-10,20.6-20.6h-5.5C758.6,58.8,750.5,65.4,741.1,65.4 M765.3,46.2l-4.2-0.2v0.8
				l4.2,0.2v1.1h0.8l0.1-3h-0.8L765.3,46.2z M762.4,37.9c-1.3,0.1-2.2,1.2-2.1,2.5v0.1c0.1,0.5,0.3,0.9,0.7,1.2l0.6-0.4
				c-0.3-0.2-0.5-0.6-0.5-0.9c-0.2-0.8,0.6-1.5,1.5-1.7s1.8,0.2,2,1c0.1,0.4,0,0.7-0.2,1.1l0.7,0.2c0.3-0.4,0.4-0.9,0.3-1.4
				C765.2,38.3,764,37.6,762.4,37.9 M758.1,35.2l0.6-0.5l-0.9-1.3l3.4-2.4l-0.4-0.6l-4,2.8L758.1,35.2z M755.7,30.2
				c-0.2,0.3-0.6,0.3-0.9,0.1l0,0l0,0c-0.2-0.2-0.3-0.5-0.3-0.7l-0.7,0.3c0.1,0.4,0.3,0.7,0.6,1c0.6,0.5,1.4,0.5,2-0.1
				c0,0,0,0,0-0.1v-0.1c1.1-1.2-0.4-2.1,0.2-2.8c0.2-0.3,0.6-0.3,0.9-0.1l0,0l0,0c0.2,0.2,0.3,0.5,0.3,0.8l0.7-0.3
				c-0.1-0.4-0.3-0.8-0.6-1.1c-0.5-0.5-1.4-0.5-1.9,0l0,0l-0.1,0.1C754.9,28.6,756.4,29.4,755.7,30.2 M753.2,29.7l2.9-4l-0.6-0.4
				l-2.9,4L753.2,29.7z M752.4,24.2l0.4,0.2c0.3,0.2,0.5,0.6,0.3,0.9l0,0c0,0,0,0,0,0.1c-0.1,0.3-0.5,0.5-0.9,0.4h-0.1l-0.4-0.2
				L752.4,24.2z M750.3,27.8l1-1.7l0.2,0.1c0.1,0.1,0.2,0.2,0.2,0.3l0.1,2.2l0.8-0.1l-0.1-2.2c0.6,0.1,1.1-0.2,1.3-0.8
				c0.4-0.6,0.3-1.4-0.3-1.8l0,0l-0.2-0.1l-1.2-0.6l-2.4,4.3L750.3,27.8z M748.4,24.7c0.5,0.2,0.7,0.5,0.5,1
				c-0.1,0.3-0.4,0.5-0.8,0.5l0,0H748l-0.5-0.2l0.5-1.4L748.4,24.7z M748.8,22.6l0.5,0.2c0.3,0.1,0.6,0.4,0.5,0.8v0.1
				c-0.1,0.4-0.5,0.6-0.8,0.5l0,0h-0.1l-0.4-0.2L748.8,22.6z M748,26.8c0.6,0.3,1.4,0,1.6-0.7c0-0.1,0-0.1,0-0.2
				c0.2-0.5,0.1-1.1-0.3-1.4l0,0c0.4,0.1,0.8-0.2,1.1-0.9c0.3-0.6,0-1.3-0.6-1.6l0,0l-0.1-0.1l-1.3-0.5l-1.7,4.6L748,26.8z
				 M740.6,21.9L740.6,21.9l1.8,3.8l0.8-0.2l0.1-4.8h-0.8v3.7l0,0l-1.9-3.8l-0.7,0.3l-0.1,4.8h0.8L740.6,21.9z M733.7,22.6l1.2,4
				l0.7-0.2l-1.2-4l1.1-0.3l-0.2-0.8l-2.9,0.9l0.2,0.8L733.7,22.6z M729.8,29.1l-2-3.1l0,0l3.6,2.2l0.5-0.6l-2.5-4l-0.6,0.4l2,3.1
				l0,0l-3.6-2.2l-0.5,0.6l2.4,4.1L729.8,29.1z M728.6,30l-3.1-3.8l-0.6,0.5l3.1,3.9L728.6,30z M724.2,34.2L725,34l-0.8-2l2.1,0.4
				l0.1-0.8l-2.5-0.4l-0.9-2.3l-0.8,0.2L723,31l-2-0.4l-0.1,0.8l2.4,0.4L724.2,34.2z M722.7,37.7l-0.7-0.3l-0.5,1.5l-3.9-1.4
				l-0.2,0.7L722,40L722.7,37.7z M717.1,43.4l4.1,0.5l0.1-0.8l-4.1-0.5l0.1-1.1l-0.8-0.1l-0.3,3l0.8,0.2L717.1,43.4z M731.8,59.9
				c-0.6,0.2-1.1,0.4-1.7,0.7l-0.2,0.1c3.1,2.4,7,3.7,11,3.6c0.7,0,1.3-0.1,1.9-0.1c2.6-0.3,5.1-1,7.3-2.3c-0.3-0.1-0.6-0.4-0.8-0.7
				c-0.2-0.4-0.3-0.9-0.1-1.3c-0.2,0-0.3,0-0.5,0.1c-0.6,0.2-1.2,0.4-1.8,0.7c-1.4,0.8-3,1.2-4.7,1.3c-0.6,0-1.1-0.3-1.5-0.7
				c-0.2-0.2-0.2-0.5-0.3-0.8c0-0.2,0-0.4,0.1-0.5c-0.2,0-0.3,0-0.5,0.1c-0.6,0.2-1.2,0.4-1.8,0.7c-1.4,0.8-3,1.2-4.6,1.3
				c-0.6,0-1.1-0.3-1.4-0.7c-0.3-0.4-0.3-0.9-0.2-1.4C732.1,59.8,732,59.8,731.8,59.9 M755.3,49.1L755.3,49.1c0-0.2,0-0.3-0.1-0.4
				c-0.5-0.4-1.1-0.5-1.7-0.3c-0.2,0-0.5,0.1-0.7,0.2l-1.4-1.9l1.2,2c-0.3,0.1-0.6,0.2-0.8,0.3l-1.7-2.3l1.5,2.4l-0.3,0.2l-0.5,0.3
				l-2.1-2.8l1.9,2.8c-0.3,0.1-0.6,0.2-0.9,0.3l-2.4-3.2l2.1,3.3l-0.8,0.2l-2.7-3.6l2.2,3.6c-0.3,0-0.6,0.1-1,0.1
				c-0.2,0-0.4-0.1-0.6-0.2l0,0c0,0-0.1-0.1-0.1-0.2l0,0c0-0.1,0-0.2,0.1-0.3l0.3-0.2l0,0c0.1-0.1,0.2-0.3,0.2-0.4
				c0-0.1,0-0.2-0.1-0.3c-0.5-0.4-1.1-0.6-1.8-0.4c-0.7,0.1-1.4,0.3-2,0.6c-0.7-1.8-0.9-3.7-0.7-5.6c2.2,1.8,5.1,2.7,8,2.4
				c0.2,0,0.4-0.1,0.6-0.1l0,0c1.5-0.2,3-0.9,4.1-2c0.4-0.4,0.8-0.7,1.1-1.2l0.1-0.1c0.1-0.1,0.1-0.2,0.2-0.3l1,0.7l1,0.8
				C757.8,45.8,756.8,47.6,755.3,49.1 M742.7,49.2c-1-2.8-1.5-4-1.2-6.8l0.8,0.8c-0.2,2,0.1,3.9,0.8,5.8L742.7,49.2 M742.5,49.3
				c-0.1-0.1-0.2-0.3-0.3-0.4l-0.1-0.1l-0.2-0.3l-0.2-0.3c0,0,0,0,0-0.1c-0.6-1.1-1.1-2.3-1.3-3.5c0-0.2-0.1-0.4-0.1-0.6l0,0
				c0-0.2,0-0.4,0-0.6s0-0.4,0-0.5c0.2-0.1,0.3-0.1,0.5-0.2c0.1-0.1,0.2-0.1,0.4-0.2C741,45.3,741.4,46.5,742.5,49.3L742.5,49.3
				 M742,49.6c-0.9-1.3-1.7-2.6-2.4-4.1c0,0-0.2-0.3-0.2-0.4c0.2-0.4,0.5-0.8,0.8-1.1c0,0.1,0,0.2,0,0.3c0.2,1.8,0.9,3.6,2,5.1
				L742,49.6 M740.4,35.9h6.4c-0.5,1.3-0.8,2.7-0.9,4.1v0.3c0.2,1.5,0.7,2.9,1.5,4.2l0,0c0.4,0.7,0.7,1.2,0.7,1.2l0,0
				c-2.1-0.2-4.1-1.1-5.7-2.4l0,0l-0.6-0.6l-0.4-0.4l0,0l0,0c-0.2,0.1-0.4,0.1-0.5,0.2l-0.4,0.2l0,0l0,0l0,0c0,0.3,0,0.7,0,1l0,0
				l-0.1,0.2c-0.6-1.3-1-2.7-1-4.2c0-1.4,0.4-2.8,1.3-3.9 M744.6,34.2h7.3c-1.2,1.4-2,3.1-2.2,5c0,0.1,0,0.2,0,0.3
				c-0.1,1.8,0.5,3.7,1.7,5.1c-1.2-0.7-2.6-0.8-3.9-0.3c-0.8-1.2-1.3-2.6-1.5-4.1c0-0.1,0-0.2,0-0.3c0-0.7,0.1-1.4,0.3-2.2
				c0.2-0.6,0.3-1.2,0.6-2l-0.1-0.1h-3.6c0.3-0.6,0.7-1.1,1.2-1.6 M746.7,32.3c-0.2,0.4-0.2,0.9,0.1,1.3c-0.7-0.5-1.5-0.8-2.3-1
				C745.4,32.5,746.7,32.3,746.7,32.3 M747,32.2h0.2l0,0l0.2,1.8H747V32.2L747,32.2 M752.1,45.2c-0.3,0.1-0.7,0.2-1,0.3
				c0.1-0.1,0.4-0.4,0.6-0.7L752,45L752.1,45.2 M756.2,42.2c-0.5,0.6-1,1.1-1.6,1.6l0,0l-0.2,0.2c-0.6,0.5-1.3,0.8-2.1,1.1l-0.2-0.2
				l-0.2-0.2c0.6-0.7,1.2-1.4,1.7-2.1C754.4,42.6,755.3,42.5,756.2,42.2 M735.2,36.6l-2.7,0.2l1.1,1.2c0.2,0.2,0,0.4-0.2,0.2
				l-0.1-0.1l-1.1-1.1c0,0-0.2,7.8-0.3,8.6c0,0.3-0.2,0.3-0.3,0l-0.2-8.6c-0.4,0.4-0.8,0.9-1.2,1.2c-0.2,0.2-0.3,0-0.2-0.3l1-1.2
				l-2.6-0.2c-0.4,0-0.4-0.4,0-0.4l2.7-0.2c0,0-0.8-0.8-1.1-1.2c-0.2-0.2-0.1-0.4,0.1-0.3l1.3,1.2v-0.1c0-0.9,0.1-1.8,0.2-2.6
				c0-0.4,0.4-0.4,0.4,0l0.2,2.7c0,0,0.9-0.8,1.3-1.2c0.2-0.2,0.4,0,0.2,0.3l-1.2,1.2l2.7,0.2C735.5,36.1,735.6,36.5,735.2,36.6
				 M759.6,45.3c0-10.3-8.3-18.7-18.5-18.7l0,0c-10.4,0.1-18.8,8.6-18.7,19c0,1.6,0.2,3.2,0.6,4.7c1-0.2,1.9-0.5,2.8-1
				c0.7-0.4,1.5-0.7,2.2-0.8c0.6-0.2,1.2-0.1,1.7,0.3c0.1,0.1,0.1,0.2,0.1,0.3c0,0.2-0.1,0.3-0.2,0.4l-0.2,0.2
				c-0.1,0.1-0.1,0.2-0.1,0.3v0.1c0,0.1,0,0.1,0.1,0.2l0,0c0.2,0.1,0.4,0.2,0.7,0.2c1.5-0.1,2.9-0.5,4.2-1.2
				c0.7-0.4,1.5-0.7,2.2-0.8c0.6-0.2,1.2-0.1,1.7,0.4c0,0.1,0.1,0.2,0.1,0.2c0,0.2-0.1,0.3-0.2,0.4l-0.2,0.2
				c-0.1,0.1-0.1,0.2-0.1,0.3v0c0,0.1,0.1,0.2,0.1,0.2l0,0c0.2,0.1,0.4,0.2,0.6,0.2c1.2-0.1,2.3-0.3,3.4-0.8l0.5-0.2l0,0l0,0l0,0
				c0.8-0.4,1.7-0.7,2.6-0.9c0.6-0.2,1.2-0.1,1.6,0.3c0,0.1,0.1,0.1,0.1,0.2c0,0.1-0.1,0.3-0.1,0.4l-0.2,0.2l0,0
				c-0.1,0.1-0.1,0.2-0.1,0.4v0.1c0,0.1,0.1,0.2,0.2,0.3l0,0c0.2,0.1,0.5,0.2,0.7,0.2c1.5-0.1,2.9-0.5,4.2-1.2
				c0.7-0.4,1.4-0.7,2.2-0.8c0.5-0.2,1.1-0.1,1.6,0.3c0.1,0.1,0.1,0.3,0,0.5l0,0c0,0.1,0,0.2-0.1,0.2l-0.2,0.2
				c-0.1,0.1-0.1,0.2-0.1,0.4c0,0.1,0.1,0.2,0.1,0.2l0,0c0.2,0.1,0.4,0.2,0.6,0.2c1.3-0.1,2.5-0.4,3.7-1
				C759.4,48.2,759.6,46.8,759.6,45.3 M750.8,60.9l0.8-0.1c1.6-1.1,3-2.5,4.2-4.1c-0.4-0.1-0.7-0.3-0.9-0.7
				c-0.1-0.2-0.2-0.5-0.2-0.8c0-0.2,0-0.3,0.1-0.5h-0.3h-0.1c-0.6,0.2-1.2,0.4-1.8,0.7c-1.4,0.7-3,1.2-4.6,1.3
				c-0.6,0-1.1-0.2-1.5-0.7c-0.2-0.2-0.2-0.5-0.3-0.8c0-0.2,0-0.4,0.1-0.5H746h-0.2c-0.6,0.2-1.2,0.4-1.8,0.7
				c-1.4,0.8-3,1.2-4.6,1.3c-0.6,0-1.1-0.2-1.4-0.7c-0.3-0.4-0.3-0.9-0.2-1.3h-0.3h-0.1c-0.6,0.2-1.2,0.4-1.8,0.7
				c-1.4,0.8-2.9,1.3-4.6,1.5c-0.6,0-1.1-0.3-1.5-0.7c-0.3-0.4-0.3-0.9-0.1-1.3H729h-0.1c-0.6,0.2-1.2,0.4-1.8,0.7
				c-0.4,0.2-0.9,0.4-1.3,0.6l0.4,0.6c0.9,1.2,1.9,2.3,3,3.2l0.5-0.2c0.7-0.4,1.4-0.7,2.2-0.8c0.6-0.2,1.2-0.1,1.7,0.3
				c0.1,0.1,0.1,0.2,0.1,0.3c0,0.2-0.1,0.3-0.2,0.4l-0.2,0.2c-0.1,0.1-0.1,0.2-0.1,0.3v0.1c0,0.1,0.1,0.1,0.1,0.2l0,0
				c0.2,0.1,0.4,0.2,0.6,0.2c1.4,0,2.8-0.4,4.1-1.1c0.7-0.4,1.5-0.7,2.3-0.8c0.6-0.2,1.2-0.1,1.7,0.3c0.1,0.1,0.1,0.2,0.1,0.3
				c0,0.2-0.1,0.3-0.2,0.4l-0.2,0.2c-0.1,0.1-0.1,0.2-0.1,0.3c0,0,0,0,0,0.1s0,0.1,0.1,0.2l0,0c0.2,0.1,0.4,0.2,0.7,0.2
				c1.5-0.1,2.9-0.5,4.2-1.2c0.7-0.4,1.4-0.7,2.2-0.8c0.6-0.2,1.2-0.1,1.7,0.3c0.1,0.2,0.1,0.5-0.1,0.7l-0.2,0.2
				c-0.1,0.1-0.1,0.2-0.1,0.4c0,0.1,0.1,0.1,0.1,0.2l0,0C750.3,60.8,750.5,60.9,750.8,60.9 M756.4,55.8c1.1-1.6,1.9-3.3,2.4-5.2
				c-1.1,0.3-2.2,0.6-3.4,0.8c-0.6,0-1.1-0.3-1.4-0.7c-0.2-0.2-0.2-0.5-0.3-0.8c0-0.2,0-0.3,0.1-0.5h-0.5c-0.6,0.2-1.2,0.4-1.7,0.7
				c-1.5,0.8-3,1.2-4.7,1.3c-0.6,0-1.1-0.3-1.5-0.8c-0.1-0.2-0.2-0.5-0.2-0.8c0-0.2,0-0.4,0.1-0.5c-0.2,0-0.3,0-0.5,0
				c-0.6,0.2-1.2,0.4-1.8,0.7c-1.4,0.7-3,1.2-4.6,1.3c-0.6,0-1.1-0.3-1.4-0.7c-0.3-0.4-0.3-0.9-0.2-1.3h-0.5
				c-0.6,0.2-1.2,0.4-1.7,0.7c-1.5,0.8-3.1,1.2-4.7,1.3c-0.6,0-1.2-0.3-1.5-0.8c-0.2-0.2-0.2-0.5-0.2-0.8c0-0.2,0-0.3,0.1-0.5
				c-0.1,0-0.3,0-0.5,0c-0.6,0.2-1.2,0.4-1.8,0.7c-0.9,0.5-2,0.9-3,1.1c0.5,1.4,1.1,2.8,1.9,4.1c0.5-0.2,1-0.4,1.4-0.6
				c0.7-0.4,1.5-0.7,2.2-0.8c0.6-0.2,1.2,0,1.7,0.3c0.1,0.2,0.1,0.5-0.1,0.7l-0.2,0.2c-0.1,0.1-0.1,0.2-0.1,0.3l0,0
				c0,0.1,0,0.2,0.1,0.2l0,0c0.2,0.1,0.5,0.2,0.7,0.2c1.5-0.1,2.9-0.5,4.2-1.2c0.7-0.4,1.5-0.7,2.2-0.8c0.6-0.2,1.2-0.1,1.7,0.3
				c0.1,0.2,0.1,0.5-0.1,0.7c-0.1,0-0.2,0.1-0.2,0.2c-0.1,0.1-0.1,0.2-0.1,0.3s0,0.2,0.1,0.2l0,0c0.2,0.1,0.4,0.2,0.7,0.2
				c1.5-0.1,2.9-0.5,4.2-1.2c0.7-0.4,1.5-0.7,2.2-0.8c0.6-0.2,1.2-0.1,1.7,0.3c0.1,0.2,0.1,0.5-0.1,0.7c-0.1,0-0.2,0.1-0.2,0.2
				c-0.1,0.1-0.1,0.2-0.1,0.3s0,0.2,0.1,0.2l0,0c0.2,0.1,0.4,0.2,0.7,0.2c1.5-0.1,2.9-0.5,4.2-1.2c0.7-0.4,1.5-0.7,2.2-0.8
				c0.6-0.2,1.2-0.1,1.7,0.3c0.1,0.2,0.1,0.5-0.1,0.7l-0.2,0.2c-0.1,0.1-0.1,0.2-0.1,0.3s0.1,0.2,0.1,0.2l0,0
				c0.2,0.1,0.4,0.2,0.7,0.2L756.4,55.8z"/>
		</g>
	</g>
	<g id="Capa_2-2">
		<g id="Contacto-2">
			<path class="st1" d="M933,50.9c0.4-0.2,0.7-0.4,0.9-0.8c0.1-0.1,0.1-0.3,0.1-0.5c0-0.4-0.4-0.6-0.8-0.8L933,50.9z"/>
			<path class="st1" d="M930,54.2c0,0.4,0.2,0.8,0.5,1.1c0.2,0.2,0.5,0.4,0.8,0.5l-0.1-2.7C930.7,53.3,930.2,53.6,930,54.2z"/>
			<path class="st1" d="M929.8,44.3c-0.9,1.2,0.3,1.8,1.3,2.1l-0.1-2.8C930.6,43.7,930.2,43.9,929.8,44.3z"/>
			<path class="st1" d="M920.8,28c0,5.8,0.1,11.6,0,17.3c0,7.7,3.3,12.7,9.4,17c0.6,0.4,1.2,0.8,1.9,1.2c6.8-3.7,11.3-8.7,11.7-16.8
				V28C936.2,26.8,928.4,26.8,920.8,28z M938.1,44.8c0.2,0.3,0.8,0.3,2,0.1c-0.9,0.6-2.2,0.5-3-0.3c-0.5-0.4-1.1-0.6-1.7-0.8
				c0,0.3,0.1,0.5,0.3,0.8l0.1,0.2h0.2l0.3-0.3l0.2,0.2l-0.6,0.6h-0.2l-1.3-1.3l-0.6-0.6c-0.2,0-0.3-0.1-0.5-0.1l-0.1,1.3l-0.1,2.3
				V47l1.1,0.3c1.2,0.4,1.9,1.8,1.5,3s-1.4,1.6-2.5,2l-0.5,0.2l-0.2,3.7l0.6,0.2c0.8,0.3,1.3,1.2,1,2c0,0.1-0.1,0.2-0.1,0.3
				c-0.1,0.4-0.2,0.7-0.5,0.9l-0.4,0.3l-0.4-0.5c0.2-0.2,0.5-0.4,0.6-0.6c0.2-0.6-0.1-1.3-0.8-1.5h-0.1h-0.1l-0.3,5.9l-0.7-0.1
				l-0.1-6c-0.8,0-1.6-0.3-2.2-0.9c-1.1-0.8-1.2-2.4-0.4-3.4l0,0l0.1-0.1c0.7-0.6,1.5-1.1,2.4-1.3l-0.1-3.1l-0.3-0.1
				c-1.1-0.3-2.3-0.4-2.9-1.6c-0.5-0.9-0.5-1.9,0-2.8c0.7-1,1.8-1.8,3.1-2v-1.1l-2.2-0.5l-0.1-1.1l-2.5-0.6V38h6.3h-3.7l0,0
				c-1.4-0.4-2.2-1.8-1.8-3.3v-0.1c0-0.1,0.1-0.2,0.1-0.3c0.3-0.8,0.1-0.8-0.4-1.3c0.1,0,0.3,0,0.5,0c0.4,0.2,0.8,0.5,0.9,1
				c0.2,0.6,0,0.9,0.3,1.3c0.2,0.3,0.5,0.6,0.8,0.8c-0.3-0.5-0.6-1-0.6-1.6c-0.1-0.6,0-1.1,0.3-1.7c0.3-0.4,0.4-0.9,0.4-1.4
				c-0.1-0.3-0.3-0.6-0.5-0.8c0.5,0.1,1,0.2,1.4,0.5s0.6,0.8,0.6,1.2c-0.1,0.8-0.2,1.7-0.2,2.6c0.1,0.5,0.5,1.1,0.8,1.2
				c-0.1-0.5-0.4-0.7-0.3-1.3c0.2-0.6,0.5-1.2,0.6-1.5c0.1-0.4,0-0.8-0.2-1.1c-0.4-0.6-0.5-1.3-0.3-2c0.3-0.5,0.7-0.9,1.2-1.3
				c-0.3,0.4-0.4,0.8-0.3,1.3c0.1,0.5,0.3,0.9,0.7,1.2c0.3,0.3,0.5,0.6,0.6,1c0.1,0.5,0.1,1,0,1.4c-0.1,0.3-0.2,0.6-0.3,0.9
				c0,0.3,0,0.6,0.1,0.8c0.2-0.5,0.4-1,0.7-1.5c0.4-0.5,0.5-0.7,0.3-1.2c-0.3-0.4-0.5-0.9-0.5-1.5c0-0.4,0.2-0.8,0.5-1.1
				c0.1-0.1,0.2-0.1,0.3-0.2c-0.1,0.3-0.2,0.6-0.1,0.9c0.1,0.4,0.4,0.7,0.7,1c0.5,0.4,0.8,0.7,0.7,1c-0.2,0.6-0.3,1.2-0.4,1.9
				c0,0.4,0,0.8,0.1,1.1c0.1-0.4,0.2-0.8,0.5-1.1c0.4-0.4,0.7-0.8,1-1.2c0.1-0.3,0.1-0.7,0.1-1.1V32c0.4,0.2,0.7,0.5,0.9,0.9
				c0.2,0.5,0.2,1.1-0.1,1.6c-0.2,0.4-0.7,1.3-0.7,1.3L937,36c0.4-0.2,0.7-0.4,1-0.7c0.3-0.4,0.6-0.8,0.8-1.2
				c0.1-0.3,0.2,1.1,0.1,1.4c-0.2,0.7-0.5,1.3-1,1.8c-0.4,0.3-0.8,0.6-1.2,0.8h1.7l-0.1,0.6l-2.6,0.4v1.1l-2.2,0.4v1
				c0.1,0,0.2,0,0.3,0c0.4-0.1,0.9-0.1,1.3-0.1c0,0,0.7,0.5,0.8,0.5s0.8,0.4,0.9,0.4s0.8,0.3,0.8,0.3c-0.2,0.3-0.3,0.6-0.5,1h-0.2
				v-0.5l0.1-0.3h-0.6c-0.5,0.2-0.8,0.4-0.8,0.8l0.1-0.2c0.8,0.2,1.6,0.5,2.3,0.8c1.6,0.3,2.4-0.4,2.5-0.7
				C940.5,44.5,939.4,44.7,938.1,44.8L938.1,44.8z"/>
			<path class="st1" d="M935,41.9h-0.3V42c0.1,0.1,0.2,0.2,0.3,0.2s0.1,0,0.2,0v-0.1C935.1,42,935.1,42,935,41.9z"/>
			<path class="st0" d="M926.4,63.3l-0.2,0.2l-0.3,0.3l0.1,0.1c0.1,0.1,0.2,0.1,0.4,0.1c0.1,0,0.1-0.1,0.2-0.1
				c0.1-0.1,0.1-0.3,0-0.4c0,0,0,0-0.1,0L926.4,63.3z"/>
			<path class="st0" d="M925.8,64l-0.5,0.6l-0.1,0.2l0.1,0.1c0.1,0.1,0.2,0.1,0.3,0.1s0.2-0.1,0.3-0.2c0.2-0.1,0.2-0.4,0-0.6l0,0
				L925.8,64L925.8,64z"/>
			<path class="st0" d="M917.3,45.4L917.3,45.4c0,0.1,0,0.2,0,0.2c0,0.1,0.1,0.1,0.1,0.1c0.1,0,0.2,0.1,0.3,0.1s0.3-0.1,0.3-0.2
				c0-0.1,0-0.2,0-0.3v-0.1c-0.2,0-0.3,0-0.5,0h-0.4h0.1L917.3,45.4z"/>
			<path class="st0" d="M917.3,39.6L917.3,39.6c0,0.2,0,0.3,0.1,0.3c0.1,0.1,0.2,0.1,0.3,0.1c0.3,0,0.4-0.1,0.4-0.4c0,0,0-0.1,0-0.2
				s-0.4,0-0.5,0L917.3,39.6L917.3,39.6L917.3,39.6z"/>
			<path class="st0" d="M947.2,49c0-0.1,0-0.2-0.1-0.2c-0.1-0.1-0.2-0.1-0.3-0.1c-0.3,0-0.4,0-0.5,0.3c0,0,0,0.1,0,0.2
				s0.4,0.1,0.5,0.1l0.3,0.1v-0.1l0,0L947.2,49z"/>
			<path class="st0" d="M950.9,21.7c-12.2-2.8-24.9-2.8-37.1,0l0.1,23.7c-0.1,12.6,6.8,20,16.2,25.5c1.9,1.1,2.4,0.9,4.4-0.1
				c9.2-4.8,15.4-12,16.5-23.5L950.9,21.7z M946.4,35.2L946.4,35.2c0.1,0,0.2,0,0.2,0h0.4h0.1v0.2v0.1l0,0h-0.2c0,0,0,0,0,0.1
				s0,0.2,0,0.3v0.2h0.4h1c0.2,0,0.3,0,0.5,0l0,0c0-0.1,0-0.1,0-0.2l0,0v-0.1h0.2h0.1l0,0c0,0.2,0,0.3,0,0.5s0,0.3,0,0.5l0,0
				l-0.1,0.1h-0.2l0,0l0,0c0-0.1,0-0.1,0-0.2l0,0c-0.2,0-0.3,0-0.5,0h-1.4v0.2c0,0.1,0,0.2,0,0.3h0.1l0,0v0.2l-0.1,0.1h-0.3h-0.2
				l0,0l-0.1-0.1l0,0c0-0.2,0-0.5,0-0.7V36C946.4,35.7,946.4,35.4,946.4,35.2L946.4,35.2L946.4,35.2z M915.9,35.5L915.9,35.5
				L915.9,35.5L915.9,35.5c0.3,0,0.4,0.1,0.6,0l0,0h0.1v0.2h-0.1h-0.1h-0.2c-0.1,0-0.1,0.1-0.2,0.2c0,0.1-0.1,0.2-0.1,0.3
				c0,0.2,0.1,0.3,0.2,0.4c0.1,0,0.1,0.1,0.2,0.1c0.1,0,0.2,0,0.3-0.1c0-0.1,0.1-0.2,0.1-0.3c0-0.2,0.1-0.4,0.2-0.6
				c0.1-0.2,0.3-0.3,0.5-0.2c0.2,0,0.4,0.1,0.6,0.3c0.2,0.2,0.2,0.5,0.2,0.7s0,0.5-0.1,0.7l0,0H918l0,0c-0.2,0-0.3,0-0.5,0l0,0l0,0
				V37v-0.1h0.3l0.1-0.1c0-0.1,0-0.2,0-0.3s0-0.2-0.1-0.3s-0.1-0.1-0.2-0.1c-0.1,0-0.2,0-0.2,0.1c-0.1,0.1-0.1,0.3-0.1,0.4
				c0,0.1,0,0.1,0,0.2c0,0.1,0,0.1,0,0.2c0,0.1-0.1,0.2-0.2,0.3c-0.1,0.1-0.3,0.1-0.4,0.1c-0.2,0-0.4-0.1-0.5-0.2
				c-0.1-0.1-0.2-0.2-0.3-0.4s-0.1-0.3-0.1-0.5C915.7,36,915.8,35.7,915.9,35.5L915.9,35.5z M915.8,38.7L915.8,38.7L915.8,38.7
				l0.2-0.1v0.1l0,0c0,0.1,0,0.1,0,0.2c0,0.1,0,0,0,0c0.2,0,0.3,0,0.5,0h0.9c0.2,0,0.3,0,0.5,0l0,0c0-0.1,0-0.1,0-0.2l0,0l0,0h0.2
				v0.1l0,0c0,0.2,0,0.3,0,0.5s0,0.3,0,0.4V40c0,0.2-0.1,0.5-0.3,0.6c-0.1,0.1-0.2,0.1-0.3,0.1c-0.2,0-0.4-0.1-0.6-0.3
				c-0.1-0.2-0.2-0.4-0.2-0.6c0-0.1,0-0.1,0-0.2l0,0l0,0h0.1h-0.5c-0.2,0-0.3,0-0.5,0l0,0c0,0.1,0,0.1,0,0.2l0,0v0.1h-0.2v-0.1l0,0
				c0-0.2,0-0.4,0-0.5C915.7,39.1,915.8,38.9,915.8,38.7z M915.8,42.1L915.8,42.1L915.8,42.1h0.2l0,0l0,0c0,0.1,0,0.1,0,0.2l0,0
				c0.2,0,0.3,0,0.5,0h0.9c0.2,0,0.3,0,0.5,0l0,0c0-0.1,0-0.1,0-0.2l0,0l0,0h0.2v0.1l0,0c0,0.2,0,0.3,0,0.5s0,0.3,0,0.5l0,0v0.1H918
				v-0.1l0,0c0-0.1,0-0.1,0-0.2l0,0c-0.2,0-0.3,0-0.5,0h-0.9c-0.2,0-0.3,0-0.5,0l0,0c0,0.1,0,0.1,0,0.2l0,0v0.1h-0.2h-0.1l0,0
				c0-0.2,0-0.3,0-0.5S915.8,42.2,915.8,42.1L915.8,42.1z M915.8,46.8L915.8,46.8c0-0.2,0-0.3,0-0.4s0-0.2,0-0.3V46l0,0h0.1l0.7-0.4
				l0.3-0.2l0.1-0.1l0,0h-0.4c-0.2,0-0.3,0-0.5,0l0,0c0,0.1,0,0.1,0,0.2l0,0l-0.1,0.1h-0.2l-0.1-0.1l0,0c0-0.2,0-0.3,0-0.5
				s0-0.3,0-0.5l0,0v-0.1h0.2l0,0l0,0c0,0.1,0,0.1,0,0.2l0,0c0.2,0,0.3,0,0.5,0h0.9c0.2,0,0.3,0,0.5,0l0,0c0-0.1,0-0.1,0-0.2l0,0
				l0,0h0.2l0.1,0.1l0,0c0,0.2,0,0.3,0,0.5c0,0.1,0,0.2,0,0.3s0,0.3,0,0.4c0,0.2,0,0.3-0.1,0.5c0,0.1-0.1,0.2-0.3,0.3
				c-0.1,0-0.1,0-0.2,0c-0.3,0-0.6-0.2-0.7-0.5l-0.2,0.1l-0.4,0.3C916.2,46.6,916,46.7,915.8,46.8C915.9,46.8,915.9,46.8,915.8,46.8
				L915.8,46.8L915.8,46.8L915.8,46.8L915.8,46.8z M916.3,49.2L916.3,49.2L916.3,49.2l-0.2,0.1H916l0,0c0-0.2,0-0.3,0-0.5l-0.1-0.5
				l0,0v-0.1h0.2h0.1l0,0v0.2l0,0c0.2,0,0.3,0,0.5,0l0.9-0.1c0.2,0,0.3,0,0.5-0.1l0,0c0-0.1,0-0.1,0-0.2l0,0v-0.1h0.2l0.1,0.1l0,0
				c0,0.2,0,0.3,0,0.5l0.1,0.5l0,0v0.1h-0.2h-0.1l0,0v-0.2l0,0c-0.2,0-0.3,0-0.5,0l-0.9,0.1c-0.2,0-0.3,0-0.5,0.1l0,0V49.2
				L916.3,49.2z M916.9,52.1L916.9,52.1L916.9,52.1l-0.2,0.1h-0.1l0,0c0-0.2-0.1-0.3-0.1-0.5s-0.1-0.3-0.1-0.5l0,0v-0.1h0.2h0.1l0,0
				c0,0.1,0,0.1,0,0.2l0,0l0.5-0.1l0.9-0.2c0.1,0,0.3,0,0.4-0.1v-0.2c0-0.1-0.1-0.2-0.1-0.3h-0.1h-0.2l0,0H918v-0.2v-0.1l0.3-0.1
				l0.2-0.1l0,0h0.1l0,0c0,0.2,0.1,0.5,0.2,0.7l0.2,0.7c0,0.2,0.1,0.5,0.2,0.7l0,0v0.1l0,0c-0.1,0-0.2,0-0.3,0l-0.3,0.1h-0.1V52v0
				l0,0l0.2-0.1c0,0,0,0,0-0.1s0-0.2-0.1-0.3v-0.2c-0.1,0-0.3,0.1-0.4,0.1l-0.9,0.2c-0.2,0-0.3,0.1-0.5,0.1l0,0c0,0.1,0,0.1,0,0.2
				L916.9,52.1L916.9,52.1z M918.1,55.9c-0.3-0.1-0.5-0.3-0.6-0.6c-0.1-0.2-0.1-0.5-0.1-0.7s0.1-0.3,0.2-0.4
				c0.2-0.1,0.5-0.2,0.7-0.3l0.4-0.2c0.2-0.1,0.3-0.1,0.5-0.2l0,0c0-0.1,0-0.1-0.1-0.2l0,0v-0.1l0.2-0.1h0.1l0,0
				c0.1,0.2,0.1,0.3,0.2,0.5c0.1,0.2,0.1,0.3,0.2,0.5l0,0v0.1l-0.2,0.1h-0.1l0,0c0-0.1,0-0.1-0.1-0.2l0,0c-0.2,0-0.3,0.1-0.5,0.2
				l-0.3,0.1c-0.2,0.1-0.5,0.2-0.7,0.3c-0.1,0.2-0.1,0.4,0,0.6c0,0.1,0.1,0.3,0.3,0.3c0,0,0.1,0,0.2,0c0.1,0,0.1,0,0.2,0l0.3-0.1
				l0.3-0.1l0.6-0.2l0.2-0.1l0,0c0-0.1,0-0.1,0-0.2l0,0v-0.1l0.2-0.1h0.1l0,0c0,0.1,0.1,0.2,0.1,0.3s0.1,0.3,0.2,0.4l0,0v0.1
				l-0.2,0.1h-0.1l0,0l-0.1-0.1l-0.2,0.1l-0.4,0.2l-0.5,0.2C918.7,55.9,918.5,56,918.1,55.9L918.1,55.9z M921.6,57.8L921.6,57.8
				c-0.1,0.1-0.3,0.1-0.4,0.2l0,0h-0.1l-0.1-0.1v-0.1l0,0c0.1,0,0.1-0.1,0.2-0.1c0-0.1,0-0.1,0-0.2c0-0.1-0.1-0.2-0.1-0.3
				c-0.1-0.1-0.1-0.2-0.3-0.2c-0.1,0-0.2,0-0.3,0s-0.1,0.1-0.1,0.2c0,0.1,0.1,0.3,0.1,0.4c0,0.1,0,0.1,0.1,0.2l0.1,0.2
				c0,0.1,0,0.2,0,0.4c-0.1,0.1-0.2,0.2-0.3,0.3c-0.2,0.1-0.4,0.1-0.5,0.1c-0.2,0-0.3-0.1-0.5-0.2c-0.1-0.1-0.3-0.2-0.3-0.4
				c-0.1-0.2-0.2-0.5-0.2-0.7l0,0v-0.1l0,0c0.2-0.1,0.3-0.2,0.5-0.3l0,0h0.1l0.1,0.1v0.1l0,0c-0.1,0-0.1,0.1-0.2,0.1
				c0,0.1,0,0.2,0,0.2c0,0.1,0,0.2,0.1,0.3s0.2,0.2,0.4,0.2c0.1,0,0.2,0,0.2-0.1c0.1-0.1,0.1-0.2,0.1-0.3s0-0.2-0.1-0.3
				c-0.1-0.2-0.2-0.4-0.2-0.6c0-0.2,0.1-0.4,0.3-0.5s0.4-0.2,0.6-0.1c0.3,0.1,0.5,0.3,0.6,0.5s0.2,0.4,0.2,0.6l0,0L921.6,57.8z
				 M923.9,62.7c-0.2,0.2-0.4,0.3-0.7,0.4c-0.3,0-0.6-0.1-0.8-0.4c-0.2-0.2-0.3-0.4-0.4-0.6c0-0.2,0-0.3,0.1-0.5
				c0.2-0.2,0.3-0.4,0.5-0.6l0.3-0.3c0.1-0.1,0.3-0.2,0.4-0.4l0,0l-0.1-0.1v-0.1l0.1-0.1h0.1l0,0l0.3,0.4l0.4,0.4l0,0v0.1L924,61
				l0,0l0,0l-0.1-0.1l0,0c-0.1,0.1-0.3,0.2-0.4,0.3l-0.3,0.2c-0.2,0.2-0.4,0.4-0.5,0.6c-0.1,0.2,0,0.4,0.2,0.5
				c0.1,0.1,0.2,0.2,0.4,0.2c0,0,0.1,0,0.2,0c0.1,0,0.1-0.1,0.2-0.1l0.2-0.2l0.3-0.2l0.4-0.4l0.1-0.1l0,0l-0.1-0.2l0,0v-0.1l0.1-0.1
				h0.1l0,0l0.2,0.2c0.1,0.1,0.2,0.2,0.3,0.3l0,0v0.1l-0.1,0.1H925l0,0c0,0-0.1-0.1-0.2-0.1l-0.2,0.2l-0.3,0.3L923.9,62.7z
				 M926.4,65.1c-0.2,0.2-0.5,0.3-0.8,0.3c-0.2,0-0.4-0.1-0.5-0.3L925,65l-0.3-0.3l-0.3-0.2l0,0v-0.1v-0.1l0,0l0,0h0.1l0.1-0.1
				l0.3-0.3l0.5-0.7c0.1-0.1,0.2-0.3,0.3-0.4l0,0l-0.1-0.1l0,0v-0.1l0.1-0.1h0.2l0,0c0.1,0.1,0.3,0.2,0.4,0.3l0.3,0.3l0.2,0.2
				c0.2,0.1,0.3,0.4,0.3,0.6c0,0.1,0,0.2-0.1,0.3s-0.3,0.2-0.5,0.2c-0.1,0-0.1,0-0.2,0C926.7,64.5,926.7,64.9,926.4,65.1L926.4,65.1
				z M929.3,65.4L929.3,65.4l-0.3-0.1l0,0c-0.1,0.1-0.2,0.3-0.3,0.4l-0.5,0.7c-0.1,0.1-0.2,0.3-0.3,0.4l0,0l0.1,0.1l0,0V67l-0.1,0.1
				h-0.1l0,0c-0.1-0.1-0.3-0.2-0.4-0.3l-0.4-0.3l0,0v-0.1l0.1-0.1h0.1l0,0l0.2,0.1l0,0c0.1-0.1,0.2-0.3,0.3-0.4l0.5-0.7
				c0.1-0.1,0.2-0.3,0.3-0.4l0,0l-0.1-0.1l0,0v-0.1l0.1-0.1h0.1l0,0c0.1,0.1,0.3,0.2,0.4,0.3l0.4,0.3l0,0L929.3,65.4L929.3,65.4z
				 M932.1,65.4c-0.8-0.5-1.5-1-2.3-1.5c-6.4-4.4-10.3-9.9-10.3-18.6c0-6.3,0-12.6,0-19c8.5-1.5,17.1-1.5,25.6,0
				c0.1,6.9,0.3,13.7,0,20.6C944.7,55.8,939.6,61.4,932.1,65.4L932.1,65.4z M937.7,66.4l-1.8-1.1c-0.1-0.1-0.2-0.1-0.3-0.2
				c-0.1,0-0.1,0-0.2,0.1l0,0h-0.1l-0.1-0.1V65l0,0l0.4-0.3l0.5-0.4l0,0h0.1l0.1,0.1v0.1l0,0c-0.1,0-0.1,0.1-0.1,0.1l0,0l0.3,0.2
				l0.2,0.1l0.8,0.5l-0.2-0.8c0-0.1,0-0.2-0.1-0.3c0-0.1-0.1-0.2-0.1-0.3l0,0l-0.2,0.1l0,0h-0.1l-0.1-0.1v-0.1l0,0
				c0.1-0.1,0.2-0.1,0.3-0.2l0.3-0.2l0,0h0.1l0.1,0.1v0.1l0,0l-0.1,0.1v0.1c0,0.1,0,0.2,0.1,0.3l0.1,0.3l0.1,0.6
				c0.1,0.3,0.2,0.7,0.3,1l0,0L937.7,66.4z M940.9,63.9c-0.2,0.2-0.4,0.3-0.6,0.4c-0.2,0-0.3,0-0.5-0.1c-0.2-0.2-0.4-0.3-0.6-0.5
				l-0.3-0.3c-0.1-0.1-0.2-0.2-0.4-0.3l0,0l-0.1,0.1l0,0h-0.1l-0.1-0.1V63l0,0l0.4-0.3c0.1-0.1,0.3-0.2,0.4-0.4l0,0h0.1l0.1,0.1v0.1
				l0,0l-0.1,0.1l0,0c0.1,0.1,0.2,0.3,0.3,0.4l0.2,0.3c0.2,0.2,0.4,0.4,0.6,0.5c0.2,0.1,0.4,0,0.5-0.2c0.1-0.1,0.2-0.2,0.2-0.4
				c0,0,0-0.1,0-0.2c0-0.1-0.1-0.1-0.1-0.2l-0.2-0.2l-0.3-0.3l-0.4-0.4l-0.1-0.1l0,0l-0.1,0.1h-0.1l-0.1-0.1v-0.1l0,0
				c0.1-0.1,0.2-0.1,0.2-0.2c0.1-0.1,0.2-0.2,0.3-0.3l0,0l0,0l0.1,0.1v0.1l0,0c0,0-0.1,0.1-0.1,0.2c0,0.1,0.1,0.1,0.2,0.2
				c0.1,0.1,0.2,0.2,0.3,0.3l0.4,0.4c0.2,0.2,0.3,0.4,0.4,0.7C941.2,63.5,941.1,63.7,940.9,63.9z M943,61.6
				c-0.1,0.1-0.2,0.2-0.3,0.3l0,0h-0.1l-0.1-0.1l0,0l0,0v-0.1c0,0-0.1-0.1-0.2-0.1l-0.3-0.2l-0.7-0.5c-0.2-0.1-0.3-0.2-0.5-0.2l0,0
				l-0.1,0.1l0,0h-0.1l-0.1-0.1v-0.1l0,0c0.1-0.1,0.2-0.3,0.3-0.4c0.1-0.1,0.2-0.3,0.3-0.4l0,0h0.1l0.1,0.1V60l-0.1,0.2l0,0
				c0.1,0.1,0.3,0.2,0.4,0.3l0.8,0.6l0.3,0.2l0.1-0.1c0.1-0.1,0.2-0.3,0.3-0.5v-0.1l-0.2-0.2v-0.1l0.1-0.1h0.1l0,0
				c0.1,0.1,0.3,0.3,0.4,0.4l0,0l0,0L943,61.6z M945.3,58.4c-0.1,0.1-0.2,0.3-0.3,0.4s-0.2,0.3-0.3,0.5l0,0h-0.1l-0.1-0.1v-0.1l0,0
				c0-0.1,0.1-0.1,0.1-0.2l0,0c-0.1-0.1-0.3-0.2-0.4-0.3l-0.8-0.5l-0.3-0.2l-0.1,0.2c-0.1,0.1-0.1,0.2-0.2,0.3l0,0c0,0,0,0,0.1,0
				l0.1,0.2l0,0v0.1l-0.1,0.1h-0.1l-0.3-0.2l-0.2-0.1l0,0v-0.1l0,0c0.1-0.2,0.3-0.4,0.4-0.6l0.3-0.6c0.1-0.2,0.3-0.4,0.4-0.6l0,0
				h0.1l0,0c0.1,0.1,0.1,0.1,0.2,0.2L944,57l0,0l-0.1,0.1h-0.1l0,0l-0.2-0.1c0,0,0,0-0.1,0l-0.2,0.3l-0.1,0.1
				c0.1,0.1,0.2,0.1,0.3,0.2l0.8,0.5c0.1,0.1,0.3,0.2,0.5,0.3l0,0l0.1-0.2l0,0h0.1L945.3,58.4L945.3,58.4L945.3,58.4z M947.9,52.7
				c-0.1,0.2-0.2,0.5-0.3,0.7l0,0h-0.1l0,0c-0.2-0.1-0.3-0.1-0.5-0.2l0,0v-0.1v-0.2h0.1h0.1h0.2c0.1,0,0.1-0.1,0.2-0.1
				c0.1-0.1,0.1-0.2,0.2-0.3c0.1-0.2,0-0.3-0.1-0.4c-0.1-0.1-0.1-0.1-0.2-0.1c-0.1,0-0.2,0-0.3,0.1s-0.1,0.2-0.1,0.2
				c-0.1,0.2-0.2,0.4-0.3,0.5c-0.2,0.1-0.4,0.2-0.6,0.1c-0.2-0.1-0.4-0.2-0.5-0.4s-0.1-0.5,0-0.8c0.1-0.2,0.2-0.4,0.3-0.6l0,0h0.1
				c0.1,0.1,0.3,0.1,0.4,0.2l0,0v0.1v0.2h-0.1l0,0c-0.1,0-0.2,0-0.2,0c-0.1,0-0.1,0.1-0.1,0.1c-0.1,0.1-0.1,0.2-0.1,0.2
				c0,0.1,0,0.2,0,0.3s0.1,0.1,0.2,0.2c0.1,0,0.2,0,0.3,0c0.1-0.1,0.2-0.2,0.2-0.4l0.1-0.2c0-0.1,0.1-0.1,0.1-0.2
				c0.1-0.1,0.2-0.2,0.3-0.2s0.3,0,0.4,0c0.2,0,0.4,0.2,0.5,0.3s0.2,0.3,0.2,0.5C948,52.3,948,52.5,947.9,52.7L947.9,52.7z
				 M948.6,49.2c0,0.2-0.1,0.4-0.1,0.5s-0.1,0.3-0.1,0.5l0,0h-0.1h-0.2v-0.1l0,0c0-0.1,0-0.1,0-0.2l0,0c-0.2-0.1-0.3-0.1-0.5-0.1
				l-0.9-0.2c-0.2,0-0.3-0.1-0.5-0.1l0,0c0,0.1,0,0.1,0,0.2l0,0h-0.1h-0.2v-0.1l0,0c0-0.2,0.1-0.3,0.1-0.5l0.1-0.4
				c0-0.1,0-0.2,0-0.3c0-0.3,0.2-0.5,0.4-0.6c0.1,0,0.2,0,0.3,0c0.2,0,0.4,0.2,0.5,0.4s0.1,0.4,0.1,0.6c0,0.1,0,0.1-0.1,0.2l0,0l0,0
				h-0.1l0.4,0.1c0.2,0,0.3,0,0.5,0.1l0,0c0-0.1,0-0.1,0-0.2l0,0h0.1h0.2v0.1L948.6,49.2z M948.8,47.1h-0.2l0,0l0,0
				c0-0.1,0-0.1,0-0.2l0,0c-0.2,0-0.3,0-0.5,0h-0.9h-0.5l0,0c0,0.1,0,0.1,0,0.2l0,0l-0.1,0.1h-0.2V47l0,0c0-0.2,0-0.3,0-0.5
				s0-0.3,0-0.5l0,0v-0.1h0.2h0.1l0,0c0,0.1,0,0.1,0,0.2l0,0c0.2,0,0.3,0,0.5,0h0.9c0.2,0,0.3,0,0.5,0l0,0c0-0.1,0-0.1,0-0.2l0,0
				v-0.1h0.2h0.1l0,0c0,0.2,0,0.3,0,0.5C948.9,46.7,948.9,46.8,948.8,47.1L948.8,47.1L948.8,47.1z M948.8,44.6h-0.2l0,0l0,0
				c0-0.1,0-0.1,0-0.2l0,0c-0.2,0-0.3,0-0.5,0h-0.9h-0.5l0,0c0,0,0,0.1,0,0.2l0,0v0.1h-0.2l-0.1-0.1V44c0-0.1,0-0.2,0-0.3
				s0-0.3,0-0.4c0-0.1,0-0.3,0-0.5c0-0.1,0.1-0.2,0.3-0.3c0.1,0,0.1,0,0.2,0c0.3,0,0.6,0.2,0.7,0.5l0.2-0.1l0.4-0.3
				c0.1-0.1,0.3-0.2,0.4-0.3c0,0,0,0,0-0.1l0,0l0,0h0.2l0.1,0.1v0.1c0,0.1,0,0.2,0,0.3s0,0.2,0,0.3l0,0l0,0h-0.1l-0.7,0.4l-0.3,0.2
				l-0.1,0.1h0.4c0.2,0,0.3,0,0.5,0l0,0c0-0.1,0-0.1,0-0.2l0,0v-0.1h0.2h0.1l0,0c0,0.2,0,0.3,0,0.5
				C948.8,44.1,948.8,44.3,948.8,44.6L948.8,44.6L948.8,44.6z M948.8,40.9h-0.2l0,0l0,0c0,0,0-0.1,0-0.2l-0.2-0.1l-0.5-0.2l-1.1-0.4
				l-0.4-0.1l0,0v-0.3l2.1-1c0,0,0.1,0,0.1-0.1v-0.1l0,0h0.1h0.2h0.1l0,0c0,0.1,0,0.3,0,0.4c0,0.1,0,0.4,0,0.6l0,0h-0.1h-0.2l0,0
				v-0.2l0,0h-0.1l-0.3,0.1v0.4c0,0.1,0,0.2,0,0.3l0.2,0.1l0.3,0.1l0,0c0,0,0-0.1,0-0.2l0,0l0,0h0.2l0.1,0.1l0,0c0,0.1,0,0.3,0,0.4
				s0,0.2,0,0.3l0,0L948.8,40.9z"/>
			<path class="st0" d="M947.8,39.6l-0.6,0.3l0.7,0.2c0-0.1,0-0.2,0-0.3L947.8,39.6z"/>
			<path class="st0" d="M947.5,43.6L947.5,43.6c0-0.1,0-0.2,0-0.2c0-0.1-0.1-0.1-0.1-0.1c-0.1,0-0.2-0.1-0.3-0.1s-0.3,0.1-0.3,0.2
				c0,0.1,0,0.2,0,0.3v0.1c0.2,0,0.3,0,0.5,0h0.4h-0.1L947.5,43.6z"/>
			<path class="st1" d="M957.2,36.1h1.4v3.2c0,0.3,0,0.6,0,0.9c0,0.2,0.1,0.4,0.3,0.5s0.4,0.2,0.7,0.2c0.2,0,0.5-0.1,0.7-0.2
				c0.1-0.1,0.2-0.2,0.2-0.4c0-0.3,0-0.6,0-0.9v-3.3h1.4v3.1c0,0.5,0,1-0.1,1.5c-0.1,0.3-0.2,0.5-0.4,0.8c-0.2,0.2-0.4,0.4-0.7,0.5
				c-0.4,0.1-0.8,0.2-1.1,0.2c-0.4,0-0.9,0-1.3-0.2c-0.3-0.1-0.5-0.3-0.7-0.5s-0.3-0.4-0.3-0.7c-0.1-0.5-0.1-1-0.1-1.5L957.2,36.1
				L957.2,36.1z M966.3,39.6v-3.5h1.3V42h-1.3l-2.1-3.4V42h-1.3v-5.9h1.3L966.3,39.6z M968.5,42.1v-6h1.4V42L968.5,42.1z M973,40.1
				l1.3-3.9h1.5l-2.1,5.9h-1.4l-2.1-5.9h1.5L973,40.1z M977.4,37.4v1h2.8v1.2h-2.8v1.3h3.2v1.2H976v-6h4.5v1.2L977.4,37.4z
				 M984.9,39.5c0.1,0.1,0.3,0.2,0.4,0.3c0.2,0.3,0.5,0.6,0.7,0.9l0.8,1.3h-1.7l-0.9-1.3c-0.2-0.3-0.4-0.6-0.6-0.8
				c-0.1-0.1-0.2-0.2-0.3-0.2c-0.2,0-0.4-0.1-0.5,0h-0.1v2.4h-1.4v-6h2.5c0.5,0,0.9,0,1.4,0.2c0.3,0.1,0.6,0.3,0.7,0.6
				c0.2,0.3,0.3,0.6,0.3,1s-0.1,0.8-0.4,1.1C985.5,39.2,985.2,39.4,984.9,39.5L984.9,39.5z M982.7,38.5h0.7c0.3,0,0.7,0,1-0.1
				c0.1,0,0.2-0.1,0.3-0.2c0.1-0.1,0.1-0.2,0.1-0.3c0-0.3-0.2-0.5-0.4-0.5l0,0l0,0c-0.3,0-0.5,0-0.8,0h-0.8L982.7,38.5L982.7,38.5z
				 M986.7,39.9L986.7,39.9c0,0.7,0.3,1.2,0.7,1.6c0.5,0.4,1.1,0.6,1.7,0.5c0.4,0,0.9-0.1,1.3-0.2c0.3-0.1,0.6-0.4,0.8-0.7
				s0.3-0.6,0.3-1c0-0.3-0.1-0.7-0.2-1c-0.2-0.3-0.4-0.5-0.7-0.6c-0.4-0.2-0.8-0.3-1.3-0.4c-0.4-0.1-0.7-0.2-1-0.4
				c-0.1-0.1-0.1-0.1-0.1-0.2c0-0.1,0-0.2,0.1-0.3c0.2-0.1,0.5-0.2,0.7-0.2s0.4,0,0.6,0.2c0.2,0.1,0.3,0.3,0.3,0.5V38l1.4-0.1v-0.1
				c0-0.5-0.2-1-0.6-1.3c-0.5-0.4-1.1-0.5-1.7-0.5c-0.4,0-0.8,0.1-1.2,0.2c-0.3,0.1-0.6,0.3-0.8,0.6s-0.3,0.6-0.3,0.9
				c0,0.5,0.2,0.9,0.6,1.2c0.4,0.3,0.9,0.5,1.3,0.6c0.3,0.1,0.6,0.1,0.9,0.2c0.1,0,0.3,0.1,0.3,0.2c0.1,0.1,0.1,0.2,0.1,0.3
				c0,0.2-0.1,0.3-0.2,0.5c-0.2,0.2-0.5,0.2-0.8,0.2s-0.5-0.1-0.7-0.2c-0.2-0.2-0.3-0.5-0.4-0.7v-0.1L986.7,39.9L986.7,39.9z
				 M992.2,42v-5.9h1.4V42H992.2z M994.4,36.1h2.2c0.4,0,0.7,0,1.1,0.1c0.3,0.1,0.7,0.3,0.9,0.5c0.3,0.3,0.5,0.6,0.6,1
				s0.2,0.9,0.2,1.4c0,0.4-0.1,0.8-0.2,1.2c-0.1,0.4-0.3,0.8-0.6,1c-0.2,0.2-0.5,0.4-0.8,0.5s-0.7,0.1-1,0.1h-2.3L994.4,36.1
				L994.4,36.1z M995.8,37.3v3.5h0.7c0.2,0,0.4,0,0.7,0c0.2,0,0.3-0.1,0.4-0.2c0.1-0.1,0.2-0.3,0.3-0.5c0.1-0.3,0.1-0.7,0.1-1
				s0-0.7-0.1-1c0-0.2-0.1-0.4-0.3-0.5c-0.1-0.1-0.3-0.2-0.5-0.2c-0.3,0-0.6-0.1-0.9,0L995.8,37.3z M1003.6,40.7h-2.1L1001,42h-1.5
				l2.3-5.9h1.4l2.4,5.9h-1.6L1003.6,40.7z M1003.1,39.5l-0.6-1.6l-0.6,1.6H1003.1z M1005.9,36.1h2.2c0.4,0,0.7,0,1.1,0.1
				c0.3,0.1,0.7,0.3,0.9,0.5c0.3,0.3,0.5,0.6,0.6,1s0.2,0.9,0.2,1.4c0,0.4-0.1,0.8-0.2,1.2c-0.1,0.4-0.3,0.8-0.6,1
				c-0.2,0.2-0.5,0.4-0.8,0.5s-0.7,0.1-1,0.1h-2.3L1005.9,36.1L1005.9,36.1z M1007.3,37.3v3.5h0.7c0.2,0,0.4,0,0.7,0
				c0.1,0,0.3-0.1,0.4-0.2c0.1-0.1,0.2-0.3,0.3-0.5c0.1-0.3,0.1-0.7,0.1-1s0-0.7-0.1-1c-0.1-0.2-0.2-0.4-0.3-0.5s-0.3-0.2-0.5-0.2
				c-0.3,0-0.6-0.1-0.9,0L1007.3,37.3z M1015.2,39.9V42h-1.4v-5.9h2c0.5,0,0.9,0,1.4,0.1c0.4,0.1,0.7,0.3,0.9,0.6s0.4,0.8,0.3,1.2
				c0,0.3-0.1,0.6-0.2,0.9c-0.1,0.2-0.3,0.4-0.5,0.6c-0.2,0.1-0.4,0.2-0.6,0.3c-0.4,0.1-0.8,0.1-1.2,0.1L1015.2,39.9z M1015.2,37.3
				v1.3h0.5c0.3,0,0.6,0,0.8-0.1c0.1,0,0.2-0.1,0.3-0.2c0.1-0.1,0.1-0.2,0.1-0.4s0-0.3-0.2-0.4c-0.1-0.1-0.2-0.2-0.4-0.2
				c-0.3,0-0.5,0-0.8,0L1015.2,37.3z M1020.4,37.3v1h2.8v1.2h-2.8v1.3h3.2V42h-4.6v-5.9h4.5v1.2H1020.4z M1027.9,39.5
				c0.1,0.1,0.3,0.2,0.4,0.3c0.2,0.3,0.5,0.6,0.7,0.9l0.8,1.3h-1.7l-0.9-1.3c-0.2-0.3-0.4-0.6-0.6-0.8c-0.1-0.1-0.2-0.2-0.3-0.2
				c-0.2,0-0.4-0.1-0.5,0h-0.1V42h-1.4v-5.9h2.5c0.5,0,0.9,0,1.4,0.2c0.3,0.1,0.6,0.3,0.7,0.6c0.2,0.3,0.3,0.6,0.3,1
				s-0.1,0.8-0.4,1.1C1028.5,39.2,1028.2,39.4,1027.9,39.5L1027.9,39.5z M1025.7,38.5h0.7c0.3,0,0.7,0,1-0.1c0.1,0,0.2-0.1,0.3-0.2
				c0.1-0.1,0.1-0.2,0.1-0.3c0-0.3-0.2-0.5-0.5-0.5l0,0l0,0c-0.3,0-0.5,0-0.8,0h-0.8L1025.7,38.5L1025.7,38.5z M1030,36.1h1.4v3.2
				c0,0.3,0,0.6,0,0.9c0,0.2,0.1,0.4,0.3,0.5c0.2,0.1,0.4,0.2,0.7,0.2c0.2,0,0.5,0,0.7-0.2c0.1-0.1,0.2-0.2,0.3-0.4
				c0-0.3,0.1-0.6,0.1-0.9v-3.3h1.4v3.1c0,0.5,0,1-0.1,1.5c-0.1,0.3-0.2,0.5-0.4,0.8c-0.2,0.2-0.4,0.4-0.7,0.5
				c-0.4,0.1-0.8,0.2-1.1,0.2c-0.4,0-0.9,0-1.3-0.2c-0.3-0.1-0.5-0.3-0.7-0.5s-0.3-0.4-0.3-0.7c-0.1-0.5-0.1-1-0.1-1.5L1030,36.1
				L1030,36.1z M1039.1,40.7h-2.1l-0.5,1.3h-1.5l2.3-5.9h1.4l2.4,5.9h-1.5L1039.1,40.7L1039.1,40.7z M1038.6,39.5l-0.6-1.6l-0.6,1.6
				H1038.6z M1044.8,39.5v-3.4h1.3V42h-1.3l-2.1-3.4V42h-1.3v-5.9h1.3L1044.8,39.5L1044.8,39.5z M1050.5,40.7h-2.1L1048,42h-1.5
				l2.3-5.9h1.4l2.4,5.9h-1.5L1050.5,40.7L1050.5,40.7z M1050,39.5l-0.6-1.6l-0.6,1.6H1050z"/>
			<path class="st1" d="M963.2,51.2l2,0.6V52c-0.2,0.9-0.7,1.7-1.4,2.2c-1.7,1.1-4,0.9-5.5-0.5c-0.8-0.9-1.2-2.2-1.2-3.4
				c-0.1-1.3,0.4-2.6,1.2-3.5c0.8-0.8,1.9-1.3,3.1-1.3c1,0,2,0.3,2.7,1c0.5,0.5,0.8,1.1,1,1.7v0.1l-2,0.5v-0.1
				c-0.2-0.8-0.9-1.4-1.8-1.4c-0.6,0-1.1,0.2-1.5,0.7c-0.4,0.7-0.6,1.4-0.6,2.2c-0.1,0.8,0.1,1.6,0.6,2.3c0.4,0.4,0.9,0.7,1.5,0.7
				c0.4,0,0.8-0.1,1.2-0.4c0.4-0.4,0.6-0.8,0.7-1.4V51.2L963.2,51.2z M971.8,52.8h-3.4l-0.7,2h-2.2l3.6-9.2h2.1l3.7,9.2h-2.2
				L971.8,52.8z M971.1,51l-1-2.8l-1,2.8H971.1z M976.6,50.9v3.8h2V51l3.4-5.4h-2.4l-2,3.4l-2-3.4h-2.4L976.6,50.9L976.6,50.9z
				 M984.6,47.4v1.7h4.5v1.8h-4.5V53h5v1.8h-7v-9.2h6.8v1.8L984.6,47.4z M992.9,47.4h-2.6v-1.8h7.3v1.8H995v7.4h-2L992.9,47.4
				L992.9,47.4z M1002.9,52.8l0.8,2h2.2l-3.7-9.2h-2.1l-3.6,9.2h2.2l0.7-2H1002.9z M1002.2,51h-2l1-2.8L1002.2,51z M1011.9,51.2
				v-5.7h1.9v9.2h-2l-3.4-5.5v5.5h-1.9v-9.2h2L1011.9,51.2L1011.9,51.2z M1015.1,50.2c0-0.8,0.1-1.6,0.4-2.3
				c0.2-0.5,0.5-0.9,0.8-1.3c0.3-0.4,0.7-0.6,1.2-0.8c0.6-0.3,1.3-0.4,2-0.4c1.2,0,2.4,0.4,3.2,1.3c0.8,1,1.3,2.2,1.2,3.5
				c0.1,1.3-0.4,2.5-1.2,3.5c-0.9,0.9-2,1.3-3.2,1.3c-1.2,0.1-2.4-0.4-3.3-1.3C1015.5,52.7,1015,51.5,1015.1,50.2L1015.1,50.2z
				 M1017.2,50.2c-0.1,0.8,0.2,1.6,0.7,2.2c0.4,0.5,1,0.7,1.7,0.7c0.6,0,1.2-0.2,1.7-0.7c0.5-0.6,0.7-1.4,0.7-2.2
				c0.1-0.8-0.2-1.6-0.6-2.2c-0.9-0.9-2.4-0.9-3.3,0l0,0l0,0C1017.4,48.6,1017.2,49.4,1017.2,50.2L1017.2,50.2z M1030.6,49.1h3.3
				v-3.5h2.1v9.2h-2.1v-3.9h-3.3v3.9h-2.1v-9.2h2.1V49.1z M1039.6,47.4v1.7h4.5v1.8h-4.5V53h5v1.8h-7v-9.2h6.8v1.8L1039.6,47.4z
				 M1051.3,50.8c0.3,0.2,0.5,0.4,0.7,0.6c0.4,0.5,0.7,0.9,1,1.5l1.2,1.9h-2.5l-1.3-2l-0.6-0.8c-0.1-0.2-0.2-0.3-0.4-0.5
				c-0.1-0.1-0.3-0.3-0.5-0.3c-0.3-0.1-0.6-0.1-0.9-0.1h-0.2v3.7h-2.1v-9.2h3.9c0.7,0,1.4,0.1,2.1,0.3c0.5,0.2,0.8,0.5,1.1,0.9
				c0.3,0.4,0.4,1,0.4,1.5c0,0.6-0.2,1.3-0.6,1.7C1052.3,50.4,1051.8,50.7,1051.3,50.8L1051.3,50.8z M1047.9,49.4h1.2
				c0.5,0,1.1,0,1.6-0.1c0.2-0.1,0.3-0.2,0.4-0.3c0.1-0.2,0.2-0.4,0.2-0.6c0-0.5-0.3-0.9-0.8-0.9l0,0c-0.1,0-0.3,0-0.4,0h-2.1
				L1047.9,49.4L1047.9,49.4z M1056.9,47.4v1.7h4.5v1.8h-4.5V53h5v1.8h-7v-9.2h6.8v1.8L1056.9,47.4z M1063.1,45.6h3.4
				c0.6,0,1.2,0,1.7,0.2s1,0.4,1.4,0.8c0.4,0.4,0.7,0.9,0.9,1.5c0.2,0.7,0.3,1.4,0.3,2.2c0,0.7-0.1,1.3-0.3,1.9
				c-0.2,0.6-0.5,1.2-1,1.6c-0.4,0.3-0.8,0.6-1.3,0.7c-0.5,0.1-1.1,0.2-1.6,0.2h-3.5V45.6L1063.1,45.6z M1065.1,47.4V53h1.2
				c0.3,0,0.7,0,1-0.1c0.2-0.1,0.5-0.2,0.7-0.3c0.2-0.2,0.4-0.5,0.4-0.8c0.1-0.5,0.2-1.1,0.2-1.6s0-1-0.2-1.5
				c-0.1-0.3-0.3-0.6-0.5-0.8s-0.5-0.3-0.8-0.4c-0.5-0.1-1-0.1-1.4-0.1C1065.7,47.4,1065.1,47.4,1065.1,47.4z M1072,54.8v-9.2h2v9.2
				H1072z M1080.8,52.8h-3.4l-0.7,2h-2.2l3.6-9.2h2.1l3.7,9.2h-2.2L1080.8,52.8L1080.8,52.8z M1080.2,51l-1-2.8l-1,2.8H1080.2z"/>
		</g>
	</g>
	<text transform="matrix(1 0 0 1 667.2989 97.4167)" class="st0 st2 st3">© Copyright ©2020 Thani Nampi - Fundamentos de Biodiseño. Todos los derechos reservados.</text>
</g>
</svg>
