<svg xmlns="http://www.w3.org/2000/svg" viewBox="0 0 411.3 104.84"><defs><style>.cls-1{fill:#7313aa;}</style></defs><g id="Layer_2" data-name="Layer 2"><g id="txto"><path class="cls-1" d="M77,0V20.74H51v84.1H26.12V20.74H0V0Z"/><path class="cls-1" d="M168.44,0V104.84H144.32V61.6H111.6v43.24H87.48V0H111.6V40.86h32.72V0Z"/><path class="cls-1" d="M241,0l32.82,104.84h-26.4L241,83.26H207.07l-6.58,21.58H179L212.56,0ZM213,63.9h22.21l-11-36.79Z"/><path class="cls-1" d="M365.76,0V104.84h-21L303.77,34c.05,1.79.11,3,.16,3.53a41.92,41.92,0,0,1,.3,4.53v62.75H285.11V0h26.47l35.66,61.83c-.3-3.07-.46-5.4-.46-7V0Z"/><path class="cls-1" d="M411.3,0V104.84H386.8V0Z"/></g></g></svg>