<svg xmlns="http://www.w3.org/2000/svg" viewBox="0 0 308.35 656"><defs><style>.cls-1{fill:#fff;opacity:0.6;}</style></defs><g id="Layer_2" data-name="Layer 2"><g id="Tumi"><path d="M162.33,322.46c-1.36-.34-2.75.09-4.07-.43-.58-.23-1.24-.35-1.06-1.12.14-.61.5-1.32,1.28-1.27,4.18.26,8.08-1.75,12.26-1.47,1.24.09,2.5,0,2.67,1.64s-1.16,1.9-2.34,2.05-2.6.17-3.9.24-1.84.84-1.58,2.19c.87,4.7.61,9.46.83,14.19.46,10,1.07,20,1.36,30,.11,3.91.27,7.82.25,11.73-.06,8.55.49,17.08.46,25.63,0,6.45.41,12.9.71,19.35.1,2.12.46,4.22.61,6.34.06.83.43,1,1.13.94a19.35,19.35,0,0,0,4.41-.48,3.82,3.82,0,0,1,3.41.39,2.07,2.07,0,0,1,1,2.12,2.11,2.11,0,0,1-1.66,1.67,8,8,0,0,1-2.29.09c-3.76,0-7.51.49-11.27-.08a9,9,0,0,0-3.92.37c1.17.4,2.09.69,3,1s2,.51,2.21,2c.13.92,1.34,1.57,1.89,2.51,2.26,3.82,2.95,8.12,3.43,12.38.53,4.69,1.44,9.38,1.07,14.14a50,50,0,0,1-1.74,10.1,8.47,8.47,0,0,1-6.42,6c-1.22.32-1.3.59-.79,1.86a58.92,58.92,0,0,1,3,12c0,.15.09.3.25.84a48.36,48.36,0,0,1,2.32-7.56,10.53,10.53,0,0,1,3.22-5,7.16,7.16,0,0,1,10.6,2.07c.36.66.78,1.59-.15,2s-1.06-.49-1.17-1.25c0-.26-.43-.54-.72-.71-3.51-2-6.26-1.39-8.24,2.83a28.29,28.29,0,0,0-2.59,10.6A47.08,47.08,0,0,0,173,521.5a19.48,19.48,0,0,0,6,8.19c2.22,1.84,3.71,1.27,4.81-1.42,3.05-7.47,2.51-15.17,1.83-22.92-.36-4.13-1.37-8.12-2-12.19a15.24,15.24,0,0,1,.19-3.49.8.8,0,0,1,.74-.66,1.06,1.06,0,0,1,1.11.74,25.43,25.43,0,0,1,1.38,3.64,84.61,84.61,0,0,1,2.63,26.37,29.59,29.59,0,0,1-2.4,10.49,10.06,10.06,0,0,1-2.77,3.64,3.49,3.49,0,0,1-3.14.72c-5.71-1.22-8.83-5.37-11.55-10-.36-.62-.38-1.45-1.14-1.93-.24,3,.63,5.84.78,8.73.06,1,0,1.83-1.12,2.08a1.61,1.61,0,0,1-2.07-1.42,66.59,66.59,0,0,1-1.61-10.47c-.27-4.79-.78-9.55-1.39-14.3-.64-5-1.34-10-1.92-15a29.07,29.07,0,0,0-.6-2.86,11.24,11.24,0,0,0-1.3,3.68,38.07,38.07,0,0,0-1.12,8.38q-.53,12.49-1,25c0,1.07,0,2.14,0,3.21s-.28,1.92-1.38,2.19a2,2,0,0,1-2.37-1.39,78.47,78.47,0,0,1-4.37-11.77,42.66,42.66,0,0,0-1.86-5.34c-2.22-5.42-3-11.29-5.32-16.67a34.89,34.89,0,0,0-2.33-4.92c.44,2.78.84,5.56,1.34,8.33a166.88,166.88,0,0,1,2.7,17.68c.3,3.94,1.06,7.85,1.56,11.77a35.56,35.56,0,0,1,.21,3.73,1.67,1.67,0,0,1-1.39,1.8,1.87,1.87,0,0,1-2.16-1.14c-.95-1.63-.66-3.46-1-5.18-1.34-7.64-1.36-15.43-2.56-23.08a148.43,148.43,0,0,1-1.62-16.94,31.33,31.33,0,0,1,.24-3.19c0-.55,0-1.1.68-1.27s1,.36,1.16,1c.48-.55.48-1.55,1.38-1.26.71.24.65.87.35,1.49-.2.42.25.62.4.91a109,109,0,0,1,8,19.62c1.24,4.06,3.34,7.8,4.39,11.93a10.79,10.79,0,0,0,.94,2.27c.14-3.15.11-6.31.53-9.43.95-7.13.19-14.46,2.42-21.45.51-1.61.7-3.37,2.84-4.19-5.46-1.68-7.3-5.91-8.43-10.54a77.34,77.34,0,0,1-2.24-19.49c.09-5.95,2.44-11,5.3-15.95.78-1.35,2.27-1.81,3.55-2.54-.07-.1-.12-.23-.18-.23-1.22-.1-2.57-.24-2.5-1.85s1.47-1.44,2.56-1.64a30.91,30.91,0,0,1,6.73-.39c1,0,1.42-.3,1.25-1.34a200.09,200.09,0,0,1-1.9-21.74c-.33-6.34-.08-12.67-.56-19-.4-5.34.22-10.81-.08-16.2-.5-8.88.3-17.78-.84-26.66a98.7,98.7,0,0,1-.26-17.95c.05-.93.26-1.9-.9-2.61a1.61,1.61,0,0,1-.32-2.35A4.82,4.82,0,0,0,162.33,322.46ZM152.71,457a36.1,36.1,0,0,0,.25,4.78c.56,3.08,1,6.18,1.65,9.22s1.18,6.25,3.44,8.79a5.24,5.24,0,0,0,9-1.63,29.8,29.8,0,0,0,1.77-9.69,72.18,72.18,0,0,0-.77-13.63c-.64-3.91-1.21-7.93-3.34-11.44-.61-1-1.36-1.94-1.23-3.23.05-.46-.16-.73-.66-.87a5.26,5.26,0,0,0-6.31,2.66C154,446.62,152.3,451.53,152.71,457Z"/><path d="M86.87,421.72C89.05,405,88.74,388,88.69,371c0-14.14-.18-28.28,0-42.42A63.16,63.16,0,0,1,90.09,318c.35-2,1.91-2.49,3.61-1.35a1,1,0,0,0,1.35,0c1.55-.83,2.94-.15,3.1,1.57.43,4.54.91,9.08,1.17,13.64.48,8.64.77,17.27,1.56,25.9.78,8.37,1.77,16.73,2.11,25.15.26,6.42,0,12.82.21,19.22.19,7.33.44,14.65,2,21.88a79.83,79.83,0,0,1,1.06,10.4c.08,1.05-.23,2.11-1.43,2.34-1.55.3-2.17-.95-2.47-2.06-.55-2-.81-4.17-1.21-6.26-2.28-11.92-1.75-24-1.83-36-.06-8.53-.69-17-1.56-25.52-.53-5.17-1-10.36-1.3-15.57-.47-9.65-.7-19.32-1.8-28.93a3.5,3.5,0,0,0-.48-1.34,44.08,44.08,0,0,0-1.48,9.8q-.15,33.86-.24,67.71a108.92,108.92,0,0,1-1.13,13.63c-.56,4.34,0,8.67-.29,13-.19,2.95-.37,5.9-.6,8.85a2.28,2.28,0,0,1-2.3,2.43c-1.61.12-2.3-.93-2.62-2.15-1.05-3.93-2.18-7.86-2.89-11.86-.92-5.18-1.37-10.44-2.19-15.64s-1-10.49-1.4-15.74c-.65-7.56-1.18-15.13-1.71-22.69-.42-6-.7-12.08-1.16-18.1-.76-10.1.45-20.17.33-30.26,0-.53,0-1.07,0-2.11-1.09,2.51-1.07,4.74-1.45,6.88a133.82,133.82,0,0,0-2.23,14c-.43,6-2,11.76-2.54,17.71-.72,7.81-.56,15.63-1.06,23.43-.93,14.76-.91,29.52-1.08,44.3,0,3.37.64,6.72.14,10.09-.13.86-.11,1.76-1.3,1.7-1,0-1-.86-1.17-1.66-2.3-11.58-1.25-23.3-1.32-34.95,0-6.16.58-12.31.9-18.47,0-.53.11-1.07.09-1.6-.22-6.17.28-12.34.46-18.5a146.9,146.9,0,0,1,1.75-15.16c.86-6.27,1.71-12.55,2.8-18.79.9-5.17,1.35-10.44,2.91-15.49.31-1,.43-2.18,1.7-2.48,1.12-.26,1.7.72,2.53,1.15,2.22,1.16,1.94,3,2,4.87.13,5.17.42,10.34.31,15.5-.1,4.74-.48,9.49-.24,14.24.32,6.27.82,12.53,1.2,18.8.36,6,1,12.05,1.28,18.09.24,5.21.87,10.4,1.21,15.6.44,6.86,2,13.57,2.69,20.41A41.27,41.27,0,0,0,86.87,421.72Z"/><path d="M213.23,482.45c-3.91-7.32-5.31-15.14-5.48-23.25-.11-5.28-.2-10.55,2.09-15.51.71-1.55,1.43-3.09,2.18-4.62.37-.75.92-1.3,1.83-.84a1.31,1.31,0,0,1,.56,2.07c-4.16,7.05-3.83,14.83-3.1,22.47A41.43,41.43,0,0,0,215.23,478a12.88,12.88,0,0,0,3.05,3.9,4.29,4.29,0,0,0,4.7.43c3.34-1.71,5.65-4.28,5.48-8.5-.18-4.45.26-8.93-.13-13.36A49.16,49.16,0,0,0,225.45,447c-1.06-2.79-2.87-5-4.47-7.45-.41-.62-1-1.29-.17-1.8s1.35.12,1.58.89c.38,1.28,1.84.93,2.6,1.92a31.84,31.84,0,0,1,5.43,11.16c2,7.2,1.34,14.58,1.44,21.91.07,4.37-1.26,7.82-5.09,10.45a10.37,10.37,0,0,1-6.15,2.13c.86,1,1.91,1.51,1.39,2.73a2.56,2.56,0,0,1-2.65,1.69c-.71,0-1.17.09-1,1,1.73,9.09,1.39,18.3,1.71,27.48.15,4.19,1,8.32,1.15,12.52.05,1.69,1.65,2.12,2.9,1.92,2.39-.38,4.85-.23,7.19-.94a2.12,2.12,0,0,1,2.44.46c.93,1.05.82,1.67-.49,2.24a9.66,9.66,0,0,1-4.64,1,26.17,26.17,0,0,0-4.42.34c-.83.08-.9.48-.91,1.15,0,2.52,1,4.84,1.27,7.31.69,7,2,13.92,2.41,21,.26,4.65.86,9.31,1.46,13.94.3,2.36.34,4.73.45,7.08a114.52,114.52,0,0,0,2.1,15.45c.23,1.21.4,2.44.61,3.66.16.87.53,1.14,1.25.41,1.11-1.13,2.67-1.72,3.62-3.07a.8.8,0,0,1,1.24-.22c.53.43.52.86.35,1.54-.58,2.41-2.49,3.83-4,5.57a16.16,16.16,0,0,0-1.9,2.54,19.66,19.66,0,0,1-5.79,6.18,4.24,4.24,0,0,1-1.92.84,1.83,1.83,0,0,1-2.14-1.19c-.3-.9.26-1.44,1-1.83,2.16-1.12,3.57-3.06,5.22-4.75,1.07-1.1.37-2.18.15-3.39-.86-4.69-2.13-9.3-2.91-14a184.15,184.15,0,0,1-2.11-23.52c-.26-7.27-1.93-14.32-2.25-21.53-.17-3.91-1-7.77-.9-11.68,0-1.15-.47-1-1.3-.91-1.22.19-2.82.78-2.39-1.63.11-.6-.63-.57-1-.85-.95-.81-.86-1.55.35-1.81,1-.21.86-.64.79-1.37-.73-7.42-1.46-14.86-1-22.32.36-5.65-.2-11.25-.47-16.87-.06-1.25-.58-1.79-1.88-1.68a4.56,4.56,0,0,1-2.62-.28c-1.18-.63-1.44-.12-1.23,1,.35,2,.72,3.94,1,5.93.41,3.52.66,7.05,1.1,10.56.63,5.16,1.52,10.29,2,15.45.33,3.6.17,7.24.18,10.85a2.09,2.09,0,0,1-1.46,2,2.16,2.16,0,0,1-2.55-.74,6.18,6.18,0,0,1-.89-1.33c-2.89-6.27-5.75-12.52-7.63-19.22-1.54-5.5-3.55-10.87-5.25-16.34a3.94,3.94,0,0,0-1.41-2.24,6.77,6.77,0,0,0-.08,1.57c1,5.13,1.09,10.35,2,15.49,1.06,5.87,1.73,11.81,2.54,17.72.16,1.2-.09,2.39-1.5,2.61s-1.78-.77-2-1.94a85.42,85.42,0,0,1-1.77-11c-.29-4.08-1.54-8-1.81-12.09-.34-5.09-.49-10.17-1.61-15.18a10.58,10.58,0,0,1,0-3.55c.22-1.67.79-1.7,2.23-1,3.56,1.81,5.38,5.17,6.74,8.45a154.06,154.06,0,0,1,6.46,18.15,68,68,0,0,0,3,8.31,4.45,4.45,0,0,0,1.37,2c.37-2.6-.17-5-.44-7.46-.69-6.21-2.33-12.29-2.36-18.6,0-2.51-1.33-4.86-1-7.49s1-3.24,3.67-3.82a41.47,41.47,0,0,0,7.94-2.07,10.62,10.62,0,0,1-3.28-2.33c-.43,1.75-1.75,2.18-3.19,2.26-3.08.18-6.16.26-9.24.37-1.21,0-1.8-.55-2.32-1.7-3.54-7.79-4.1-16.22-5.19-24.49-.81-6.08-1.26-12.22-2.22-18.29a14.78,14.78,0,0,1,0-2.49.93.93,0,0,1,.78-1c.6-.12.8.31,1,.77,1,2.19,1.08,4.58,1.64,6.86a128.3,128.3,0,0,1,2.51,16.43c.1.9.48,1.15,1.38.88,1.23-.37,2.51-.59,3.76-.92a2.57,2.57,0,0,1,1.73,0c.62.26,1.31.53,1.24,1.3s-.78,1-1.41,1.17c-1.5.31-3,.57-4.54.75-.94.11-1.4.16-1.2,1.45a103.89,103.89,0,0,0,3.17,15.2c.3.95.63,1,1.39,1C207.27,483.58,210.2,482.74,213.23,482.45Z"/><path d="M128,620.33c-.73,5.74-.9,11.48-1.33,17.2a64.1,64.1,0,0,1-1.07,7.55,4.35,4.35,0,0,1-4.54,3.47,28.86,28.86,0,0,1-7.16-1.09,7.73,7.73,0,0,1-4.68-3.33c-2.92-4.65-6.44-9-8.53-14.08a94.91,94.91,0,0,1-6-23.24c-.81-6-1.6-12.11-1.93-18.17-.34-6.48-.73-13,1.16-19.44,1-3.31.69-6.82,1.26-10.2,1-5.91,1.49-12,4.35-17.42a15.52,15.52,0,0,1,4.84-5.38c2.55-1.84,5.33-1.41,8.23.31,2.67,1.59,3.31,4.33,4.45,6.77,3.72,7.94,5.39,16.43,7,25,1.12,6.14,1.91,12.37,3.65,18.48a12.13,12.13,0,0,0,.56-6.15,218.55,218.55,0,0,1-.61-25.07,95,95,0,0,1,1.49-12.66,10.46,10.46,0,0,1,5.27-7.07,8,8,0,0,1,6.86-.24c1.53.56,1.5,2.22,2.35,3.27.3.37-1.28.88-2,.41a5.75,5.75,0,0,0-6.92,1.19c-2.87,2.94-2.53,6.68-2.75,10.17-.32,5.15-.24,10.33-.13,15.5.18,8.47.94,16.94.64,25.43-.25,7.35-.39,14.71-.49,22.06a86.84,86.84,0,0,0,2.9,22.8,37.45,37.45,0,0,0,5,12.2c2.08,3,4.79,4.45,8.34,3.58,1.67-.4,2.23-2,2.92-3.34a5.89,5.89,0,0,0,.4-1.16c.2-.68.63-1.08,1.31-.77s.44.9.17,1.37c-1,1.73-1.25,3.79-2.47,5.44a4.57,4.57,0,0,1-2.36,1.76,10.05,10.05,0,0,1-12.29-5.2,83.43,83.43,0,0,1-6.66-21.56C128.57,626,128.51,623.1,128,620.33ZM96.51,582.8c.14,2.14.3,4.26.42,6.4.29,5,1.14,9.87,1.57,14.82a102.58,102.58,0,0,0,5.22,23.45c1.42,4.29,4,8.1,6.3,12,2.43,4.11,5.81,5.59,10.25,5.65,1.33,0,2.16-.41,2.3-1.82.2-1.88.51-3.75.62-5.64.28-4.72.45-9.45.71-14.17.24-4.43.66-8.86.75-13.3.08-4.2-.13-8.41-.23-12.62-.17-7-1.92-13.78-2.8-20.68-.38-3-1.48-5.82-2-8.8a110.49,110.49,0,0,0-5.56-21.18c-.83-2.19-2.52-4.43-1.16-7.06.17-.31-.06-.54-.31-.72a6.28,6.28,0,0,0-7.85.52,13.29,13.29,0,0,0-4,7c-1.47,5.6-1.86,11.38-2.21,17.15a38.34,38.34,0,0,1-.77,6.87A44.09,44.09,0,0,0,96.51,582.8Z"/><path d="M187.09,216.15l1.21-.37a9.43,9.43,0,0,1,1,4.16,128.38,128.38,0,0,0,1.94,14.23c.65,3.77,1.77,7.46,2.51,11.22,1.81,9.27,3.45,18.57,5.32,27.83.91,4.57,2,9.12,3.33,13.57a37,37,0,0,1,1.48,13.67c-.19,2.43-.17,4.87-.21,7.3a3.84,3.84,0,0,1-1.84,3.6c-1.3.74-2.51.2-3.67-.51a10.47,10.47,0,0,1-3.29-3.17c-3.19-4.76-4.93-10.15-7-15.43A217.73,217.73,0,0,1,179.17,265a56.39,56.39,0,0,0-2.35-8.29c-.57.09-.47.52-.47.84,0,3.85.09,7.71.11,11.57,0,5.92.26,11.86-.48,17.75-.45,3.6-.06,7.22-.46,10.8a81.7,81.7,0,0,1-2.11,12,16.22,16.22,0,0,1-2.47,5.25,6.09,6.09,0,0,1-4.65,2.54c-5.14.62-9.14-1.32-12.25-5.22-1.93-2.42-2.84-5.41-3.92-8.29a57.47,57.47,0,0,1-3.62-24.2c.44-6.44.29-12.92.69-19.36.55-9,1.2-17.92,5-26.28a20,20,0,0,1,5.69-6.95,5.52,5.52,0,0,1,6.94.29c.13.12.24.3.4.35,3.76,1.3,6,4.13,7.77,7.57.15-2.38-.69-4.53-1.06-6.76a20.58,20.58,0,0,1-.55-3.67,1.37,1.37,0,0,1,1.19-1.51c.88-.11,1.33.56,1.46,1.27,1.38,7.22,3.21,14.34,4.46,21.6a116.92,116.92,0,0,0,3.87,15.79c1.63,5.11,3,10.3,4.65,15.41,1.51,4.71,3.36,9.32,4.78,14.06a63.8,63.8,0,0,0,6,13.74,4.78,4.78,0,0,0,.38.61c.58.74,1.26,1.94,2,1.75,1-.22.41-1.54.43-2.35.13-4.66.6-9.38-.92-13.9a145.26,145.26,0,0,1-4.1-16.12c-1.88-8.84-3.52-17.72-5.32-26.57-1.18-5.77-2.56-11.51-3.67-17.3-.8-4.17-1.46-8.39-.66-12.69A8.17,8.17,0,0,1,187.09,216.15Zm-14.34,45.1A83.78,83.78,0,0,0,170.54,241c-1-4.63-2.71-8.73-6.86-11.49-.54-.36-1.4-.38-1.62-.91-.83-2-1.69-.59-2.36,0A21.51,21.51,0,0,0,153,239.43a87.27,87.27,0,0,0-2.77,21.74c-.16,7-.08,14-.28,21a51.22,51.22,0,0,0,.81,10.43c.75,4.27,2.51,8.21,3.92,12.27a23.35,23.35,0,0,0,2.29,4.94c2.13,3.32,4.92,5.2,9.06,4.4a4.33,4.33,0,0,0,3-1.9c1.66-2.53,2.17-5.35,2.75-8.28,1.34-6.82,1-13.7,1.08-20.54C173.05,276.09,172.61,268.66,172.75,261.25Z"/><path d="M113.21,222.78c-.52-2.1-2.4-2.83-3.86-4-.56-.43-1.28-.67-1.21-1.56-1.84-1.22-3.63-2.5-5.52-3.63-2.84-1.72-4.72-4.58-7.56-6.28a2.88,2.88,0,0,0,.49,3,19.34,19.34,0,0,0,4.18,4.57c.82.69.83,1.19.33,2.21-2,4-4.57,7.88-5.85,12.26-2.08,7.13-5.18,13.89-7.5,20.93-.46,1.39-.59,2.88-1.11,4.24l0,0-1.34,4.59h0a5,5,0,0,1-.55,1.38c-.1.34.06,1.07-.4.91-.65-.22.18-.75.06-1.17.15-.43.2-.9.34-1.38h0l.73-2.34h0a7.41,7.41,0,0,0,.33-1.24,104.91,104.91,0,0,0,2.92-14.88c.41-4.11.67-8.29-1.53-12.11-.56-1-.46-1.35.81-1.46,3.3-.27,6.4-.94,8.45-4s2.15-6.09.15-9.61a7.6,7.6,0,0,0-8.17-4.2,2.46,2.46,0,0,1-.84-.23c-.38,1.17-.8,2.33-1.13,3.51-1.1,3.9-2.91,7.52-4.3,11.3A158.18,158.18,0,0,1,70.74,246c-2.69,5.89-5,11.95-7.66,17.86a145.84,145.84,0,0,0-7.77,22.92,5.16,5.16,0,0,0,0,2.81c.22.77.63,1.5,1.48,1.61s1.23-.5,1.66-1.12a6,6,0,0,0,1.13-2.2,117.11,117.11,0,0,1,4.32-14.57A84.65,84.65,0,0,1,67,264.68c3.46-7.56,6.68-15.24,9.49-23.05,1.8-5,3.77-9.89,6-14.87a32,32,0,0,1,1.6,7.5c.61,7-1.47,13.56-3.08,20.21-1.5,6.21-4,12.07-6.16,18-1.24,3.44-2.43,6.88-4,10.2a52.59,52.59,0,0,0-3.92,12.09c-.37,1.8.25,3.48,1.41,3.57,1.66.14,2.13-1.24,2.65-2.43a9.73,9.73,0,0,0,.48-1.7,49.81,49.81,0,0,1,2.31-8c1.92-4.63,3.56-9.36,5.25-14.08a39.24,39.24,0,0,1,3.13-7.63l.23-.58c.4.25.17.54,0,.82-.53,2.05-1.16,4.08-1.57,6.16-1.08,5.38-2,10.79-3.09,16.18-.94,4.88-1.82,9.76-2.31,14.71a4.6,4.6,0,0,0,1.26,3.71,18.53,18.53,0,0,0,9.72,5.87c2.45.63,4.64-.37,6.84-1.17a.88.88,0,0,0,.56-1.17.82.82,0,0,0-.86-.52c-3.74.29-7-1.16-10.09-3-2-1.17-3.29-2.76-2.87-5.37s.45-5.2.87-7.77c.83-5.13,1.85-10.24,2.73-15.36a80.76,80.76,0,0,1,3.14-12.52c.32-.95.57-1.05,1.43-.5a20.55,20.55,0,0,1,3.73,2.69,2.26,2.26,0,0,0,2.61.56,1.64,1.64,0,0,0,1-1.54,2.27,2.27,0,0,0-1.64-1.92,38.61,38.61,0,0,0-4.47-1.63c-1.4-.34-1.85-.88-1.39-2.3,1.9-5.87,3.33-11.87,5.43-17.7,2.77-7.74,5.39-15.55,8-23.36.34-1,.84-1.3,2-.78a17.33,17.33,0,0,1,5.89,4.14,15.89,15.89,0,0,0,2,2c.42.32,1,.68,1.61.15S113.36,223.4,113.21,222.78Zm-29.15-1.94c1-2.82,2-5.64,2.74-8.54.37-1.4,1-1.76,2.41-1.12A6.21,6.21,0,0,1,93,216.57c0,4.29-1.44,5.59-5.92,6-.53,0-1.06,0-1.59.06C83.39,222.87,83.33,222.86,84.06,220.84Z"/><path d="M128.45,275.14a24.89,24.89,0,0,0-1.32,5.88,48.84,48.84,0,0,1-2.82,11.47c-.77,2-1.17,4.06-1.83,6.08a56.63,56.63,0,0,1-7.75,14.59c-2.19,3.17-5.51,3.66-8.93,3.79-6.25.24-8.94-2.08-10.64-8.21C93,301,93.38,293.13,94.63,285.3c.82-5.18,1.73-10.37,3-15.46a85.19,85.19,0,0,1,4.77-14.42c1.33-3,2.34-6.15,3.44-9.25a92.93,92.93,0,0,1,7.88-16A15.57,15.57,0,0,1,118,226a5.49,5.49,0,0,1,8.32,1.72c1.86,3.08,2.45,6.55,3.21,10,.65,3,1.28,6,2,9,.6-5.21,2.55-9.95,4.85-14.57,1.37-2.74,3.45-4.48,6.65-4.51a4.49,4.49,0,0,1,3.46,2.68.66.66,0,0,1-.27.76c-.31.26-.63.17-1,0-2.85-1.09-4.51-.55-6,2.06a39.85,39.85,0,0,0-4.77,15.22c-.78,6.11-1.48,12.22-1.8,18.37-.47,9.06-1,18.15-.53,27.21.31,5.89,1.08,11.76,3.41,17.32a9.84,9.84,0,0,0,5.28,5.2c1.52.71,2.84.11,3.84-1.2.38-.49.68-1.3,1.5-.8s0,1.1-.13,1.65c-.66,2.33-1.92,4-4.51,4.37a2.86,2.86,0,0,1-1.22.07c-3.35-1.3-6.6-2.78-8.17-6.34a47.24,47.24,0,0,1-3.26-13.37,135,135,0,0,1-.64-18.31C128.29,280.13,128.87,277.8,128.45,275.14Zm-1.25-25.27a32.64,32.64,0,0,0-.37-8.05c-.78-4.37-.35-8.93-2.46-13.1-1-2-2.17-2.72-4-1.29a18.66,18.66,0,0,0-5.49,6.4A124.57,124.57,0,0,0,107.73,251c-2.86,8.56-6,17-7.65,25.93-1.41,7.87-3,15.69-2.28,23.77a27.88,27.88,0,0,0,2.55,10.24,4.18,4.18,0,0,0,1.4,1.55c1.84,1.36,8.65.58,10-1.3,1.65-2.22,3.52-4.23,4.76-6.8,2.9-5.94,4.37-12.32,5.93-18.65,1.49-6,2.21-12.19,3.59-18.23C127.37,261.72,127.35,255.84,127.2,249.87Z"/><path d="M228.75,348.87c.53,11.69.38,23.39.17,35.08-.13,7.08-.79,14.16-1.61,21.21-.59,5.11-.86,10.3-2.24,15.25a78.15,78.15,0,0,1-3,10.12,22.15,22.15,0,0,1-2.87,4.22,2.43,2.43,0,0,1-1.59.72,9.56,9.56,0,0,1-9.46-3.92c-5.16-7.76-7.85-16.46-10-25.41-1.47-6-2.43-12.05-3.41-18.11-.54-3.37-.41-6.85-.84-10.25-1.1-8.52-.74-17.07-.62-25.6a108.58,108.58,0,0,1,2.5-24,52.12,52.12,0,0,1,3.85-10.07c1.59-3.32,7.75-5.64,11.06-4.58,1.5.48,2.41,1.68,3.5,2.67.48.44.9,1,1.55,1.1,2.62.45,4.08,2.07,5.07,4.44,1.84,4.4,4.26,8.54,5.59,13.18A55.46,55.46,0,0,1,228.75,348.87Zm-3.89,20.94c0-7.24.11-14.49-.44-21.71A52.14,52.14,0,0,0,222,335.78c-1.34-4.14-3.57-7.84-5.39-11.74-1.46-3.13-3.27-6.13-7.08-7a1.39,1.39,0,0,1-.72-.5c-.75-1-1.64-.87-2.69-.52s-1.84.64-1.66,2a1.64,1.64,0,0,1-.56,1.07,10.83,10.83,0,0,0-2,3.49c-2.65,6-3.73,12.3-4.24,18.75-.68,8.59-.37,17.2-.48,25.81-.05,4.64.89,9.2,1.11,13.81a159.71,159.71,0,0,0,2.07,16.18c.79,5.39,2.65,10.53,3.91,15.81a51.27,51.27,0,0,0,7.54,16.32,3.62,3.62,0,0,0,3.83,1.61,3.3,3.3,0,0,0,2.48-2.48,97.73,97.73,0,0,0,3.47-12.61,158.37,158.37,0,0,0,2.23-18.44c.25-5.26,1.07-10.48,1-15.75C224.84,377.65,224.86,373.73,224.86,369.81Z"/><path d="M50.36,476c.29-2.37.66-4.73.87-7.1.8-9.19.87-18.44,2.14-27.59.23-1.64.49-3.26.71-4.89s1.06-2.81,2.63-2.93,2.61.92,3.15,2.41c1.54,4.28,2.28,8.77,3.37,13.17.19.73.31,1.49.5,2.45.78-1.36.71-2.7,1-3.94,1-4,2.16-8,4.92-11.22.68-.8,1.44-1.43,2.39-.62s.17,1.6-.37,2.3c-3.06,3.92-4.11,8.53-4.53,13.33-.56,6.47,1.49,12.48,3.34,18.51.45,1.47,1,2.91,1.36,4.39.81,3.17,3,5.33,5.34,7.34a2.83,2.83,0,0,0,4.35-.81c2.68-4,3-8.68,3.11-13.27a203.71,203.71,0,0,0-1-21.67,14.18,14.18,0,0,1,0-2.84,4.71,4.71,0,0,0-1.38-4.17c-.32-.33-1.09-.59-.49-1.24s1-.08,1.51.28c.22.17.38.49.89.37.3-.48,0-1.65,1-1.61s1,1,1.15,1.75c.77,2.81.76,5.74,1,8.6.63,6.72,1.27,13.48.66,20.22-.46,5.09-.7,10.24-3.25,14.95C82.73,486,78.45,487,75,484.25a21.08,21.08,0,0,1-7.37-12.56c-.31-1.44-.83-2.84-1.25-4.25l-.43.1c.32,3.6.53,7.2,1,10.78a50.53,50.53,0,0,0,1,7.55,1.56,1.56,0,0,1-1.2,2.06,1.66,1.66,0,0,1-2.11-1.15,31.79,31.79,0,0,1-2-8.58c-.72-6.35-1.2-12.73-1.76-19.1s-2-12.59-2.92-18.91a2.45,2.45,0,0,0-.81-1.32c-.19,1.44-.42,2.87-.54,4.31-.65,7.6-1.16,15.21-1.92,22.8-.5,5-1.38,9.92-2,14.89a22.4,22.4,0,0,0-.06,3.38c0,1.07,0,2.14-1.28,2.38s-2-.78-2.43-1.87a97,97,0,0,1-3.32-11.19c-1.42-5.78-2.87-11.55-4.08-17.38-.69-3.3-2.14-6.44-2.92-10-1.18,1.27-.26,2.4-.19,3.42.23,3.29.6,6.58,1,9.85.49,3.92,1.22,7.82,1.55,11.75.37,4.41,1.4,8.76,1.29,13.22,0,1.31-.29,2.66-1.94,2.63s-1.72-1.35-1.85-2.57c-.7-7.05-1.56-14.08-2.08-21.14-.56-7.73-1.22-15.48-.76-23.25a23.9,23.9,0,0,1,.36-2.64,1.51,1.51,0,0,1,1.6-1.36c.91,0,1,.7,1.14,1.48.53,3.21,1.86,6.19,3,9.21,3.42,9.25,5.67,18.82,8.06,28.36C49.79,475.48,49.72,475.89,50.36,476Z"/><path d="M218.29,244.38a1.47,1.47,0,0,1,1.06.83c1.8,2.71,4.6,4,7.31,5.53,2.72,4.7,5.41,9.42,8.17,14.09,3.19,5.4,6.45,10.74,8.69,16.64a17.65,17.65,0,0,1,1.11,7.48,6.18,6.18,0,0,1-3.52,5.05c-2.82,1.54-5.48,3.45-8.8,4a23.61,23.61,0,0,0-3.22.66c-1,.31-1.84-.7-2.05-1.79-1.24-6.57-4-12.69-5.8-19.07s-3.83-13-5.62-19.55c-1.38-5.07-3.05-10.05-4.67-15-1.36-4.21-1.06-8.68-2.15-12.93-1.26-4.91-1.91-9.94-2.83-14.92-.26-1.43-1.26-2.5-1.62-4.19-1.26,1.64-2.4,3-4.17,3.51-.56.17-.36.64-.3,1,.78,5.79,2.11,11.47,3.34,17.17.89,4.14,2.08,8.23,3.11,12.34,1.54,6.18,3.54,12.23,5,18.43,2.63,10.89,5.41,21.74,8.12,32.61a17.13,17.13,0,0,1,.64,4.78c.94-.28,1.7-.57,2.49-.72a1.9,1.9,0,0,1,2.22,1.07,1.94,1.94,0,0,1-.58,2.4,2,2,0,0,1-1,.68c-3.75.44-6.75,3.15-10.54,3.44-.47,0-.94.13-1.41.16-1,.07-1.84-.27-2-1.28s.71-1.4,1.47-1.71c1.73-.69,3.69-.68,5.35-1.66.71-.42,1.09-.68.63-1.71-1.39-3.16-1.64-6.63-2.38-10-1.27-5.76-2.94-11.41-4.53-17.09-2.8-10.06-5.52-20.15-8-30.29-1.51-6.25-2.68-12.58-3.74-18.93a45.17,45.17,0,0,1-.62-9.26c-1.32.5-2.45,1-3.59,1.37a2.76,2.76,0,0,1-1.92,0,.92.92,0,0,1-.73-.88.87.87,0,0,1,.62-.78c4-1.56,6.84-5.05,11-6.33,1.15-.36,1.79-2.09,3.39-1.31.46,4,.55,8.15,1.88,12a87.71,87.71,0,0,1,2.63,8.93c.61,2.62,2.26,4.7,3.37,7.06-.57.35-.61.68,0,1l0-.06a7.52,7.52,0,0,0,.63,4.23A172.18,172.18,0,0,1,220,258.63c1.05,4.67,2.87,9.11,3.89,13.8,1.45,6.69,3.86,13.12,5.6,19.73.71,2.71.73,2.71,3.45,1.74,1.33-.47,2.59-1.14,3.9-1.65,3.12-1.2,3.67-3.5,3.35-6.41a10.07,10.07,0,0,0-.83-2.7c-2.1-4.94-4.12-9.93-7-14.48-1.25-2-2.63-3.81-3.78-5.8-3.52-6.1-6.95-12.24-10.41-18.36Z"/><path d="M28,533.83c.51.23.56-.29.73-.5,2.1-2.62,3.54-3.11,6.64-2.14.72.22,1.29.64,1.83-.44.36-.72,1.18-.5,1.44.32,1.26,4,3.56,7.53,4.6,11.59a32,32,0,0,0,1.05,3.51,11.78,11.78,0,0,0,0-3.93,38.86,38.86,0,0,1-.12-8.35c.11-2.13.82-2.54,3-2,.58.14.85-.17,1.26-.35,5.7-2.46,10.14-1.41,13.87,3a6.65,6.65,0,0,1-.13,8.47,16.62,16.62,0,0,1-7.23,4.8c2.19,2.11,3.63,4.53,5.42,6.68,2.5,3,3.64,6.59,4.69,10.23,1.28,4.41,2.76,8.77,3.34,13.38.73,5.69,1.34,11.39,1.93,17.09.49,4.71.36,9.45,1,14.14.24,1.68-.4,3.37,0,5.11A1.46,1.46,0,0,1,70,616.19c-1.22.08-1.5-.93-1.63-1.76-.55-3.61-1-7.24-1.46-10.86-1.27-10.15-1.74-20.41-3.94-30.44a78.85,78.85,0,0,0-2.93-10.92c-1.52-4-4.33-7.3-6.94-10.65-.86-1.09-1.47-2.55-3.29-2.72-1.14-.11-1.34.14-1.21,1.14.41,3.29.79,6.59,1.18,9.88.79,6.58,1.61,13.17,2.37,19.75.33,2.89,1,5.71,1.6,8.54.21,1,.12,2,.26,3,.16,1.15-.09,2.11-1.35,2.29a2.13,2.13,0,0,1-2.36-1.75c-.6-2.22-1.15-4.46-1.56-6.72a229.28,229.28,0,0,1-2.55-23c-.07-1-.33-1.93-.52-3-.84.51-.54,1.16-.58,1.67-.24,3.3.05,6.57-.66,9.9-1.34,6.33-6.08,5.87-9.87,3s-6-7.16-7.61-11.74c-3.1-9-1.88-17.81.7-26.62a2.35,2.35,0,0,0,0-.65h0c.54,0,.69-.28.38-.75Zm13.23,27c0-3.71.27-6.35-.06-8.92-.8-6.1-3.06-11.83-4.84-17.68-.08-.27.1-.68-.48-.73a5.07,5.07,0,0,0-5.4,3.63,25.3,25.3,0,0,0-1.66,8.47c0,6.13.16,12.27,3.07,18a25.46,25.46,0,0,0,5.49,7.1c1.39,1.3,2.54.71,3.21-1.08C41.75,566.4,41.05,563.06,41.22,560.88ZM52.38,533c-.69,0-1.23,0-1.76,0-2.37.16-3.5,1.32-3.36,3.67.16,2.54.46,5.07.71,7.6,0,.46.11,1.18.64,1.09,1.26-.22,2.62.45,3.66.06,2.75-1,5.5-2.23,7.41-4.66a3.38,3.38,0,0,0,0-4.53C57.85,533.64,55.22,532.92,52.38,533Z"/><path d="M133.58,384c.32-7.49,0-15-.45-22.43a150,150,0,0,0-2.79-19.8,113.11,113.11,0,0,0-4-14.68,4.93,4.93,0,0,1-.25-1.2,1.59,1.59,0,0,1,1.19-1.92,1.65,1.65,0,0,1,1.92.93,34.1,34.1,0,0,1,4.94,13.7c.51,3.63,1.24,7.22,1.82,10.83,1,6.51,1.14,13.09,1.41,19.66.39,9.73.15,19.45.12,29.18,0,6.93-1.32,13.67-2.05,20.48A41.41,41.41,0,0,1,131.05,434a5.21,5.21,0,0,1-5.5,3c-7.24-.56-11.77-4.36-14.18-11.1-3-8.45-3.88-17.25-4.94-26.05-1-8.07-1.27-16.16-1.48-24.28-.19-7.78-.32-15.56-.13-23.33.14-5.72,1.28-11.38,2.17-17.05a61.3,61.3,0,0,1,3.42-11.49,9.46,9.46,0,0,1,2.46-3.85,1.38,1.38,0,0,1,2.06-.13,1.44,1.44,0,0,1,.2,2.07c-4.18,6.34-5.5,13.44-5.52,20.86,0,2.1-.57,4.1-.73,6.17a176,176,0,0,0-.17,23c.27,5.45-.06,10.91.49,16.36.92,9.25,1.9,18.48,3.58,27.63a62.06,62.06,0,0,0,3,10.52,10.53,10.53,0,0,0,9.64,6.38,2.19,2.19,0,0,0,2.1-1.29A32.48,32.48,0,0,0,131,420.42c1-6.54,1.88-13.1,2.27-19.73C133.63,395.11,133.37,389.54,133.58,384Z"/><path d="M185.45,593.34c-.6,7.33.38,14.77-.78,22-1,6.2-1.58,12.53-3.64,18.54-.53,1.56-.77,3.21-1.23,4.79-1.27,4.45-3.46,8.24-7.71,10.55a6,6,0,0,1-4.77.42c-4.76-1.31-6.88-5-8.43-9.21-3.07-8.38-4.37-17.12-5.38-25.93-.65-5.69-1.84-11.32-2.31-17-.5-6.07-1.73-12.1-1.3-18.24a37.5,37.5,0,0,0-.26-4.61,172.33,172.33,0,0,1-.28-18.46,42.2,42.2,0,0,1,2.85-14.31,9.39,9.39,0,0,1,11.13-5.1c1.25.38,2.61,1.36,4.09.38a.73.73,0,0,1,1,.45c.32,1.19,1.33,1.78,2.15,2.49,2.75,2.4,3.84,5.77,5.22,8.93,1.23,2.8,2.26,5.68,3.62,8.44,1.65,3.35,2,7.14,2.84,10.75a157.58,157.58,0,0,1,3.14,20.5C185.58,590.24,185.45,591.8,185.45,593.34Zm-4,.33c0-3.51-.44-7-.74-10.45-.61-7.09-2.46-13.93-3.92-20.86-.7-3.31-2.6-6.19-3.5-9.45a27.91,27.91,0,0,0-5.13-10.78c-1.11-1.32-1.18-3.47-3.74-3.75-4.15-.45-8.51,1.72-9.93,5.45a29.89,29.89,0,0,0-1.74,9.53,110.14,110.14,0,0,0,.28,13.83c.54,6.25.15,12.55.89,18.81.42,3.58.61,7.19,1.2,10.75,1.33,8,2.17,16,3.25,24a86.07,86.07,0,0,0,5.91,22.53c1.13,2.64,5.59,4.9,8.54,1.63a14.9,14.9,0,0,0,2.21-3c2.06-3.92,2.81-8.21,3.64-12.49a131.63,131.63,0,0,0,2.27-17.21C181.28,606,180.83,599.83,181.44,593.67Z"/><path d="M87.11,525.8a3.3,3.3,0,0,0,.49-2.35,195.26,195.26,0,0,0-.74-22,69.5,69.5,0,0,1,0-11.36c.13-1.88,1.59-2.64,2.65-3.75.29-.31.66-.1.95.14a.77.77,0,0,1,.22,1c-1,1.36-.39,2.81-.41,4.26-.1,6.7.85,13.36.75,20.06-.06,3.79-.44,7.59-.21,11.36a41.68,41.68,0,0,1-.49,8.8c-.33,2.22-2.87,3.84-5.07,3.69a94.2,94.2,0,0,0-13.84.64c-.74.06-.63.4-.47.95,1.86,6.36,2,12.93,2.4,19.48a150.35,150.35,0,0,0,1.79,15.53,65.07,65.07,0,0,1,.73,6.54,2.83,2.83,0,0,0,2.29,2.65,10.56,10.56,0,0,0,4.89.5,3,3,0,0,0,2.49-1.41c.49-.9,1.48-.65,1.82.34a3,3,0,0,1-2.43,3.93,12.41,12.41,0,0,1-6.65-.41c-1.07-.35-1.42-.48-1.2.95q1.34,8.7,2.4,17.43c.25,2.1.08,4.25.2,6.37a78.5,78.5,0,0,0,1.63,11.52c.71,3.47,3.36,5.35,6.16,6.92a11.37,11.37,0,0,0,5.29,1.74c1,0,2.17,1.87,1.81,2.66C94,633.11,93,633,92,632.63c-1.34-.46-2.72-.8-4-1.32-4.78-1.89-8.55-5-10.11-10a61,61,0,0,1-2-12.93c-.52-6.13-1.23-12.23-2.23-18.3-1.2-7.29-2.35-14.59-3.18-22-.94-8.26-.86-16.56-1.36-24.84-.13-2.12-.47-4.22-.7-6.34a1.65,1.65,0,0,0-.72-1.15c-1.26-1-.39-2.05.18-2.91a.89.89,0,0,1,1.5.17c.5.92,1.24.76,2,.72,4.19-.27,8.29-1.21,12.46-1.65,1-.1,1.09-.38.67-1.2-4.13-8.1-5-17.11-6.63-25.82a48.12,48.12,0,0,1-.56-16.64c.13-.85.16-1.88,1.13-1.95,1.19-.1,1.24,1,1.34,1.89.44,3.94.8,7.88,1.18,11.81.41,4.29,1.77,8.32,2.49,12.5A103.48,103.48,0,0,0,86,523.56,9.54,9.54,0,0,0,87.11,525.8Z"/><path d="M207.34,620.27c-.58-5.94-.3-11.94-1-17.88a6.77,6.77,0,0,1-.06-.89c.14-6.59-.37-13.17-.43-19.76a150.36,150.36,0,0,0-1.61-20.29c-.68-4.67-1-9.39-1.24-14.12a61.71,61.71,0,0,1-.36-8.49c.16-1.87.87-3,2.19-2.86,1.68.14,2.07,1.37,2.09,2.78a187.3,187.3,0,0,0,1.45,21,287.88,287.88,0,0,1,1.81,31.88c.11,6.86.34,13.72.38,20.59,0,5,.71,9.91.55,14.88a10.37,10.37,0,0,1,0,1.25,2.44,2.44,0,0,1-4.74.69c-4-8.5-7.69-17.09-9.65-26.37-1.61-7.56-3.62-15-5.5-22.53-.85-3.38-2.69-6.41-3.47-9.84-1.23-5.4-2.51-10.84-3.3-16.29a92.33,92.33,0,0,0-3-14.85c-.21-.65-.31-1.51.67-1.74s1.4.43,1.68,1.22c1.31,3.65,3,7.22,3.36,11.12.44,4.2,2.21,8.09,2.76,12.23.94,7,4.22,13.24,6.16,19.92,1.48,5.12,2.2,10.41,3.74,15.49C202.11,605.1,203.05,613.19,207.34,620.27Z"/><path d="M110.39,476.37c0-5.2.21-10.27-.23-15.33-.29-3.25-.4-6.52-.81-9.75A41.82,41.82,0,0,1,110,437.9c.12-.61.14-1.27.9-1.29s1,.62,1.11,1.21a46.58,46.58,0,0,1,.74,5.61c.21,6.57.94,13.13,1,19.68,0,6.22.36,12.45-.15,18.67a4.13,4.13,0,0,1-2,3c1.35.38,2,1,1.31,2.31-.47,1,.21,2,.24,3,.22,6.82.41,13.65.39,20.48A93,93,0,0,0,114.88,528a15.69,15.69,0,0,1,.1,3.36c0,.94-.32,1.83-1.42,2s-1.39-.76-1.65-1.55a12.93,12.93,0,0,1-.53-2.23A156.11,156.11,0,0,1,110,499.78c.09-2.14,0-4.28,0-6.72-1,1.23-1.86,2.3-2.74,3.33-.34.41-.76.86-1.36.46s-.53-1-.19-1.56c1.07-1.77,2.1-3.56,3.21-5.31a3.74,3.74,0,0,0,.78-3.27.64.64,0,0,1,0-.36c1-2-.5-3.35-1.32-4.86-2.19-4.09-3-8.67-4.71-12.95-1.07-2.74-2.82-5.18-3.38-8.14C99,453.52,96.21,447,95,440.08a1.74,1.74,0,0,0-.85-1.11c.19,3.93.36,7.86.59,11.79.13,2.13.51,4.25.53,6.38.08,6.63.65,13.24,1.14,19.84.09,1.17.47,2.31.59,3.48s.21,2.6-1.24,2.93-2-.83-2.24-2c-.47-2.74-1-5.48-1.22-8.25-.53-6.14-.5-12.29-.55-18.45,0-4.85-.12-9.72-.32-14.57,0-1.12.2-2.05,1.64-1.91a.55.55,0,0,0,.57-.22c1.28-1.47,1.91-1.45,2.54.34,2.51,7.1,5.64,14,7.3,21.36.49,2.2,1.77,4,2.71,5.92a50.51,50.51,0,0,1,3.37,9.31A1.86,1.86,0,0,0,110.39,476.37Z"/><path d="M247.56,485.9c-.92,3-2.68,3.27-5.07,1.05-4.48-4.17-6.72-9.46-7.76-15.35a61.25,61.25,0,0,1-1.3-14.29c.33-5.77.46-11.58,2.58-17.1a13.36,13.36,0,0,1,2.38-4.11,4,4,0,0,1,6.53.82,3.13,3.13,0,0,0,.5.9c.42.36,1,.72.44,1.24a1.22,1.22,0,0,1-1.77-.06c-.74-1.1-1.63-1.92-2.91-1.45-1.52.55-2,2.06-2.49,3.47a43.87,43.87,0,0,0-1.87,11.47,72.55,72.55,0,0,0,2.28,21.44,19,19,0,0,0,5.73,10.19,1.22,1.22,0,0,0,1.71.11c.6-.44-.07-.89-.27-1.28a14.35,14.35,0,0,1-1.48-6.52,112.25,112.25,0,0,1,.09-11.75c.92-9.15,1.85-18.33,6.44-26.61,2.05-3.68,5.4-3.55,8.16-.35,4.42,5.12,4.36,10.94,3.82,17-.21,2.36-.06,4.75-.06,7.13,0,5.75.11,11.52-.72,17.23a22.47,22.47,0,0,1-1.89,7.15,7,7,0,0,1-3.53,3.54,4.54,4.54,0,0,1-4.39-.19A34.2,34.2,0,0,1,247.56,485.9Zm.72-16.84a56.91,56.91,0,0,0,0,6.4c.42,3.75.84,7.55,4.42,10,2.45,1.67,4.37,1.1,5.24-1.81a31.79,31.79,0,0,0,1.32-11c-.51-8.31-.05-16.59.24-24.88a16.4,16.4,0,0,0-2.26-8.75,1.94,1.94,0,0,0-3.45-.15,18,18,0,0,0-2.72,5.7A85,85,0,0,0,248.28,469.06Z"/><path d="M128.31,491.15c-1.67,1.36-2.62,2.87-4.5,3.15a10.59,10.59,0,0,1-5.56-.66c-1.84-.73-2-3.75-.28-5.72a22.34,22.34,0,0,1,2-1.81l2-1.75-2.65-.38c-.92-.12-1.65-.54-1.64-1.53s.84-1.28,1.74-1.37a26.59,26.59,0,0,1,5-.35c-1.38-5.91-2-11.86-2.83-17.76-1-7.25-1.58-14.56-2.83-21.78-.1-.57-.29-.82-.87-.87a5,5,0,0,1-1.35-.39c-.61-.26-1.34-.6-1.24-1.33s.95-.73,1.59-.65c3.81.45,7.62.93,11.44,1.4.52.06,1,.24,1.53-.1a.8.8,0,0,1,1.2.37,1,1,0,0,1-.24,1.3,3.93,3.93,0,0,1-3.89,1.13c-1.73-.34-3.46-.65-5.45-1,.62,2.64,1.18,5.12,1.8,7.58,1.06,4.15,1,8.44,1.74,12.64.93,5.29,1.67,10.61,2.45,15.92.16,1.1-.29,2.68.29,3.21s2.15.08,3.27.17a12.65,12.65,0,0,1,2.42.48,1.82,1.82,0,0,1,1.49,2.11,2,2,0,0,1-1.94,1.78,20.83,20.83,0,0,1-2.29,0c2.16,2.16,1.79,4.71,1.75,7.2-.1,6.16,0,12.34-.37,18.48-.29,4.61-.41,9.23-.73,13.82a69.38,69.38,0,0,0,.1,9.35c.08,1.22.13,2.52-1.43,2.82s-2.17-.88-2.4-2.19a35.81,35.81,0,0,1-.73-5.42,109,109,0,0,1,.83-16.86C128.62,505.26,127.93,498.42,128.31,491.15Zm-6.4.26c2,.08,2.75-1.5,3.68-2.75.32-.43,1.16-.91.7-1.43a1.82,1.82,0,0,0-2.12-.22c-1.21.49-1.84,1.65-2.93,2.27-.56.31-1.16.9-.86,1.58C120.61,491.38,121.36,491.45,121.91,491.41Z"/><path d="M185.27,371.7c-.28-7.86-.66-17.38-1.63-26.88-.77-7.48-1.78-14.93-2.25-22.43-.06-.94-.24-1.31-1.25-1a10.74,10.74,0,0,1-3.71.16,1.17,1.17,0,0,1-1.23-.83c-.14-.72.52-.89,1-1,5.8-1.46,11.39-3.69,17.27-4.87.86-.18,1.66-.63,2.52-.87a2.14,2.14,0,0,1,2.7,1.14,2,2,0,0,1-.9,2.61,7.4,7.4,0,0,1-3.28,1.28,5.34,5.34,0,0,0-3.24,1.24,1.33,1.33,0,0,1-1.51.15,3.12,3.12,0,0,0-1.2-.2c-4.26-.09-4.32,0-3.53,4.15,1.18,6.17,1.59,12.43,2.28,18.66.56,5.06,1.09,10.12,1.64,15.18a6.44,6.44,0,0,1,.1,1.06c-.29,4.93.44,9.83.39,14.76-.07,6.35.91,12.6,1.56,18.89.75,7.18,2,14.29,2.8,21.46.61,5.45,1.2,10.9,1.68,16.36.11,1.23-.21,2.48.3,3.69a.89.89,0,0,1-.58,1.16c-.57.23-1,0-1.35-.52-1.2-1.48-1.29-3.33-1.39-5-.3-4.68-1.51-9.17-2.32-13.74-1.12-6.34-2.24-12.68-2.77-19.11-.29-3.53-1-7-1.4-10.55A120,120,0,0,1,185.27,371.7Z"/><path d="M152.07,357.68a77.28,77.28,0,0,0-.62-13.35,7.35,7.35,0,0,1,0-1.24c.33-7-.8-13.85-.79-20.79,0-.48-.06-.95,0-1.43.1-1.32.64-2.34,2.13-2.34a2.06,2.06,0,0,1,2.15,2.31c0,2.9.14,5.8.32,8.7.43,7.15.5,14.32,1,21.47a48.31,48.31,0,0,1-.13,9.23,42.36,42.36,0,0,0,0,6.76c.06,2.05-.45,2.9-2.17,3.27-1.55.34-2.52-.34-3.15-2.33-2.08-6.58-4.17-13.14-5.73-19.88a39.55,39.55,0,0,0-2.89-7.48c.14,3,.25,6,.43,9,.26,4.2.69,8.39.62,12.61a13.21,13.21,0,0,0,.31,4,1.31,1.31,0,0,1-1,1.82c-.78.14-1.15-.44-1.43-1.2a19.64,19.64,0,0,1-.83-6.31c-.21-5.85-.68-11.69-1.32-17.51-.51-4.65-.89-9.31-1-14-.05-1.55,0-3.08-.22-4.63-.15-1.36-.11-2.85,1.66-3.28,1.26-.32,2.65.87,3.08,2.58,1.06,4.18,2.1,8.36,2.87,12.61a12,12,0,0,0,.74,2.72c2.46,5.53,3.59,11.47,5.31,17.23A2.27,2.27,0,0,0,152.07,357.68Z"/><path d="M173.41,461.67a165,165,0,0,0-1.27-19.11,8.66,8.66,0,0,1,0-1.25c0-.68-.25-1.53.65-1.84a2.66,2.66,0,0,1,2.47.6c.67.5,0,1-.22,1.63-.46,1.18.31,2.41.26,3.66a10.9,10.9,0,0,0,.4,2.44c.55,2.62.78,2.77,3.48,2.24,2.46-.48,4.09-2.24,5.81-3.84.49-.45.32-1.1.17-1.68a11.91,11.91,0,0,0-1.82-3.61,1.32,1.32,0,0,1,.17-1.91c.73-.6,1.34-.27,1.83.35a11.64,11.64,0,0,1,2.68,5.5,3.65,3.65,0,0,1-1.91,4.18c-.81.44-1.33,1.36-2.08,1.93s-.49.77,0,1.24c4.46,4.71,6,10.69,7.31,16.77,1,4.47,1,9,1.58,13.54.15,1.21-.1,2.05-1.24,2.34a1.88,1.88,0,0,1-2.3-1.49,15.92,15.92,0,0,1-.76-3.64,62.92,62.92,0,0,0-4-20.4,16,16,0,0,0-2.73-4.95,4.08,4.08,0,0,0-5-1.16c-.49.22-.34.51-.31.83.4,4.54.56,9.1,1.24,13.62s1.32,9.12,2,13.68c.17,1.21,0,2.38-1.37,2.74s-1.82-.78-2.33-1.73a14.85,14.85,0,0,1-1.41-5.81C174.26,471.58,173.38,466.66,173.41,461.67Z"/><path d="M262.82,574.4a33,33,0,0,1-1,10.38,15.69,15.69,0,0,1-5.06,8.12,2.94,2.94,0,0,0-1,1c-1.25,2.89-4.14,3.74-6.47,5.24a1.75,1.75,0,0,1-2.74-.51c-.83-1.37.17-2,1-2.54a17.84,17.84,0,0,1,3.67-2.46,1.1,1.1,0,0,0,.43-.31c3.86-4.9,7.38-9.86,7-16.64-.23-4.55-.17-9.09-1.2-13.58-1.17-5-4-9.29-6.3-13.8a27.94,27.94,0,0,0-7.88-9c-.77-.62-1-2.29-2.7-1.33-.46.26-1.08-.79-.77-1.41a2,2,0,0,0-.42-2.27,1.37,1.37,0,0,1,.11-2,1.31,1.31,0,0,1,2,.24c2.42,3,5.7,5,8.52,7.5,2.5,2.22,3.61,5.51,5.45,8.26a45.15,45.15,0,0,1,7.19,19.81A43.05,43.05,0,0,1,262.82,574.4Z"/><path d="M240.11,547.44c.07,9.64,1.58,17.87,2.51,26.15s2.61,16.21,2.8,24.43c0,.59,0,1.19,0,1.78,0,1-.37,1.64-1.41,1.66s-1.23-.63-1.44-1.47c-.76-3-.75-6.19-1.3-9.27-.59-3.3-1.06-6.63-1.52-10-.72-5.34-1.32-10.69-2.1-16-1.08-7.35-.93-14.77-1.5-22.14-.21-2.78-.07-5.58-.48-8.34a1.42,1.42,0,0,1,.86-1.73c.91-.32,1.43.29,1.75,1.08a21.89,21.89,0,0,1,1,5.19C239.73,542.09,239.92,545.4,240.11,547.44Z"/><path d="M273.07,567.52c.59-.87,1.87-1.22,1.75-2.6a.88.88,0,0,1,.93-.89.93.93,0,0,1,1,.88,5.9,5.9,0,0,1-.75,3.74c-1.69,2.48-3.27,5-4.9,7.56-.86,1.34-1.66,2.71-2.6,4a1.67,1.67,0,0,1-2.16.75,1.6,1.6,0,0,1-.9-2.18,11.27,11.27,0,0,1,1.13-2.12c1.07-2,2.34-3.76,2.29-6.35-.15-7.65-3-14.81-3.8-22.31-.34-3-.66-6-1-9.19a16.52,16.52,0,0,0-2,3.3c-.35.63-.8,1.11-1.56.79a1.17,1.17,0,0,1-.55-1.68,71.9,71.9,0,0,0,3.35-8,1.34,1.34,0,0,1,1.65-.77,2.44,2.44,0,0,1,1.91,1.9,51,51,0,0,1,1,5.57c.68,7.08,2.43,13.95,4.08,20.84A45.55,45.55,0,0,1,273.07,567.52Z"/><path d="M140.08,443.35c1.29,8.3,1.86,16.12,3.83,23.78,1.27,5,1.7,10.13,2.53,15.21a1.75,1.75,0,0,1-1.22,2.23,1.81,1.81,0,0,1-2.37-1.28,25.46,25.46,0,0,1-1.69-7.94c-.3-4.26-1.31-8.39-2-12.57-.74-4.38-.91-8.81-1.6-13.19-.36-2.27-.53-4.57-.76-6.87-.1-1.11-.82-1.27-1.73-1.32-1.16-.07-3,.42-2.83-1.42.11-1.56,1.87-1.16,3.06-1.31,4.83-.58,9.62.23,14.42.38,1.75.05,2.79.89,2.7,2.17-.13,1.73-1.39,2-2.8,2-2.55,0-5-1-7.54-1C140.82,442.23,139.47,441.81,140.08,443.35Z"/><path d="M98.31,485.73c2,.13,3.78.26,5.61.37.71,0,1.15.41,1.1,1.12s-.51.83-1.12.89c-1.4.15-3.22-.09-4.06.7s.09,2.56.15,3.91c.32,7.5,1,15,1.63,22.46.35,4.38,1.23,8.79.54,13.25-.35,2.28.39,3,2.56,3.07a.88.88,0,0,1,1,.6,1.4,1.4,0,0,1-.44,1.6c-1.14,1-7.84,1.51-9.15.7a1.49,1.49,0,0,1,.34-2.67c1-.35,2.6.1,3.07-.76s-.34-2.12-.52-3.22c-.9-5.43-1-10.94-1.62-16.39-.45-3.94-.36-7.94-.57-11.91-.16-3.2-.42-6.38-.59-9.57a1.8,1.8,0,0,0-.81-1.66c-.48-.29-.88-.66-.75-1.28s.75-.82,1.32-1A9.37,9.37,0,0,1,98.31,485.73Z"/><path d="M280.33,539.44a7.9,7.9,0,0,1-8.53.48c-1.56-1-1.59-2.61-1.23-4.14a3.27,3.27,0,0,1,2.93-2.66c3-.45,5.69.7,8.49,1.24.84.16,1.25,1,1.63,1.76,1.41,2.92,1.88,6.06,2.44,9.21s.41,6.14.81,9.2c.16,1.28-.27,2.44-1.69,2.72s-2.25-.52-2.67-2a13.85,13.85,0,0,1-.33-4,47,47,0,0,0-1.4-10.69A7.94,7.94,0,0,0,280.33,539.44ZM278,536.38a13.84,13.84,0,0,0-3.8-.25.89.89,0,0,0-.89.46.63.63,0,0,0,.23.76A3,3,0,0,0,278,536.38Z"/><path d="M27.69,534.52c-2.51-.32-5-.86-7.54-.47-.64.09-.89.09-.83,1a15.75,15.75,0,0,0,.87,4.49c1.76,4.77,1.92,9.82,2.75,14.76.14.84.46,2-.9,2.34s-2-.6-2.37-1.63c-1.16-3.19-1.25-6.6-1.9-9.89-.36-1.79-.46-3.63-.77-5.43a13.48,13.48,0,0,1,.3-5.15c-1.4,0-2.54.67-3.79.9a3.07,3.07,0,0,1-2.39-.29,1.25,1.25,0,0,1-.51-1.4,1,1,0,0,1,1-.9c3.4-.39,6.49-2,9.91-2.4a9.5,9.5,0,0,1,4.83.74A2.6,2.6,0,0,1,28,533.83l0-.05c-.46.09-.75.25-.38.75Z"/><path d="M214.45,237.2A46.62,46.62,0,0,1,217.9,244h0a20.67,20.67,0,0,1-3.45-6.87Z"/><path d="M214.12,237.23v-.85l.33.82,0,0h-.39Z"/><path d="M217.9,244c.26,0,.4.07.39.34l-.14.12-.23-.46Z"/><path class="cls-1" d="M88.41,203.11c.08,2.26-1.47,3.79-1.47,5.78-.92,1-.92,2.4-1.29,3.59-1.2,3.87-3,7.51-4.34,11.28-2.9,7.83-4.3,17.07-10.52,22.63a11,11,0,0,1-5.12,2.22,48.28,48.28,0,0,1-15.82.38c-2.86-.32-5.73-.27-8.52-1.24-3.89-1.35-7.9-2.36-10.84-5.59a7.58,7.58,0,0,1-1.44-1.75c-1.29-2.95-3.39-5.39-5-8.13s-1.77-5.76-2.18-8.7A69.19,69.19,0,0,1,23,198.82a46.07,46.07,0,0,1,7.27-16.89c1.71-2.4,3.74-4.59,5.18-7.2l.47.12c-.21-1.76,1.1-1.65,2.2-1.84.19,0,.33-.3.49-.46l.25-.16c.16-.17.49-.21.38-.56l0,0c.67.2,1.1-.31,1.6-.57,2.1-1.1,4.18-2.24,6.27-3.37,1.45.16,2.67-.57,4-1,2.51-.12,5-.81,7.53-.11a19.92,19.92,0,0,0,11.22-.29c.61.59,1.3.32,2,.21,2.14-.37,4.28-.75,6.43-1.08,1.3-.19,2.68.2,3.9-.53,1.65.71,3.07,0,4.5-.69,1.28-.14,2.49-.58,3.74-.83A43.93,43.93,0,0,0,99.22,161c1.47-.5,3.12-.62,4.23-1.94a3.41,3.41,0,0,0,2.44-.82L109.7,157c.33-.1.76,0,.93-.43a6.93,6.93,0,0,0,3.89-1.35,3,3,0,0,0,1.83-.48,7.51,7.51,0,0,0,3.49-1,9.45,9.45,0,0,0,3.21-1.16c1.37-.23,2.82-.19,3.93-1.24a10.66,10.66,0,0,0,3.52-.88c1.22-.39,2.57-.42,3.59-1.33l5.35-1.2a8,8,0,0,0,3.82-.71c1.74-.18,3.49-.37,5.24-.54a51.42,51.42,0,0,1,10.23-.09l4.16,1a17.28,17.28,0,0,1,5.41,1.77l3.94,1.14a10,10,0,0,0,3.46,1.47,6.68,6.68,0,0,0,3.3,1.38,33.66,33.66,0,0,0,8.1,2.92,3.61,3.61,0,0,0,2.18,1l3.19,1.11,3.22,1.39c.48.18,1,.32,1.45.54a11.24,11.24,0,0,0,4.52,1.42c1,1.12,2.37,1.08,3.67,1.26a7.27,7.27,0,0,0,2.44.45,7.16,7.16,0,0,0,3.89,1c2.05,1,4.32.92,6.47,1.44s4.3.54,6.44,1a23.6,23.6,0,0,0,6.56.4,2.91,2.91,0,0,1,2.18.55c1.28,1.24,2.94,1.3,4.5,1.68a2.05,2.05,0,0,0,1.53.62l7,4a1.39,1.39,0,0,0,1,.8c.14,1.25,1.28,1.6,2.07,2.25,1.86,1.53,3.22,3.53,4.91,5.2a60.91,60.91,0,0,1,12.93,18.34c1.42,3.15,1.51,6.62,2.19,10a30.92,30.92,0,0,1-.85,14.36c-1.12,4.08-2.46,8.29-5.93,11.39-1.84,1.65-3.13,3.92-4.68,5.89a22.56,22.56,0,0,1-11.58,7.63c-4.4,1.33-8.8,2.59-13.5,2.23a33.49,33.49,0,0,1-5.91-.91c-3.6-.94-6.29-3.81-8.58-6.8a9.14,9.14,0,0,0-.61-1.06c-1.39-1.78-6.43-11.62-7-14a53,53,0,0,0-2-6.92c-1.77-4.55-2-9.34-2.51-14.08v-3.67c-1.57.89-7.62,5.43-9.93,6.63-2,1-22.34,13.59-48.08,13.59-14.07,0-33.94-4.28-40-7.3A79.92,79.92,0,0,1,88.41,203.11ZM33.16,237.77l.39.59c1.43.75,2.15,2.54,4,2.74a.76.76,0,0,0,1,.57l3.82,1.12c.22.47.66.29,1,.33a5.22,5.22,0,0,0,3,.74c.4.18.77.62,1.2,0h.47a.81.81,0,0,0,1.21.08c.64.44,1.36.08,2,.22a1,1,0,0,0,1.51.07c1.19-.05,2.33.49,3.53.27a1.42,1.42,0,0,0,1.41,0l1.11,0h1.63l.4-.3c.43.24.7-.05,1-.31,1.17-.05,2.39.3,3.46-.45.61-.09,1.25-.15,1.38-.94,1.58-.37,1.43-2,2.11-3,.66-.34.74-1,1-1.62l1.53-3.51c.43-.34.34-.81.31-1.26.78-1,1.73-1.94,1.81-3.34,0-.3.93-.16.34-.73.35-1,1.34-1.77,1.13-3,.48-.1.67-.34.38-.81a7.47,7.47,0,0,0,1.32-3.2.17.17,0,0,1,0-.24c.32-1,1.2-1.87,1.1-3.06.25-1.21,1.25-2,1.7-3.11a1,1,0,0,0,0-.35,8.72,8.72,0,0,0,.75-2.84c.06-.4.72-.59.38-1.12l0,0c.33.13.27-.15.33-.31l.82-2.65a1,1,0,0,0,.3-1c.26-.89.89-1.68.73-2.68a26.39,26.39,0,0,1,2.64-4.06c.28-.3.07-.54-.13-.75-1.06-1.16-2.14-2.31-3.22-3.47l-6.12-5.77a3.42,3.42,0,0,0-2.06-2.16c-1.36-1.36-2.36-3-3.87-4.27-.09-1.65-1.52-2.26-2.49-3.23-.1-.28-.07-.66-.53-.64l-.24-.26c-.34-1.61-2.59-4.13-4.59-5.14-.64-1-1.77-1.35-2.62-2.07-1.61-.9-3.3-.42-5-.26-1,.11-7.1,1-8.92,2-2.6.78-5.11,1.7-6.5,4.31a5.83,5.83,0,0,0-1.83,1.57c-2.2,2.6-3.46,5.76-5.25,8.6a15.48,15.48,0,0,0-2.77,7.33l-.43,1.73a8.92,8.92,0,0,0-1.35,4.63.68.68,0,0,0,0,.88l-.09.84c-.41.16-.35.49-.29.82a11.12,11.12,0,0,0-.71,4.78c-.23.32-.59.64,0,1a.27.27,0,0,1,0,.23c-.43.33-.26.63.06.92a5.93,5.93,0,0,0,0,4.07c-.35.41-.46.81,0,1.23a7.22,7.22,0,0,0,.35,4.52c-.05.27-.42.57.07.8a12.62,12.62,0,0,0,1,5c-.16.74-.19,1.42.69,1.74a1.7,1.7,0,0,0,.82,1.18c-.13.55.06.88.64,1l2.57,4a1.85,1.85,0,0,0,.74,2Zm209.27,7.86c.54-.09,1.17.28,1.59-.34l-.05,0c.44-.18,1,.19,1.37-.35,1.16-.27,2.44-.27,3.21-1.42.76.25,1.18-.26,1.63-.72.88-1.51,2.71-2,3.69-3.4a1.22,1.22,0,0,0,.95-1.22c1-1.43,2.65-2.36,3-4.25,1.2-.49,1.77-1.59,2.49-2.56s1.59-1.53,1.43-2.78c.72-.12.88-.56.7-1.2.48-1.26,1.41-2.37,1.36-3.82a.59.59,0,0,0,.05-1,6.14,6.14,0,0,0,.71-3,1,1,0,0,0,0-1.39,7.83,7.83,0,0,0,.26-3.63c.1-.45.21-.91-.28-1.23,0-.63.41-1.26-.07-1.87l0-1.26-.27-1.71c.49-.67,0-1.07-.41-1.48a5.28,5.28,0,0,0-.78-3.12,3,3,0,0,0-1.34-2.92,2.57,2.57,0,0,0-.09-1,81.91,81.91,0,0,0-5.22-8.34c-2-2.57-4.63-4.48-6.48-7.16a9.55,9.55,0,0,0-4.23-3.82c-.52-1.54-2-1.78-3.21-2.4-1.31-1.19-2.89-1.22-4.51-1-1.15.17-2.35-.34-3.47.23l-2.39.16a1.54,1.54,0,0,0-1.69.61,31.64,31.64,0,0,0-2.95,4.64c-.88,1.46-2.38,2.51-2.91,4.23l-.41.73c-1.16.3-1.61,1.27-2.1,2.21-.37,0-.71.06-.48.57-.95.77-2.15,1.3-2.49,2.63a1.64,1.64,0,0,0-1.61,1.41c-.59.5-1.44.78-1.5,1.74a.82.82,0,0,0-.77.68c-.67.48-1.52.8-1.51,1.84-.5,0-.9.1-.94.71-1.13.26-1.48,1.46-2.41,2-.69.4.09.76.21,1.15-.39.42-.07.74.17,1.06l.23,1.83.75,4,.1,2.07c0,1.54.57,3,.33,4.59a1.58,1.58,0,0,0,.65,1.54l0,.73a8.41,8.41,0,0,0,1,3.35c.91,1.7.83,3.75,1.86,5.41.16,1-.24,2.07.68,2.86.63.51.56,1.51,1.33,1.92l2.18,4.77c.88.71.7,2.11,1.77,2.69.18.61,0,1.38.78,1.71.83.75,1.22,2,2.59,2.15l-.06,0c-.06.23.07.35.26.42.28,1.15,1.23,1.45,2.19,1.76a7.8,7.8,0,0,0,3.14.8c.21.43.46.71.92.27a7.36,7.36,0,0,0,3.86.32,2.44,2.44,0,0,0,1.44,0l.12,0H237c.42,0,.85.14,1.15-.29C239.6,246.43,241.15,246.58,242.43,245.63Z"/><path d="M134.09,149.09c-1,.91-2.37.94-3.59,1.33-.66-4.13-1.31-8.27-1.63-12.44-.27-3.54-.63-7.06-.88-10.6q-.73-10.6-1.4-21.21a12.68,12.68,0,0,1,.12-3c.15-.88-.13-1.44-1.15-.81-1.48.93-3,1.87-4.47,2.75-.58.33-1.34.81-1.86,0s.26-1.25.81-1.67a53.38,53.38,0,0,1,11-6.62,11,11,0,0,1-6.24-4.21c-.15-.19-.3,0-.42.08l0,0c.52-.76-.28-1-.61-1.33a34.38,34.38,0,0,1-10.29-20.22,19.51,19.51,0,0,1,4.92-15.69c1.44-1.69,1.63-2.19.25-3.94-2.38-3-4-6.5-6.07-9.73a30.79,30.79,0,0,0-7.9-8.54c-2.91-2.12-6.09-1.8-9.21-.53a5.93,5.93,0,0,1-4.11.6c1.24,1.38,2.18,2.39,3.09,3.41,3.23,3.64,5.66,7.9,9.12,11.35,1.63,1.64,3.24,3.3,4.91,4.9s1.88,3,.75,4.11-2.59.83-4.19-.69A77,77,0,0,1,94,43a44.33,44.33,0,0,0-7.46-8.33c-2.81-2.55-4.63-5.81-6.69-8.89-.62-.92-.57-1.86.93-1.89.47,0,.86.12.93-.64a4.46,4.46,0,0,1,2.84-3.58c4.36-1.94,8.7-4,13.62-4.25a5.68,5.68,0,0,1,5.12,8.18,46.08,46.08,0,0,1-2.81,4.11c3.73-.41,6.53,1.43,9,3.63a39.15,39.15,0,0,1,9.07,11.7,30,30,0,0,0,3.84,5.31,4.88,4.88,0,0,1,1.38,3.7c-.09.91.16,1.08,1,1.11,2.9.09,5.34,1.24,8,2.5,3.94,1.86,5.3,4.86,6.66,8.43,2,5.19,3.62,10.46,3.9,16,.26,5.15-1.72,9.78-4,14.25a4.76,4.76,0,0,1-2.21,2c-1,.5-2.38.43-2.4,2.3,0,1.21-1.51,1.48-2.66,1.57-3.61.28-3.86.38-3.66,3.91s.75,6.77,1.14,10.15c.53,4.5,1.14,9,1.74,13.48.63,4.67,1,9.37,1.62,14C133.23,144.23,133.53,146.68,134.09,149.09ZM116.55,69.22A18.05,18.05,0,0,0,118.37,77,51.93,51.93,0,0,0,128.72,91.5c1.49,1.52,3.5,1.85,5.5,1.89a2.81,2.81,0,0,0,2.63-1.78,25.17,25.17,0,0,0,1.71-16.81C137.46,70,135.18,65.68,134,61c-.58-2.27-2.89-3.45-4.31-5.17s-7.25-.37-8.94,1.48C117.81,60.45,116.52,64.23,116.55,69.22Zm-25-36c-1.19-1.87-.16-2.83,1.27-4a33.72,33.72,0,0,0,6.73-7.27c1-1.5.15-2.92-1.62-3a13.81,13.81,0,0,0-3.85.38c-3.49.83-7.07,1.48-10,3.76a2.32,2.32,0,0,0-.26,3.22c1.91,2.27,4.2,4.15,6.28,6.24C90.43,32.87,90.72,33.39,91.55,33.21Z"/><path d="M101.12,151.52A22.71,22.71,0,0,0,95,142.41c-.45-.37-.67-.92-1.38-.85-1,.08-.39,1-.79,1.44-2.85-.86-5.64-2.37-8.67-.91s-3.43,4.6-4.75,7.53c-.33-1,.19-3.64-10.83-6.67a21.93,21.93,0,0,0-3.87-.35c-6.14-.55-12.24-.71-18.26,1a4.4,4.4,0,0,0-2.55,1.74c-.34.49-.94.93-.51,1.71s1.14.59,1.81.49c.19.53-.37.44-.58.56A7.49,7.49,0,0,0,41,152.69a14.33,14.33,0,0,0-.36,5.09c.06,1-.26,1.29-1.25,1.28a23,23,0,0,0-5,.25C27.39,160.85,20.17,161,13,161.49c-1.53.11-3.08-.16-4.6.25a1.3,1.3,0,0,1-1.26-.06l1-.27c2.47-1.4,5.26-1.91,7.87-2.92,5.58-2.13,10.91-4.88,16.75-6.33a20.64,20.64,0,0,0,7.4-3.22,3.81,3.81,0,0,0,1.62-4A3.58,3.58,0,0,0,39,142.19a14.37,14.37,0,0,0-6.05-1c-2.68.23-5.32-.29-8-.51l-12.56-.59a16.51,16.51,0,0,1-6-1.27c11.73-3.51,23.42-4.87,35.31-6.43a5.93,5.93,0,0,0,.43,3.31c.44,1.28.06,3.22,2.15,3.63a150.52,150.52,0,0,0,17.32,2.24c3.64.29,7.31.34,10.9,1.29a29.68,29.68,0,0,0,5.4.79,2.5,2.5,0,0,0,2.87-2.12c.21-1.43-.81-2.2-2.15-2.58a10.37,10.37,0,0,0-2.81-.36,15,15,0,0,1-2.11-.16,55.29,55.29,0,0,0-9-.85c-3.55,0-7.11-.2-10.66-.33-.4,0-1.16.23-1-.57.55-2.31.72-5.08,3-6.31a20.54,20.54,0,0,1,13.28-2.48,41.35,41.35,0,0,1,12.43,3.74A2.22,2.22,0,0,0,85,131c.78-1.25.31-2.4-.76-3.3a3.83,3.83,0,0,0-1-.65,59.74,59.74,0,0,0-15.94-3.65c-2.72-.19-5,1-7.5,1.77a23.14,23.14,0,0,0-6.93,3.2c-.53-1.44-.6-3-1.27-4.33-1.34-2.69-4.13-3-5.94-.57a11.41,11.41,0,0,0-1.84,3c-.11.3-.18,1-.73.88-1.51-.19-2.93.73-4.59.38,2.92-2.41,5.83-4.65,7.78-7.82,2.12-3.44,2.07-7-.21-9.13a15.26,15.26,0,0,0-4.95-3.4,39.57,39.57,0,0,0-22.41-1.65c-2.85.64-5.71,1.16-7.3,4a1.14,1.14,0,0,1-.54.43C6.32,112,4.16,115.42,4,120.27c-.14,5.17,1.84,8,6.81,9.56A34.2,34.2,0,0,0,20.39,131c-3.85,1.08-7.79,1.65-11.63,2.7a18.19,18.19,0,0,0-6.24,2.78C1,137.59.79,139.33.86,140.93s1.55,1.83,2.83,2.24c3.65,1.15,7.45,1.16,11.2,1.55l9.2.23a8.33,8.33,0,0,0,1.22.17c2.48.13,5,.22,7.44.38a5.79,5.79,0,0,1,2.89.56,4,4,0,0,1-.69.43c-7.38,2.37-14.37,5.69-21.52,8.64-3.67,1.51-7.63,2.35-11,4.58-1.25.83-3.39,1.39-1.84,3.7.17.25-.15.22-.24.33-.85,1.07,0,1.69.78,1.64,1.91-.11,3.74.55,5.65.38,5.47-.48,11-.67,16.46-.95,6.08-.31,12-1.94,18.17-1.46a.58.58,0,0,0,.35,0c1-.6,1.57,0,2.23.61s2.24,1.15,1.91,2.23c-.25.81-1.74.9-2.76,1.12s-2.3,1.08-3.29.87c-1.19-.24-1.47-1.83-2.11-2.86-.28-.45-.68-1.2-1.37-.76s-.41,1.15,0,1.72c.57.87,1.19,1.71,1.81,2.59l-4,1.56c-1,.39-1.78.28-2.25-.87a10.28,10.28,0,0,0-1.26-2.14c-.23-.31-.36-1.06-1-.65s-.12.8.12,1.17c.53.79,1.07,1.56,1.61,2.34a2.25,2.25,0,0,0,2.85,1.08c2.54-.77,5.14-1.33,8.12-2.09-1.32,1-2.42,1.57-3.1,2.63.67.2,1.1-.31,1.6-.57,2.1-1.1,4.18-2.24,6.28-3.37.76-2.54,2.44-1.43,4-1,2.51-.12,5-.81,7.53-.11a19.92,19.92,0,0,0,11.22-.29c2.44-1.4,7.22-5.44,7.61-6.21,2.18-4.4,1-2,1.74-3.28a43,43,0,0,0,3,8.09c1.65.71,3.07,0,4.5-.69-4.08-4.37-4.94-11.5-2.37-16.9a3.77,3.77,0,0,1,3.92-2.44,7.48,7.48,0,0,0,2.81-.22c1.52-.45,2.91-.2,3.07,1.71.18,2.18,1.67,3.64,2.61,5.4a21.32,21.32,0,0,1,2.59,9c1.47-.5,3.12-.62,4.23-1.94A39.84,39.84,0,0,0,101.12,151.52Zm-54-26.09c.28-.45.62-1.1,1.36-.94s.64,1,.64,1.3c0,2.08,1.23,4,.83,6.1a10.31,10.31,0,0,1-.27,3c-.78,2.28-1,2.43-3.4,2.08-1.83-.26-1.93-1.52-2-3C43.92,130.63,45.45,128,47.07,125.43Zm-31.39,1.44a11,11,0,0,1-6.44-2.08,3.21,3.21,0,0,1-1.43-2.32,24.21,24.21,0,0,1,.05-7.06,4,4,0,0,1,3.35-3.1,5.53,5.53,0,0,0,2-.52c4.23-2.36,8.93-2.21,13.49-2.73,4.86.37,9.67.69,14,3.18,2.8,1.61,3.27,3.49,1.26,6a19.36,19.36,0,0,1-12.08,7.33A76.78,76.78,0,0,1,15.68,126.87Zm57.16,31.58c-3.29,3.66-7.25,5.76-12.31,5.59-3.59-.12-7.21.21-10.75-.73a9,9,0,0,1-5.89-4.07c-1.33-2.24-.89-7.29.88-9.17a3.51,3.51,0,0,1,1.5-.89c.5-.19,1.16-.27,1-.94s-.73-.64-1.28-.63a3.39,3.39,0,0,1-.77-.1c1.81-1.07,3.9-.79,5.79-.86,5.38-.18,10.79-.33,16.14.61,3.17.55,5.22,2.6,6.91,5.07A5.66,5.66,0,0,1,72.84,158.45Z"/><path d="M70.57,81.7a10.22,10.22,0,0,1,7.5-5.07A28.07,28.07,0,0,1,85,76a1.3,1.3,0,0,1,.52.09C92,79.72,99,82.26,104,88.19c4,4.79,6.33,10,5.76,16.32-.59,6.71-7.82,9.94-12.3,8.33-.59-.21-1.21-.36-2-.58.11,1.79.37,3.49-.23,5.13-1.83,5.12-5.26,6.79-10.81,5.49-4-.95-7.68-2.92-11.7-3.86-6.27-1.47-12.5-3.11-18.65-5a5.73,5.73,0,0,0-1.73-.31c-2.35,0-3.28-.56-2.06-3.53a37.81,37.81,0,0,1,8.54-12.61c.59-.59,1.1-1.26,1.71-1.81A1.58,1.58,0,0,1,63,95.63,1.43,1.43,0,0,1,62.8,98a64.22,64.22,0,0,0-6,5.54,26.92,26.92,0,0,0-4.13,6.76c6.18,1.7,12.46,2.24,18.42,4.25a48.59,48.59,0,0,1,2.66-6,22.62,22.62,0,0,0,2.08-5,7.07,7.07,0,0,1,.66-1.62c.58-1.08,1.47-1.6,2.63-.94s1,1.67.47,2.63c-1,1.76-2,3.48-3,5.2s-2.05,3.39-3.1,5.07c-.38.61-.29,1.06.44,1.18,4.14.67,7.89,2.69,12,3.48,2.93.57,4,.21,5.18-2.5.63-1.45,1.55-2.82,1.45-4.57,0-.6-.17-.82-.61-1a19.23,19.23,0,0,1-4.83-3.86c-3-3.07-6.58-5.43-9.63-8.43s-4.74-6.56-6.83-10c-1-1.6-.36-3.59-.41-5.41l0,0c.57-.23.38-.71.39-1.13ZM106,102.53a12.45,12.45,0,0,0-.62-4.11c-2.25-6.49-7.15-10.49-12.76-13.89-3-1.8-6.32-2.88-8.9-5.35a3.6,3.6,0,0,0-3.34-.88,19.72,19.72,0,0,0-3.84,1.53c-3.88,1.53-4,4.88-2.53,7.57A37.88,37.88,0,0,0,80,95.91c2.87,2.93,6.57,4.8,9.39,7.81a17.74,17.74,0,0,0,8.48,5.14c1.18.3,2.27.82,3.59.4C105,108.13,105.86,107,106,102.53Z"/><path d="M275.53,148.75a46.47,46.47,0,0,0,6.14,1.33,96.28,96.28,0,0,1,13.93,2.26c3.09.71,6.25,1.09,9.28,2.07,2.33.75,3.48,2,3.47,3.91a3.53,3.53,0,0,1-2.9,3.9c-3.23.95-6.6,1.15-9.9,1.76a82.69,82.69,0,0,1-11.23,1.57c-2.72.13-5.45.12-8.17.23a25.71,25.71,0,0,0-4.88.23,6.75,6.75,0,0,1-3.34,0,2.22,2.22,0,0,1-1.9-2.42,2.29,2.29,0,0,1,2.3-2.06,55.26,55.26,0,0,1,8.33-.38c7.61.34,15.06-.81,22.48-2.22.73-.14,1.48-.22,2.44-.36-4.76-1.66-9.56-2.27-14.24-3.33-3.7-.84-7.42-1.57-11.06-2.69-.28-.08-.62-.32-.83-.23-2.35,1-4-.46-5.84-1.52s-2-2.79-.41-4a8.8,8.8,0,0,1,5.42-2.26,7.58,7.58,0,0,0,2.37-.63c8-2.9,15.32-7.07,22.82-11,1.77-.92,3-2.47,4.84-3.76a10.62,10.62,0,0,0-5.42.4c-7.45,1.94-15,3.15-22.6,4.56-3.39.63-6.7,1.66-10.13,2.18-1,.14-1.69.15-2-.83s.49-1.5,1.34-1.74c3.25-.94,6.33-2.36,9.66-3.08,2.5-.54,4.9-1.62,7.41-2,6.21-1,12.17-3.29,18.52-3.47,1.23,0,2.41,0,2.9,1.38.13.37.37.35.66.42,2,.45,2.47,1.81,1.57,3.76-1.36,2.94-3.83,4.81-6.41,6.45-7.15,4.55-14.5,8.72-22.94,10.52A2,2,0,0,0,275.53,148.75Z"/><path d="M232.63,150.42c.66.66,1.41.44,2.08.44,4.39,0,8.79.11,13.18-.05,5.37-.19,10.34,1.49,15.32,3.05,1.47.45,3.12,1.35,3.11,3.43,0,1.69-1.37,3.25-3.59,3.91a37.35,37.35,0,0,1-7.16,1.13c0,.16,0,.31.1.37.48.42,1.64-.15,1.59.71s-1.21.82-1.88.9a89.85,89.85,0,0,0-10.71,1.49c-.22,0-.47,0-.64.6H255.3c.39,0,1-.12,1,.41s-.53.67-1,.66c-5.57-.21-11.13-.41-16.75-.81,2.68-.63,5.26-1.5,8.22-2.36-1.7-.56-3,.06-4.29.07a52.87,52.87,0,0,0-13.6,1.65,2.24,2.24,0,0,1-2.67-1.28,2.17,2.17,0,0,1,.6-2.86,6.9,6.9,0,0,1,4.33-1.35c7-.41,13.88-2.14,20.92-2.26a58.05,58.05,0,0,0,6.73-.94c-1.53-.49-2.68-.9-3.84-1.24a20.06,20.06,0,0,0-6.08-1c-4.68.08-9.38.05-14.07,0a47,47,0,0,1-5.3-.36c-3.21-.42-4.35-3.11-2.31-5.66a22.88,22.88,0,0,1,8.28-6.3A60.51,60.51,0,0,0,252,131.05a3.09,3.09,0,0,0,.32-.51c-3.08,0-5.81,1.22-8.66,1.86-6.44,1.44-12.74,3.45-19.12,5.14-1,.26-2.12-.1-3.08.57-.32.23-.63-.15-.88-.41-.44-.45,0-.74.19-1,1.31-1.82,3.47-2.17,5.34-2.86,6.58-2.42,13.36-4.24,20.13-6a75,75,0,0,1,8.47-1.48,2.8,2.8,0,0,1,3.19,1.41,3.16,3.16,0,0,1-.73,3.77c-5.18,4.21-9.24,9.77-15.34,12.85a42.51,42.51,0,0,0-8.61,5.49A6,6,0,0,0,232.63,150.42Z"/><path d="M36.93,98.47a51.19,51.19,0,0,0,11.25,1c1.94-.08,3,.78,3,2.19s-1.13,2.39-3,2.49c-5.3.29-10.43-1.13-15.66-1.57-1.76-.14-3.52-.54-5.28-.54-4.75,0-9.49-.1-14.23-.38-1.64-.1-2.76-1.39-2.72-3.43,0-1.46,1.37-1.89,2.4-1.86,5.3.15,10.41-1.25,15.66-1.59,6.36-.42,12.7-1.14,19.1-1a10.77,10.77,0,0,0,2.08-.42,41.26,41.26,0,0,0-11.44-3.07c-5.3-.86-10.31-2.84-15.55-4a2.52,2.52,0,0,1-2.09-3.15A2.57,2.57,0,0,1,24,81.7c7.52,2.57,15.29,4.14,23,6.07A47.6,47.6,0,0,1,57.2,91.88a2.59,2.59,0,0,1,1.72,2.45,3.12,3.12,0,0,1-1.76,2.88,8.18,8.18,0,0,1-3.39.87c-4.91.14-9.82.44-14.74.26A18.5,18.5,0,0,0,36.93,98.47Z"/><path d="M172.24,150.46l-3.94-1.14c-.65-5.09-1.18-10.19-1.47-15.33-.36-6.3-1-12.59-1.31-18.89-.22-4.62-.12-9.26,0-13.88,0-1.22-.37-2.44.1-3.68.24-.63-.49-.45-.83-.57-1.76-.59-3.59-.92-5.31-1.69-.73-.32-1-.64-.74-1.26s.78-.64,1.46-.35a30.89,30.89,0,0,0,6.92,1.65.62.62,0,0,0,1,0L167.4,95c-.85-.44-1.59-1-1.21-2.06s1.31-.54,2-.57a3.65,3.65,0,0,1,1.23.15c.71.21.93,0,.95-.73.17-6,1.76-11.92,2.35-17.91.61-6.17,1.6-12.31,1.56-18.53,0-.69.28-1.55-1-1.44a.78.78,0,0,1-.7-1A1.38,1.38,0,0,1,174,51.8c4,.88,8.12.62,12.12,1.41a2.79,2.79,0,0,1,1.23.66c1,.86,1.45,1.94.69,3.13a2,2,0,0,1-3,.6c-2.37-1.62-5.1-2-7.82-2.6a49.15,49.15,0,0,0,.05,6.31c.52,4,0,7.94-.31,11.89-.55,6.17-1.68,12.29-1.67,18.53,0,1,.28,1.36,1.26,1.37.7,0,1.4.31,2.1.31,1.71,0,2.12,1.07,2.07,2.45-.07,1.62-1.27,2.09-2.6,2a32.83,32.83,0,0,1-4-.74c-.14,0-.39-.06-.42,0s.1.21.23.25c.07.44.53.41.79.63.43.36.85.75.58,1.32s-.93.6-1.55.44c-2-.48-3.73-1.62-5.81-1.75-.05-.15-.13-.32-.3-.19s0,.28,0,.42c.19,2.29.55,4.57.56,6.85a143.6,143.6,0,0,0,1.4,17.94,77,77,0,0,1,.66,8.84C170.36,138.14,171.4,144.28,172.24,150.46Z"/><path d="M189.76,99.13c-.81,1.16-1.61,1.87-2.68,1.35s-1.12-1.6-1-2.63c.38-3.15.85-6.29,1.19-9.44.71-6.55,2.24-13,2.72-19.57.27-3.86.94-7.7,1.46-11.55A1.37,1.37,0,0,1,192.71,56c1-.14,1.11.64,1.39,1.48.69-1.76,1.88-1.2,2.88-.66,9.43,5,14.33,13.41,16,23.49.89,5.35,1.17,11.13-1.27,16.42a63.37,63.37,0,0,1-5.6,9.59,5.63,5.63,0,0,1-6.48,1.51c-2.62-1.27-5.38-2.38-7.48-4.57A9.19,9.19,0,0,1,189.76,99.13Zm4.65-41.45c-.55,7.67-.79,15.15-1.85,22.58-.68,4.7-1,9.46-1.81,14.16-.18,1.11-.39,2.28.51,3.32a22.34,22.34,0,0,0,8.47,6.5,3,3,0,0,0,2,.08c1.93-.52,2-2.42,2.95-3.72,4-5.82,4.94-12.39,4-19.12a35.59,35.59,0,0,0-10.92-20.69C196.72,59.77,195.49,58.92,194.41,57.68Z"/><path d="M267.79,65.51c-.3,10.09-1.57,18.77-6.84,26.35-2.73,3.93-6.26,6.53-11.38,6.24a3.79,3.79,0,0,1-2.69-1.1c-3.5-3.53-7-7.06-7.78-12.31-.09-.55-.38-.8-1-.93-1.69-.34-2.29-1.75-1.19-3,2.56-2.95,3.93-6.55,5.74-9.91,2.69-5,5.28-10.1,8.16-15,1.89-3.22,4.5-6,5.93-9.55a1,1,0,0,1,1.18-.59,1,1,0,0,1,.92.92c0,.36-.07.89.61.5,1-.56,1.54.07,2.27.62,3.74,2.82,4.53,7,5.28,11.19C267.41,61.46,268,64,267.79,65.51Zm-9.16-17.22c-1.27,4.82-4.87,8.22-6.57,12.69a128.72,128.72,0,0,1-9,17.91c-1.17,2-2.52,3.51-.41,5.55,0,0,0,.1.06.16a20.22,20.22,0,0,0,5.77,8.53,2.67,2.67,0,0,0,1.92.73c3.29,0,5.4-1.9,7-4.39,4.12-6.41,5.76-13.57,6-21.1a77.26,77.26,0,0,0-.77-11.68A12.26,12.26,0,0,0,258.63,48.29Z"/><path d="M97.67,58c.31,7.39-6.49,12.74-14.41,9.61a29.54,29.54,0,0,1-12.59-9.46c-1.89-2.41-3.83-4.79-5.68-7.22A21.2,21.2,0,0,1,61,40.34c-.46-3.86,2.41-10.35,8.1-11,1.17-.13,2.29.46,3.49.32s2.3,0,3.47-.83,2.48.47,3.28,1.34a59.17,59.17,0,0,0,5.5,5,14.37,14.37,0,0,1,3.22,4c2.29,4.12,5.41,7.71,7.61,11.9C96.9,53.3,98,55.56,97.67,58Zm-9.51,5.89a3.56,3.56,0,0,0,2.42-.65,7.12,7.12,0,0,0,2-8.75c-2.48-4.7-5.62-9-8.52-13.42-2-3.06-5.38-4.9-7.25-8-1.24-2-2.78-2.11-4.68-2-4.45.2-8.5,4.63-7.87,9a19.61,19.61,0,0,0,3.25,8.08c1.54,2.3,3.83,3.86,5.34,6.12,2.9,4.36,7.14,6.91,11.79,8.93A9.87,9.87,0,0,0,88.16,63.87Z"/><path d="M135.44,15.69c.07-8.06,3.64-13.34,10.41-15.39a7,7,0,0,1,7.68,2.52c.42.61,2.06,1.09.91,2.14-.95.85-1.44-.5-2.06-1-2.29-1.86-6.16-1.33-9,1.19s-4.68,5.65-4.36,9.76c.74,9.39,2.95,18.27,8.33,26.18,1.82,2.68,4.62,3.36,7.46,3.78,1.28.18,1.86-1.32,2.24-2.4a25.62,25.62,0,0,0,1.53-10.74c-.53-6.29-1.15-12.57-2.09-18.81a46.87,46.87,0,0,0-1.2-5.5,6,6,0,0,1-.22-2.1c0-.7-.35-1.72.65-2s1.66.47,2.19,1.19c1.1,1.52,1.34,3.4,1.74,5.13a94.32,94.32,0,0,1,2.27,15.89c.17,3,.28,6,.3,9A28.72,28.72,0,0,1,159.89,45c-1.23,3.22-3.61,4-7,3.42-6.11-1.11-9.37-5.22-12.1-10.33S137.44,27.39,135.82,22C135.19,19.92,135.42,17.81,135.44,15.69Z"/><path d="M162.89,147.55l-4.16-1c-.15-1.6-.28-3.19-.45-4.79a119.92,119.92,0,0,0-3.09-16.8,73.41,73.41,0,0,1-2-10.75c-.4-4.12-.64-8.24-1-12.36-.09-1.13.55-2.69-.45-3.29s-2.31-.14-3.49-.15c-2.81,0-3.59.48-4.67,3.15a35.52,35.52,0,0,0-2.52,13.23q-.06,8.73.44,17.43a129.67,129.67,0,0,0,1.68,15,8,8,0,0,1-3.82.71c-1.25-7.13-1.31-14.36-1.72-21.55A85.33,85.33,0,0,1,138,115.5a46.58,46.58,0,0,1,3.16-15.23,10.33,10.33,0,0,1,2.22-3.54,4.69,4.69,0,0,1,6.35-.68c.44.27,1,.34,1.45.61.91.53,2.33-.09,2.87.91,1,1.77,2.18,3.43,2.35,5.6A133.59,133.59,0,0,0,159,122.61c1.15,5,2.17,10,2.92,15C162.45,140.92,162.59,144.25,162.89,147.55Z"/><path d="M208.94,28.17c.7,7.68-1.86,14.54-5.46,21.1-2.15,3.92-6.53,5.45-10.88,4.86s-6.3-3.31-7.44-7.1c-2.54-8.44-1.95-16.93-.09-25.34a25.29,25.29,0,0,1,4.91-10c3.89-5,10.13-4.57,13.37.9a3.9,3.9,0,0,0,2.1,2.07,3.84,3.84,0,0,1,2.27,2.75A18.14,18.14,0,0,1,209,25.5,23.77,23.77,0,0,0,208.94,28.17Zm-3.72-.46a39.1,39.1,0,0,0-.41-6.7c-.48-2.13-.61-4.3-2.11-6.34-2.52-3.46-7.62-4.13-10-.61A28.46,28.46,0,0,0,188,26.47a56.68,56.68,0,0,0,.65,18.14c.43,2.26,1,4.57,3.41,5.61a6.58,6.58,0,0,0,8.34-2.6c2-3,2.75-6.43,3.93-9.72S205.14,31.13,205.22,27.71Z"/><path d="M217.82,57a56.49,56.49,0,0,1,6.08-8.56c2.54-3.05,4.1-6.73,6.18-10.08a75.23,75.23,0,0,1,6.86-8.79,2.06,2.06,0,0,1,3.41,2.31,24,24,0,0,1-3.72,5.57c-3.34,3.6-5.43,8-8.11,12a29.4,29.4,0,0,1-3.22,4.22,26.51,26.51,0,0,0-4.66,7.46,8.34,8.34,0,0,1-1.55,2.35c-1.05,1.09-2.29,1.94-3.77,1.3A3.84,3.84,0,0,1,212.83,61c.24-6.55,0-13.12.95-19.66A83.88,83.88,0,0,0,214.27,27a39.1,39.1,0,0,1,.34-7.09c0-.35.21-.67.27-1,.15-.86.56-1.41,1.53-1.36s1.21.57,1.4,1.33a21.27,21.27,0,0,1,.63,5.07c.05,3.79.08,7.57,0,11.35-.05,3.48-.51,6.94-.88,10.4a13.28,13.28,0,0,0-.07,3C217.85,51.42,217.54,54.19,217.82,57Z"/><path d="M155.47,87.74c.58-2.51,1.34-5,1.69-7.52.89-6.3,2.2-12.5,3.69-18.68.49-2.06.65-4.21,1-6.31a6.43,6.43,0,0,1,1.54-3.51,1.87,1.87,0,0,1,2.55-.43A2.22,2.22,0,0,1,167,53.83c-1.36,9.3-4.47,18.23-5.93,27.52a91.29,91.29,0,0,1-2.48,10.07c-.59,2.15-1.86,3-4.18,3.09a2.26,2.26,0,0,0-.87.06c-.68.34-1.36.57-1.9-.11s-.27-1.29.43-1.78c.3-.22,0-.52-.11-.78a184.34,184.34,0,0,1-7.27-23c-1.11-4.3-2.09-8.64-3.1-13-.2-.85.19-1.75-.32-2.6-.25-.42.18-.8.6-.9a1.14,1.14,0,0,1,1.48.65,42.93,42.93,0,0,1,1.7,4.59,37.44,37.44,0,0,0,1.82,5.67c2.15,5,3,10.46,5,15.53C153,81.83,154.16,84.76,155.47,87.74Z"/><path d="M179,153.31a6.68,6.68,0,0,1-3.3-1.38c-.79-6.68-1.43-13.36-1.81-20.08A48.16,48.16,0,0,1,179,106.36c1.35-2.61,3.1-4.68,6.38-4.74a4.54,4.54,0,0,1,2.14.68c.89.45,1.37,2,2.8,1.09.09,0,.56.27.66.5,1.89,4.32,3.89,8.58,3.72,13.5A218.07,218.07,0,0,1,193,141.05,109,109,0,0,1,191,152.29a51.92,51.92,0,0,1-1.76,4.89,3.61,3.61,0,0,1-2.18-1c1.82-3.89,2.21-8,2.62-12.26.74-7.71,1.28-15.42,1.51-23.16.11-4,.16-8-1.25-11.82-.52-1.4-.65-3-1.68-4.12-1.33-1.39-4.63-1.13-6.3,1.27a27.52,27.52,0,0,0-3.37,7.28,43.87,43.87,0,0,0-1.88,12.8,126.77,126.77,0,0,0,.52,14.33C177.66,144.82,178.41,149.06,179,153.31Z"/><path d="M205.33,162.9c-1.3-.18-2.68-.14-3.67-1.26.39-2.2,1-4.38,1.13-6.6a107.17,107.17,0,0,0,0-17.37,13.85,13.85,0,0,0-1.33-5.78c-.18-.33-.33-.68-.75-.63s-.27.55-.34.85c-.28,1.21-.23,2.47-.44,3.68-1.35,8-2.79,15.93-4.21,23.89l-3.22-1.39c1.51-8.25,3.08-16.49,4.5-24.76.71-4.1,2-8.08,2.53-12.19a20.92,20.92,0,0,0,.2-5.37,4.4,4.4,0,0,1,.32-1.69c.15-.53.41-1,1.11-.92s.59.73.64,1.22c0,.23,0,.47,0,.71,2-.33,6,2.27,6.64,4.39a15.11,15.11,0,0,1,.8,6.42,5.86,5.86,0,0,1-3.92,4.76c-.58.23-1.3.22-.72,1.27a22.49,22.49,0,0,1,2.47,10,79.39,79.39,0,0,1-1.4,19.94A5.59,5.59,0,0,1,205.33,162.9Zm-3.57-46.18c0,3.78,0,7.42-1,11-.1.35-.34.89.35,1.13a4.9,4.9,0,0,0,4.72-1.6C208.09,123.65,206.72,118.5,201.76,116.72Z"/><path d="M122.94,34a32.7,32.7,0,0,1,4.29,7.33,8.8,8.8,0,0,0,10.26,4.76c.59-.18.58-.68.78-1,.3-.54.68-.95,1.24-.69a1.27,1.27,0,0,1,.83,1.54c-.77,3.7-1.64,4.45-5.48,4.46-5.76,0-10-2.75-12-8.06-1.2-3.17-3.41-5.74-4.78-8.82-3.14-7-6.42-13.95-8-21.55-.22-1.11-1.22-2-1-3.28.25-1.61,1.36-2.28,2.7-1.36.69.47,1.14.24,1.77,0,3.1-1,6.29-1.66,9.34-2.86a1.89,1.89,0,0,1,2.59,2.37,1.28,1.28,0,0,1-1.41,1.07c-3.53-.24-6.82.92-10.18,1.73-.71.17-.67.46-.5.94,2.34,6.5,4.53,13.07,7.49,19.33.73,1.55,1.46,2.23,3.29,1.32,2.39-1.17,5.11-1.57,7.5-2.81a.83.83,0,0,1,1.21.33,1.05,1.05,0,0,1-.37,1.55,16.5,16.5,0,0,1-4.76,2.57C126.23,33.2,124.69,33.55,122.94,34Z"/><path d="M47.08,52c7.06,3.51,12.72,8.6,19.23,12.39,2.7,1.58,5.22,3.46,7.8,5.24a15,15,0,0,1,2,1.69,2.45,2.45,0,0,1,.32,3.5,2.37,2.37,0,0,1-3.5,0,72.05,72.05,0,0,0-8.38-6.28c-6.59-4.49-13-9.19-19.38-14a1.67,1.67,0,0,0-2.35.07,31.88,31.88,0,0,0-5.3,5.71A17.86,17.86,0,0,1,36,62.12a1.37,1.37,0,0,1-1.88.28,1.47,1.47,0,0,1-.44-2c1.7-3.64,3.44-7.23,7.07-9.46s6.82-5.27,10.14-8a13.18,13.18,0,0,1,3.08-2c1-.42,2.21-.55,2.86.61a2.21,2.21,0,0,1-.56,2.88,20.77,20.77,0,0,1-2.91,2.59C51.05,48.3,49.46,50.5,47.08,52Z"/><path d="M240.32,108.22c-4.65-.67-9.56-5.46-8.62-11.43.22-1.39,1.09-2.54,2.33-2.55,3.51,0,7.21-.1,9.76,3a14.6,14.6,0,0,1,3.63,8,5,5,0,0,1-1.6,4.12,36.54,36.54,0,0,1-6.9,5.54,28.32,28.32,0,0,0-6.72,6.21,113.75,113.75,0,0,1-10.4,10.43,2.21,2.21,0,0,1-3.34,0,2.38,2.38,0,0,1-.12-3.37,9.53,9.53,0,0,1,1.92-1.83c4.74-3.59,8.53-8.17,12.8-12.24a52.7,52.7,0,0,1,5.23-4A5.18,5.18,0,0,0,240.32,108.22Zm-3.46-10.15c-1.64-.06-1.8.11-1.58,1.63.35,2.46,3.3,5.37,5.73,5.41a4.52,4.52,0,0,0,2.94-.83c.44-.44-.62-1.4-1.12-2.07s-.92-1.22-1.36-1.84A5.17,5.17,0,0,0,236.86,98.07Z"/><path d="M70.28,82.74c-1.22.1-1.76,1.15-2.42,1.91-1.62,1.87-3.1,3.87-4.65,5.81A6.7,6.7,0,0,1,62,91.74a1.51,1.51,0,0,1-2.1,0c-.55-.55-.39-1.21-.1-2s1.86-1.36,1.06-2.33c-.48-.59-1.71-.59-2.62-.79-5.69-1.22-11-3.69-16.64-5.07a63.84,63.84,0,0,1-15.26-6.17c-.53-.28-.8-.27-1.09.33a10.83,10.83,0,0,0-1.37,2.82.88.88,0,0,1-1,.76c-.52-.06-.69-.45-.76-1a9,9,0,0,1,1.1-4.73,17.3,17.3,0,0,1,4-6.36,12.7,12.7,0,0,1,1.26-1c.94-.64,1.88-.77,2.63.26a1.72,1.72,0,0,1-.4,2.5c-.79.71-1.61,1.38-2.41,2.08s-.79,1.3.35,1.68c5.39,1.77,10.63,3.93,16.14,5.42,6,1.63,12.1,2.88,18.06,4.65,1.15.34,1.85.25,2.46-.88a7.51,7.51,0,0,1,1.64-1.84,2.16,2.16,0,0,1,2.39-.65,2,2,0,0,1,1.28,2.24l.05-.06c-.43.27-.79.57-.39,1.13Z"/><path d="M109.7,157l-3.81,1.29c-3.16-6.67-6.51-13.25-9.88-19.83-2-3.93-3.35-8.2-5-12.32-.57-1.41.33-2.36,1.15-3.25.32-.34.86-.34,1.32.26a45.65,45.65,0,0,1,3.28,4.15c2.08,3.41,5,6.19,7,9.74,2.7,5,5.68,9.73,8.56,14.58.72,1.21,1.48,2.4,2.23,3.6a6.93,6.93,0,0,1-3.89,1.35L104,144.59c-.12-.23-.24-.47-.35-.71l-5-8.92-.46-.47c-.18.31-.14.54.22.67a47.59,47.59,0,0,0,5,8.94c0,.28,0,.6.39.68C105.26,149.07,107.84,152.85,109.7,157Z"/><path d="M231,83.49a10.44,10.44,0,0,0-5,.83,1.23,1.23,0,0,1-1.74-.61c-.37-.75.2-1.22.86-1.48,2.54-1,5.29-1.32,7.88-2.25,1.58-.57,3,1.89,2.34,3.72a15.81,15.81,0,0,1-2.53,3.83c-2.37,3.1-3.72,6.9-6.23,9.83-4.74,5.54-7.95,12.16-12.78,17.61-.44.5-.32.75,0,1.18a15.43,15.43,0,0,1,1.5,2.19,2,2,0,0,1-.77,2.93,2.09,2.09,0,0,1-3.12-.6,57,57,0,0,0-5.53-7.12c-.41-.5-.84-1-.37-1.74a1.68,1.68,0,0,1,1.58-.9c.24,0,.54-.06.7.06,2.32,1.67,3.44,0,4.61-1.61,3.66-5,7-10.22,11-15,2.33-2.78,3.56-6.38,6.07-9.1C230,84.75,230.45,84.19,231,83.49Z"/><path d="M292.29,108.89c-2.79-2.93-2.13-6.65-2.19-10.2A2.85,2.85,0,0,1,292,95.63,3.73,3.73,0,0,1,296.31,97c2.11,2.79,2.32,6,1.91,9.25a3.34,3.34,0,0,0,0,1.69,2.76,2.76,0,0,1-2.22,3.67,2.43,2.43,0,0,0-1,.37c-4.57,3.14-10,4.64-14.54,7.88-3.06,2.19-6.18,4.3-9.17,6.58-1.94,1.48-4.14,2.48-6.18,3.78a2.06,2.06,0,0,1-3-.54,2.11,2.11,0,0,1,.54-2.86,4,4,0,0,1,.69-.56c3.33-1.78,6.36-4,9.5-6.13,1.62-1.08,3.16-2.28,4.73-3.42C282.11,113.47,287.34,111.59,292.29,108.89Zm3.92-4.08c.36-2-.64-3.69-1.72-5.37a1.41,1.41,0,0,0-.82-.58c-.4-.08-.41.41-.42.63,0,2.49-.39,5,1.13,7.28.4.6.7.85,1.5.61,1.05-.31.44-.85.39-1.35C296.23,105.68,296.23,105.32,296.21,104.81Z"/><path d="M253.45,105.87c0-.68-.26-1.51.75-1.71s1.3.59,1.58,1.32a.8.8,0,0,1,.08.16c1.15,3.14,1.32,3.27,3.71,1,4-3.86,8.71-6.92,12.9-10.57a104.36,104.36,0,0,0,11.35-11.49c.36-.42,1-1,.81-1.43s-1.17-.72-1.86-.75a15.92,15.92,0,0,1-4.11-.74c-.59-.17-1.17-.4-1.07-1.16s.9-.65,1.42-.59c2.49.28,5,.31,7.42,1.11,2.11.7,2.55,2.58,1.16,4.48-4.87,6.66-10.28,12.79-17,17.7a39.83,39.83,0,0,0-7.71,6.79,5.39,5.39,0,0,1-1.48,1.26c-1.45.8-2.56,1.59-1.84,3.62a1.88,1.88,0,0,1-1.5,2.43,2.2,2.2,0,0,1-2.8-1.57,29.29,29.29,0,0,1-1.45-6.68C253.72,108,253.57,106.93,253.45,105.87Z"/><path d="M176.9,48.52c-3.24.4-6.79-2.39-8.1-6.24-.87-2.54-2.15-4.94-2.53-7.65-.33-2.29.11-4.61-.47-6.89-1-3.83-.19-7.62.45-11.41a36.39,36.39,0,0,1,1.53-6.3,13.62,13.62,0,0,1,3.62-5.14,2.46,2.46,0,0,1,1.74-.77c3.6.2,7.32-.07,10.37,2.51.61.52,1.1,1.12.69,1.78s-1.08,0-1.67-.14a21.57,21.57,0,0,0-8.72-.69c-.56.06-.92.63-1.31,1.09-2.32,2.7-2.47,6-2.79,9.3-.13,1.35-.51,2.65-.66,4a10.07,10.07,0,0,0,.23,4.39c1.1,3.31.52,7,1.85,10.2,1.09,2.63,1.66,5.55,4.12,7.46a9.76,9.76,0,0,0,2.63,1.39c.75.28,1.15.34,1.46-.52.2-.56.62-1,1.35-.68s.48,1.05.35,1.56C180.43,48,179.64,48.53,176.9,48.52Z"/><path d="M124.35,92.66c.91,1.81.29,5.23-1.18,6.48-.13.11-.28.3-.43.29-4.36,0-8.79.19-11.71-4.08-1.19-1.76-2.6-3.37-3.85-5.09-3.5-4.79-6.65-9.77-8.18-15.61a21.49,21.49,0,0,1-.55-7.39c.45-5.06,7-7.93,11-4.91a6.27,6.27,0,0,1,1.08,1.16c.33.41.44.87-.06,1.24a.8.8,0,0,1-1.24-.21c-1.23-1.94-3.22-1.28-4.6-.82a4.58,4.58,0,0,0-3.13,4.08c-.61,5.45,1.56,10,4.31,14.36a93.2,93.2,0,0,0,7.89,10.45,7.56,7.56,0,0,0,6.65,3c1.14-.07,2-.24,2.34-1.59a1.61,1.61,0,0,1,1.66-1.3Z"/><path d="M127,151.3c-1.11,1-2.56,1-3.93,1.24-4.75-13.35-8.1-27.13-12.19-40.68a3.53,3.53,0,0,0-2.2,1.27,1.11,1.11,0,0,1-1.68.26c-.74-.64-.17-1.22.13-1.69a5.29,5.29,0,0,1,1.36-1.39,36.31,36.31,0,0,1,6.91-4.13,4.18,4.18,0,0,1,1.73-.25,1.24,1.24,0,0,1,1.14.94c.16.43-.3.76-.63,1-1.6,1.13-3,2.6-5,3.13,2.8,3,3.64,6.73,4.6,10.42,1.41,5.42,3.2,10.72,4.76,16.1C123.34,142.22,124.62,147,127,151.3Z"/><path d="M119.84,153.7a7.51,7.51,0,0,1-3.49,1,125.46,125.46,0,0,0-6.44-15.33c-2.53-5.26-5-10.55-7.35-15.91-1-2.34-2.42-4.53-2.87-7.13-.18-1-.41-2,.6-2.46,1.22-.59,1.77.45,2.31,1.32,2.82,4.55,4.74,9.52,6.74,14.45,1.67,4.12,3.68,8.08,5.68,12A78.33,78.33,0,0,1,119.84,153.7Z"/><path d="M226.87,72.09c-1.84,0-2.53-1.49-1.64-3.35s2.2-3.06,3.25-4.64a44.09,44.09,0,0,0,4.23-6.91C233.94,54.3,236,52,238,49.71c2.54-2.94,3.78-6.63,5.73-9.91a27.51,27.51,0,0,1,1.57-2.54c.45-.63,1-1.19,1.93-.63a1.49,1.49,0,0,1,.71,2.11c-2.67,4.93-4.2,10.53-8,14.76-2.84,3.14-4.16,7.08-6.35,10.56a57.62,57.62,0,0,1-5.12,7.2A1.83,1.83,0,0,1,226.87,72.09Z"/><path d="M211.66,164.33a7.16,7.16,0,0,1-3.89-1c.89-3.64,1.33-7.37,2.43-11,1.19-3.92,3.1-7.54,4.41-11.4.45-1.31,1-2.6.08-4a1.15,1.15,0,0,1,.59-1.65c.75-.38,1.25.16,1.62.65,1.38,1.84,2.56,3.81,4.07,5.56.7.81,1.48,1.53,2.17,2.33,1.34,1.57,1.5,3.44.35,4.65-.77.82-1.69.94-2.07-.22-.82-2.55-2.93-4.25-4.2-7.06-1.07,3.31-2,6.23-3,9.16-.4,1.28-.65,2.61-1.09,3.88s.07,1.76,1.21,1.85,2.13,0,3.2.06a6.37,6.37,0,0,1,1.58.13c1.06.31,1.85.95,1.46,2.2s-1.58,1.14-2.37.74c-1.81-.89-3.78-1-5.76-1.67C212.2,159.9,211.93,162.11,211.66,164.33Z"/><path d="M247.34,174.85a1.39,1.39,0,0,1-1-.8,11.91,11.91,0,0,0,4.41-2.1c1.3-.92,1.06-1.69-.34-2.31a11.56,11.56,0,0,0-3.27-.48,14.47,14.47,0,0,0-7.85.9,2.05,2.05,0,0,1-1.53-.62c2.79-1.9,5.93-2,9.13-1.7,1.16.12,2.32.37,3.47.56s2,.44,2.31,1.58a2.57,2.57,0,0,1-1.23,3.05A18,18,0,0,1,247.34,174.85Z"/><path d="M38.6,172.55c-.16.16-.3.43-.49.46-1.1.19-2.41.08-2.2,1.84l-.47-.12c-.2-.41-.41-.83-.6-1.25a1.11,1.11,0,0,1,.4-1.39,1,1,0,0,1,1.29,0A2.18,2.18,0,0,0,38.6,172.55Z"/><path d="M39.23,171.83c.11.35-.22.39-.38.56C38.85,172.12,38.93,171.9,39.23,171.83Z"/><path d="M29.26,196.47c1.63-.74,3.12-1.09,4.54.59a6.44,6.44,0,0,0,2.61,1.44c1.92.75,2.9,2.36,3.91,4a1.29,1.29,0,0,1,.28,1.17c-.23.61-.66,1.07.33,1.61.55.31-.39.95-.6,1.46-.44,1-.95,1.95,1,2,1.19,0,2.48.85,2.9-1.08a.52.52,0,0,1,.3.75c-.1.28-.3.51-.09.94a16.22,16.22,0,0,1,1.7,0,1.82,1.82,0,0,0,1.78-.92c.28-.61-.73-.72-1.12-1.11-1.17-1.18-2.38-2.32-3.49-3.54a2.28,2.28,0,0,1-.33-2.66c.45-.79,1.38-.51,2.23-.47,2.61.11,4.21,1.81,5.73,3.51s.9,3-1.22,4.18a3.42,3.42,0,0,0-1.56,2.61c-.05.84-.26,1.15-1.07,1.24a31.77,31.77,0,0,0-11.25,3.32c-1.76.9-3.43,1.84-4.35,3.66-.43.85-.81.71-1.13,0-.85-1.79-2.27-2-4-1.58-.44-.42-.33-.82,0-1.23a4.15,4.15,0,0,1,4.31.68c.22.19.42.48.68.09.87-1.34,2.44-1.91,3.52-3.17L26.4,212.3c-.32-.29-.49-.59-.06-.92a34.12,34.12,0,0,0,5.39,1.1c1.63.23,3.52,1.15,4.84.62,2.59-1,5.26-1.68,8.19-2.55-1.85-.45-3.4-1.14-4.92-1.08-1.33.05-1-.51-.89-1.14.27-1.1.64-2.18,1-3.35-1.83.3-2,.33-1.89.73.35,1.79-.85,1.23-1.59,1-3-.95-6-2-9-3a.68.68,0,0,1,0-.88c1.77.17,3.4,1,5.8,1-2.52-1.52-4.33-3-4.45-5.67Zm9,7.62c.14,0,.82.12,1.17-.46s-.11-1-.39-1.45A7.41,7.41,0,0,0,36,199.34a25.72,25.72,0,0,1-4.39-2.57c-.88-.67-1.41-.27-1.68.64a3.6,3.6,0,0,0,1.4,3.92A10.59,10.59,0,0,0,38.29,204.09ZM49.15,207a.89.89,0,0,0,1.21-.47,1.59,1.59,0,0,0-.34-1.79,8.18,8.18,0,0,0-5.23-3.27c-.31,0-.58-.54-.93-.16a1,1,0,0,0,0,1.17A9.69,9.69,0,0,0,49.15,207Z"/><path d="M75.89,190.73c-.73.51-2.26.13-2,1.82,0,.23-.42.3-.68,0a6.42,6.42,0,0,0-.88-.85c-.88-.61-1.69-.81-2,.57,0,.12-.07.23-.09.34-.23,1.57-2.39,3.24.92,4.61l-.74.19-1.57-1c.12,1.22-.53,2.29.38,3.24.21.23.22.42,0,.57a.88.88,0,0,1-1.15-.05c-1.35-1.33-3.08-2.31-2.56-4.84.33-1.6.58-3.57-1.25-4.89-.29,1.45-.56,2.82-.82,4.19-.11.6-.35,1.4-.92,1.29s-.46-.88-.3-1.5c.55-2.22,1-4.46,1.53-6.7.41-1.93,1.44-2.33,3.07-1.13.24.17.45.37,1,.8a21.35,21.35,0,0,1-.32-6.35c1,1,2.4,1.58,2.49,3.23.1.52.18,1,.28,1.55a3.23,3.23,0,0,0,3.59,2.72A3.42,3.42,0,0,1,75.89,190.73Zm-8.41,5.47c.71-1.62,1.3-3,1.9-4.34.5-1.16.62-2.2-1-2.86.7,1.76-2,1.57-1.6,2.91a13.29,13.29,0,0,1,.66,3.78C67.42,195.75,67.43,195.81,67.48,196.2Zm-3-7.5c-.23.76.3,1.29,1.37,1.33.54,0,1.31.09,1.24-.75a2.7,2.7,0,0,0-1.83-2.57C64.51,186.54,64.62,187.69,64.48,188.7Z"/><path d="M263.05,204l-.78.64c-.11-.12-.23-.19-.24-.27-.1-.67.79-1.41,0-2a2.29,2.29,0,0,0-2.36.12,19.77,19.77,0,0,0-5.61,4.25,1.2,1.2,0,0,0-.44,1.22c.12.33,1.09.32.45.95a1.25,1.25,0,0,1-1.51,0,1.05,1.05,0,0,1-.66-1.26,5.74,5.74,0,0,1,1.77-2.76l.37-.49c-.3-.18-.5-.07-.65.22-.35,0-.71,0-1.06,0-2.1,0-2.46-.33-2.47-2.48v-1.24c-2.58.14-2.94-.33-2.55-2.88.51-3.26,2.14-6.16,2.92-9.33.17-.7.65-.54.88-.24a37.14,37.14,0,0,0,3,2.74c.35.37.62.77.42,1.26s-.65.6-1,.08c-.12-.17,0-.52-.13-.66-.64-.68-1.34-1.3-2.15-2.07a32.42,32.42,0,0,0-1.73,5.4c-.37,1.15,1.28.8,1.38,1.66-.64.62-1.17-.93-1.79-.05s-.22,1.61-.33,2.41c-.09.64.35.75.77,1,.67.35.66-.26.84-.55a15.27,15.27,0,0,1,2.63-3.31c1.56-1.39,4-1.68,5-.57s.84,3.73-.67,5.24c-.56.56-1.09,1.16-1.92,2,2.31-.78,4-2.32,6.25-2.05A3,3,0,0,1,263.05,204ZM251,201.81c-.08,1.72.6,2.25,2.09,1.43a9.61,9.61,0,0,0,4.49-5.33c.53-1.55-.09-2.23-1.71-2C253.75,196.23,251.07,199.48,251,201.81Z"/><path d="M45.61,174.66c2,.18,4-.53,6,0a10.66,10.66,0,0,1,2.46.9,2.36,2.36,0,0,1,1.59,2.3,2.25,2.25,0,0,1-1.91,2c-3.72.74-7.25,2.57-11.2,2.08-.53-.06-1.18-.28-1.2.75s.61.93,1.26.89c2.73-.16,5.28-1.28,8-1.53,2.53-.24,5.06-.39,7.59-.58.4,0,.68.15,1,.64a15.06,15.06,0,0,1-5.37.7c-4,.07-7.78,1.36-11.75,1.53-1.29.05-.1,1.47-1.09,2.11-.76-2.5-.84-5.14-1.8-7.52C40.5,176.36,43,175.44,45.61,174.66Zm-2.56,6.45c3.34-.15,6.41-1.32,9.5-2.43.65-.23,1.55-.55,1.52-1.2s-1-1.13-1.71-1.31a16.76,16.76,0,0,0-9.85.75,3.8,3.8,0,0,0-1.62,1.33c-.4.5-1,1.08-.49,1.72s.76,1.39,1.77,1.15A3.68,3.68,0,0,1,43.05,181.11Z"/><path d="M216,196.4c2.62.91,3.7,2.33,3.61,4.94,0,.79.1,1,.94,1.24a11.44,11.44,0,0,1,5.87,3c1,1.06,1.41,2.14.46,3.43h0c-.65.53-1.69.57-1.59,1.91.06.82-1,1.08-1.76,1.15-2.91.26-5.66-.68-8.45-1.32-.65-.15-.38-.6-.29-1,.26-1,.53-1.93.79-2.9.13-.48.32-1,.91-.83s.16.67,0,1.06c-1.11,3.55-.81,2.69,2,3.23.18,0,.36,0,.53.07.64.12,1.38.4,1.51-.61.11-.79.73-1.65-.49-2.27A5.77,5.77,0,0,1,216.7,204c-.12-.47-.51-.59-.92-.73a4.62,4.62,0,0,1-3-3.62c0-.61.44-.72.94-.71a3.34,3.34,0,0,0,2.83,3.51c1.19,0,2.06-.39,2.08-1.81,0-1.94-1.23-3.26-3.4-3.54A.82.82,0,0,1,216,196.4Zm3.52,7.13c-.65.14-1.31-.23-1.59.38s.32,1.07.79,1.4a17.53,17.53,0,0,0,5.54,2.5c.43.12,1.1.39,1.46-.15s-.11-1.15-.51-1.49A11.66,11.66,0,0,0,219.49,203.53Zm2.3,5.3c.31.64-.76,1.59.45,1.85.68.14,1.69.08,1.67-.77C223.89,208.74,222.61,209.09,221.79,208.83Z"/><path d="M218.84,194.71a23.89,23.89,0,0,0,2.72,3.22c.33.39,1.22.8.55,1.37s-1-.4-1.31-.76c-1.2-1.22-2-2.8-3.33-3.88a1.64,1.64,0,0,1,1.61-1.41,10.59,10.59,0,0,0,4.76,1.84l-2.27-4.47c-.23-.51.11-.55.48-.57,1.11,1.72,2.3,3.4,3.31,5.18.53,1,.2,2.37,1.81,2.92-1.74-.26-2.12.59-1.85,1.83a7.36,7.36,0,0,0,3.7,5.08c.23.13.52.34.68-.11a1.81,1.81,0,0,0-.18.23l.23.09-.11-.3a9.88,9.88,0,0,1-.12-7.55c.26-.73.69-1.11,1.44-1,.4.06,1.23-.14.82.82-.34,0-.71,0-.94.34-1.08,1.55-.75,6,.54,7.36.37.38.77.87,1.33.73.73-.19.38-.89.41-1.36a12.41,12.41,0,0,0-1.38-5.91c-.19-.42-.56-.8,0-1.2,1.29.11,1.36,1.33,1.75,2.12a10.66,10.66,0,0,1,1,5.63c-.07,1.09-.45,1.93-1.75,2-3.77.11-6.35-1.66-8-5a4.34,4.34,0,0,1-.2-4.2c.39-.69,0-.74-.44-.95-1.71-.77-3.4-1.57-5.1-2.36-.14,0-.37-.1-.41-.05S218.67,194.67,218.84,194.71Z"/><path d="M253.87,239.42a27.84,27.84,0,0,1-7.3-5.11,1.7,1.7,0,0,0-.72-.47c-.5-.13-1.62.64-1.37-.47.18-.84,1.19-1.57,2.13-2,.21-.09.41.18.38.45-.08.84.75.9,1.16,1.42-.44-2.3.46-4,1.75-5.75a2.44,2.44,0,0,1,2.68-1c3.27.33,6.57.3,9.82.89.18.64,0,1.08-.7,1.2-3.36-.15-6.72-.31-10.08-.43-1.17,0-2.36,1.43-2.43,2.94-.07,1.31,1,1.59,1.87,1.66,2.57.2,5.16.31,7.56-1a2.1,2.1,0,0,1,1.65-.42c-.72,1-1.29,2.07-2.49,2.56-3.17.92-6.3,1-9.36-.65,1.66,2.42,4.2,3.43,6.4,4.9A1.22,1.22,0,0,1,253.87,239.42Z"/><path d="M264.52,219.65a25.17,25.17,0,0,0-6.87.44,39.27,39.27,0,0,1-4.06.38c-.58,0-1.53-.14-1.46-.68.28-2.23-1-1-1.76-.87a19.6,19.6,0,0,1-4,.37c-1.08,0-2.32-.31-2.65,1.31a.56.56,0,0,1-.86.29.75.75,0,0,1-.4-.9,13.45,13.45,0,0,0,.42-3.22c2.5,1.95,5.18.89,7.92.87-.38-.81-1.09-.93-1.59-1.43,1.87,0,3,.61,3.67,1.85l11.7-4.66c.49.32.38.78.28,1.23L255.19,219l.11.3,9.26-1A1,1,0,0,1,264.52,219.65Z"/><path d="M245.69,180.67l-5.61.5c1.78.2,3.46.72,5.19,1,.56.1,1.19.3,1.18.86s-.75.55-1.25.58c-2.19.14-4.27-.64-6.42-.9a60.29,60.29,0,0,1-6.11-.87c-1.9-.43-3.52.42-5.2,1a31.64,31.64,0,0,1,2.95-4.64,1.54,1.54,0,0,1,1.69-.61c-.05,1.14-.76,2.07-1.09,3.24l11.66-1.29-8.18-2.11c1.12-.57,2.32-.06,3.47-.23a10.07,10.07,0,0,0,4.51,1C243.69,178.89,245.17,179.13,245.69,180.67Z"/><path d="M225,243.5c0-1.42-.33-2.79-.19-4.24.17-1.65.65-3,2.07-3.87,1-.59,2.25,0,4,1.57.51-.42-.46-1.48.52-1.53.69,0,.9.83,1.13,1.43,1.34,3.43,2.37,7,4.26,10.17a2.44,2.44,0,0,1-1.44,0,44.88,44.88,0,0,1-2.78-6.24c-.32,2.27-.37,4.15-1.08,5.92-.46.44-.71.16-.92-.27,1.46-3.35.92-7.38-1.24-9.4-1.29-1.21-2.36-1.05-2.93.63-.95,2.78-.17,5.42,1,8-1-.31-1.91-.61-2.19-1.76,0-.21.09-.45-.26-.42Z"/><path d="M263.76,223.59c-2.85-.21-5.66.52-8.49.41a23.69,23.69,0,0,0-4.06.64.64.64,0,0,0-.41.31c-1.25,2.42-3.3,1.39-5,1a12.82,12.82,0,0,1-4.31-1.32c-.43-.26-.95-.38-.78-.94s.81-.66,1.35-.49c1.28.39,2.54.84,3.83,1.21a6.72,6.72,0,0,0,1.56.18c.54,0,.78-.15.49-.74a2.23,2.23,0,0,1-.15-.86c0-.79.06-1.6.87-1.94s1.37.18,1.85.72a16.26,16.26,0,0,1,1.09,1.43c.54-.29.51-2.52,1.9-.51.33.47,1.93.2,2.92.05a40.11,40.11,0,0,1,7.43-.15A.59.59,0,0,1,263.76,223.59ZM249,221.91c-.17,1.17-.34,2.09.59,2.63.34.2.66-.24.75-.58C250.55,223,249.85,222.53,249,221.91Z"/><path d="M37.51,241.1c.89-2.33,1.51-4.79,2.88-6.92.55-.86-.11-1.31-.44-1.86s-.59-1.1.12-1.5,1,.12,1.39.62c.87,1,1.22,2.65,3.07,2.69.47,0,.64.89.8,1.47.73,2.78,1.5,5.54,2.26,8.31-.43.57-.8.13-1.2,0l-2-6.41-.34,0-.66,5.64c-.36,0-.8.14-1-.33q.51-3.82,1-7.65c0-.14,0-.27,0-.41l-.25.22a1.68,1.68,0,0,0-2,1.07c-.92,1.86-1.85,3.71-2.6,5.65A.76.76,0,0,1,37.51,241.1Z"/><path d="M51.3,244.21a22.43,22.43,0,0,1-.31-4.56,3,3,0,0,1,1.56-3.09c1.18-.5,2,.61,2.76,1.38a4.23,4.23,0,0,1,.43.76c.14-.42.19-.51.21-.61.11-.58-.88-1.35,0-1.68s1,.78,1.24,1.35a38.49,38.49,0,0,0,3.27,6.78H58.86l-1.61-3-.28.11.78,3a1.42,1.42,0,0,1-1.41,0c-.5-2.08-.94-4.19-2.47-5.84-.72-.78-1.35-.58-1.39.36-.07,1.73-.41,3.52.33,5.21A1,1,0,0,1,51.3,244.21Z"/><path d="M211.8,211.78c.51.57,2.46.24,1.13,2-.33.43.46.75,1,.53a23.93,23.93,0,0,1,5.62-1.24c1-.12,1.91.41,2.9.19a.55.55,0,0,1,.58.71.87.87,0,0,1-.93.64,18.15,18.15,0,0,0-5.09.39,6.33,6.33,0,0,0-3.39,1.68l6.52.44c.47,0,.94,0,1.42,0s1.15.13,1.09.8c0,.5-.55.69-1.08.65l-6.9-.54-1.93-.14a1.58,1.58,0,0,1-.65-1.54C212.37,214.81,211.8,213.32,211.8,211.78Z"/><path d="M26.69,222.12a177.58,177.58,0,0,1,17-6.45c.66-.21,1.33-.42,2-.58.41-.1.88-.14,1,.41a.8.8,0,0,1-.58,1c-.75.29-1.53.53-2.28.83-5.56,2.28-11.38,3.76-17.08,5.62C26.27,222.69,26.64,222.39,26.69,222.12Z"/><path d="M264.24,208.56a3.79,3.79,0,0,0-3.38-.48c-2.54.82-5.29,1.36-6.7,4.12-.62,1.2-.25,1.37.89,1.39a13.53,13.53,0,0,0,9.46-3.32c0,.42,0,.84,0,1.26-3,2.69-6.55,3.33-10.39,3.13-1.66-.08-1.93-.54-1.37-2.11a6.16,6.16,0,0,1,3.86-4c2.37-.9,4.58-2.25,7.26-1.45C264.26,207.49,264.73,207.89,264.24,208.56Z"/><path d="M60.89,244.24c-.57-2.27-1.12-4.54-1.72-6.8-.17-.66-.37-1.38.33-1.69s1.18.13,1.58.76a7.53,7.53,0,0,0,2.33,2.77c-.07-1.23-1-1.88-1.38-2.81-.19-.48-1.09-1-.39-1.45s1.15.41,1.45.91a34,34,0,0,1,3.25,6,3.26,3.26,0,0,0,.36.58c-.12.79-.76.85-1.37.94-1-1.84-2.66-3-4.34-4.46-.12,1.91.59,3.37.88,4.91C61.59,244.19,61.32,244.48,60.89,244.24Z"/><path d="M27.75,228a15.3,15.3,0,0,1,5-5.17,4,4,0,0,1,.73-.51c1.09-.46,2.35-1.07,3.29-.1s.56,2.13.11,3.18c-1.34,3.19-3.3,5.73-6.93,6.47-.58-.07-.77-.4-.64-1,3.62-.44,5.19-3.06,6.46-6,.26-.63.57-1.26,0-1.77s-1.13.06-1.6.31a13,13,0,0,0-5.67,6.31C27.56,229.38,27.59,228.7,27.75,228Z"/><path d="M82.72,204.78c-.39.07-.74.39-1.28.05.33-.51,1.5-.75.93-1.63a1.82,1.82,0,0,0-2.24-.57,13.06,13.06,0,0,0-4,1.79c-1.09.85-1.85,1.87-.67,3.25-1.5.24-1.61.12-1.7-1.21a2.76,2.76,0,0,1,1-2.51c2.29-1.67,4.7-3.12,7.93-2.15a14.4,14.4,0,0,1-.72-5.3c1.08,1.16,2.16,2.31,3.22,3.47.2.21.41.45.13.75A26.39,26.39,0,0,0,82.72,204.78Z"/><path d="M237,247c0-3.21-1.35-6.17-1.85-9.3-.11-.69-.58-1.49.12-1.9.9-.55,1.28.36,1.71,1a43.68,43.68,0,0,0,7,8.49c-.42.62-1.05.25-1.59.34-2.23-1.73-3.79-4.09-5.67-6.2-.3,1.38.5,2.46.72,3.66s.45,2.42.68,3.63C237.86,247.15,237.43,247.05,237,247Z"/><path d="M66.94,180.43c-.54,1.82-3.86,2.1-5.47.37a9.07,9.07,0,0,1-2.26-5.4,4,4,0,0,1,.28-2.44c.85.72,2,1.08,2.62,2.07.07,3.53,1.21,4.81,4.59,5.14Z"/><path d="M73.47,229.83c-1.83-.43-2-.78-1.34-3.34a20.62,20.62,0,0,1-7.68-2.27c-.48-.23-1.26-.54-.88-1.28s1.08-.56,1.7-.25a16,16,0,0,0,4.36,1.65c.56.09.87.24.88-.47,0-1,.47-1.45,1.45-1.21s.83,1.14.75,1.88c0,.5-.58.92-.22,1.58.79-.75,1.62-1.54,2.83-.81.29.47.1.71-.38.81-1.38-.33-2,.3-2.3,1.61-.18,1,.18,1.42,1.17,1.37C74.4,229.67,73.45,229.53,73.47,229.83Z"/><path d="M27.4,204.55c2.24,2.12,5.39,2.58,7.87,4.27.47.32,1.22.36,1.09,1.15-.15.95-1,.71-1.56.71a35.7,35.7,0,0,0-8.45.47c-.54-.36-.18-.68,0-1l7.29-1.06c-2.22-1.52-4.68-2.13-6.58-3.72C27.05,205,27,204.71,27.4,204.55Z"/><path d="M248.55,243.54c-2.33-1.81-4.14-4.15-6.26-6.17-.75-.73-2.07-1.9-1.38-2.66s1.58.64,2.26,1.24c2.46,2.16,4.34,4.92,7,6.87C249.73,243.28,249.31,243.79,248.55,243.54Z"/><path d="M224.56,187.11a10.77,10.77,0,0,0,3-1c.36.7-.2.69-.44.8-1.94.89-1.92.87-.71,2.71a29.38,29.38,0,0,1,2,3.34c.44.91.59,2,2,1.71a.5.5,0,0,1,.6.5c.05.57-.42.64-.81.73a12.15,12.15,0,0,1-4.09-.49c2.31-.5,1.34-1.74.91-2.77a30.62,30.62,0,0,0-2.86-4.84C224.28,187.59,224.42,187.35,224.56,187.11Z"/><path d="M80.2,212.51a7.53,7.53,0,0,1-3.62.45c-1.62-.36-2-1.18-1.25-2.66A6.59,6.59,0,0,1,82,207.46a1,1,0,0,1-.3,1c-2.14-.72-3.57.61-5,1.78a1.28,1.28,0,0,0-.48,1.26c.13.49.72.5,1.17.59,1.19.25,2.14-.58,3.25-.7C80.92,211.92,80.26,212.11,80.2,212.51Z"/><path d="M244,245.31c.33-1.15-.59-1.83-1.07-2.63-1.21-2-2.54-3.91-3.78-5.89-.27-.43-.94-1-.24-1.48s1.06.19,1.36.67a90.21,90.21,0,0,1,5.1,9C245,245.5,244.41,245.13,244,245.31Z"/><path d="M32.47,235.87a67.58,67.58,0,0,1,4.89-7.51c.25-.33.42-.85.88-.61s.31.8,0,1.21c-1.33,1.94-2.69,3.86-4,5.81a4.2,4.2,0,0,0-1.06,3.06A1.85,1.85,0,0,1,32.47,235.87Z"/><path d="M48.06,243.91c-.22-2.28-.45-4.55-.63-6.83,0-.45-.29-1.22.55-1.21.65,0,.49.66.53,1.11.25,2.34.51,4.67.76,7A.81.81,0,0,1,48.06,243.91Z"/><path d="M68.82,239.56a14.93,14.93,0,0,1-3.64-4c-.22-.42-.59-.88-.15-1.26.6-.52,1,.14,1.26.5.61.71,1,1.57,1.71,2.22.46.46.79,1.46,1.82.92C69.56,238.53,69.48,239.22,68.82,239.56Z"/><path d="M211,205.67c.9.66,1.79,1.33,2.71,2,.67.48,1.18,1,.83,1.9l-2.79.17Z"/><path d="M77.75,218.81a10.73,10.73,0,0,1-1.39-.14,1,1,0,0,1-.79-.83.92.92,0,0,1,.6-1c1.07-.53,2.18-1,3.28-1.51a1,1,0,0,1,0,.35C79,216.8,78,217.6,77.75,218.81Z"/><path d="M221.65,239.64c.13-1.63.28-3.27.41-4.91,0-.42,0-1,.52-.95s.59.61.54,1.08l-.69,6.49C221.63,241,221.83,240.25,221.65,239.64Z"/><path d="M217.7,232.18c.37-.4.37-1.32,1.14-1.07.54.17.73.84.76,1.46a20.73,20.73,0,0,1,.28,4.38Z"/><path d="M210.55,202.78l4.39,1.16c.54.15,1.13.47,1,1-.22.77-1,.51-1.48.3a19.31,19.31,0,0,0-3.72-1.43C210.48,203.52,210.16,203.2,210.55,202.78Z"/><path d="M71.35,234.43c-.8-.67-1.64-1.3-2.4-2-.44-.42-.91-.93-.5-1.66l0,0c1.77-.14,2.08,1.71,3.24,2.39C71.69,233.62,71.78,234.09,71.35,234.43Z"/><path d="M76.64,222.11c-1.2-.12-2,.12-1.83,1.63,0,.36-.1.94-.62.87s-.29-.62-.23-1a9.8,9.8,0,0,0,.18-2.91l-.06.06c.71.06.13-1.09,1-.94-.31,1.22-.08,2.18,1.52,2A.17.17,0,0,0,76.64,222.11Z"/><path d="M215.69,227.4a3.56,3.56,0,0,1,2.49,2.78c-.76.55-1.2-1.61-1.81.08C215.45,229.47,215.85,228.37,215.69,227.4Z"/><path d="M212.82,218.64c1.52.76,1.08,2.11,1,3.35A8.41,8.41,0,0,1,212.82,218.64Z"/><path d="M80.54,211.42l.33-.31C80.81,211.27,80.87,211.55,80.54,211.42Z"/><path d="M33.16,237.77c.42,0,.39.31.39.59Z"/><path d="M56.44,220.19c-.25.14-.71.27-.72.41-.06,1.78-.61,3.61.57,5.29-.93.48-1.54-.22-2.28-.54,1.08-.76.93-4.83-.32-6.58l-1,6.08c-1.09-1.28-.26-2.46-.08-3.56.33-2.08.39-2.17-1.64-1.64-3.74,1-7.25,2.64-11,3.64-1.33.35.36,1.47-.08,2.21-1.19-.71-2.16-3.49-1.57-4.63.17-.32.38-.63.82-.47a.55.55,0,0,1,.32.85,1.31,1.31,0,0,0,0,1.24c3.75-1.31,7.33-3.1,11.45-4.29-1.85-1-4.17-1.43-3.39-4,.61-2,2.58-.5,3.84-1.2-.15-1-1.93-1.5-1-2.92.36-.57.59-1.2,1.39-1.12s.76.65.74,1.2c0,.87.76,1,1.21,1.38.73.68,1.49,1.32,2.41,2.12L55,208c1-.19,2.27-.8,4,.27H56c.09,2.28,1.33,4.06,1.87,6.38,1.06-1.35,1.08-2.77,1.93-3.77.41-.47.76-1.42,1.4-1s2,.61,2,2-.75,2.33-1.39,3.51a16.76,16.76,0,0,1,2.39-.12c.55,0,1.57-.22,1.4.83a1.11,1.11,0,0,1-1.63,1c-.14-.68.71-.35.74-.91a5.4,5.4,0,0,0-4.8,1.41c-.23.24-.36.41-.66.33a.47.47,0,0,1-.3-.71c.62-.78-.07-1.15-.43-1.64-.87.75-1.29-2-2.41-.26-.34.53-.9-.18-1.13-.67A5.79,5.79,0,0,0,52.54,212c-.29,1.19.72,1.49,1.23,2s1.08,1,.79,2c-.59,1.91-.07,3.4,1.87,4.23Zm-4.78-3c.63-.11,1.47.23,1.71-.59.18-.65-.49-1-.94-1.37a13.18,13.18,0,0,0-2.23-1.43c-.66-.32-1.47-.41-1.88.37a1.42,1.42,0,0,0,.55,2A7.81,7.81,0,0,0,51.66,217.15Zm10.48-5.08c-.18-.28.15-.95-.61-1-.45,0-.91-.16-1.26.39a6.22,6.22,0,0,0-.89,3.37c0,.66.48,1.11,1,.52A5,5,0,0,0,62.14,212.07Zm-11-.57c.87-.45,1-1,.77-1.69-.07-.2-.35-.52-.68-.21C50.66,210.15,51,210.76,51.16,211.5Z"/><path d="M63,231.22c-.4-.77-.8-1.54-1.19-2.31s-.94-1.29-.45-2,1.17.11,1.76-.11a.34.34,0,0,0,.43.34c.07,0,.11-.14.17-.21-.2-.12-.37-.43-.63-.08,0-.85-1.88-1.2-.74-2.19.92-.8,1.58.51,2.11.94a49.1,49.1,0,0,1,3.69,3.8c.45.45,0,1,.27,1.41l0,0L63,228.8c.54,1.15,1,2,1.39,2.95.26.66.47,1.5-.16,2s-1.3.06-1.92-.37a11.18,11.18,0,0,1-2.65-3.25,4.83,4.83,0,0,0-1.28-1.31c.16,1.59.73,3.1.14,4.67-.28.74-.54,1.63-1.31,1.76a1.87,1.87,0,0,1-1.86-1.37c-.77-1.83-1.77-3.6-1.24-5.72.2-.81.51-1.49,1.35-1.69s1.34.53,1.85,1.1c.34.37.2,1.29,1.1,1,.19-.27,0-.39-.22-.46.08-.53-.49-1.28.19-1.57s.92.55,1.35.91c1.32,1.08,1.71,2.85,3,4a1,1,0,0,0,.66.86C63.57,231.83,63.24,231.54,63,231.22Zm-6.17,3.13a5,5,0,0,0-.56-6.33.83.83,0,0,0-.61-.24c-.45.09-.37.52-.4.86C55,230.74,56.22,232.43,56.83,234.35Z"/><path d="M57.34,196.54A8.13,8.13,0,0,1,60,204.37c-.35,1.73-1.42,2.09-2.75,1-2-1.61-2.85-6.78-1.15-8.64.81-.88.25-1-.06-1.58-1.68-3-2.45-6.12-.74-9.37.56-1.07,1.18-2.39,2.72-2.1a3.37,3.37,0,0,1,3,3,13.18,13.18,0,0,1,0,6C60.42,194.53,59.42,196,57.34,196.54Zm2.88-6.9c.27-1.07-.28-2.26-.33-3.5a1.48,1.48,0,0,0-1.3-1.45,1.71,1.71,0,0,0-2,.71c-2,2.58-1,6.93.53,9.13.52.74,1.21.42,1.74-.23A6.38,6.38,0,0,0,60.22,189.64Zm-3.53,7.47c-.53,2.74-.76,5.09.8,7.25.24.33.55.69,1,.57a1,1,0,0,0,.62-1A7.81,7.81,0,0,0,56.69,197.11Z"/><path d="M50.46,231.15c.79-1.45.42-2.72.55-3.92.05-.48.06-1.1.65-1.07s.45.72.43,1.13q-.14,3.11-.37,6.21c0,.38.27,1-.54,1.07-.59,0-.79-.33-1-.8a22.49,22.49,0,0,1-1.79-6.19c-.9,1.07-.84,2.44-1.47,3.51-.28.46-.36,1.34-1.18.91s-.11-.93.11-1.35a51.51,51.51,0,0,0,2.33-5.9,19.61,19.61,0,0,0-5.66,3.92c-.14.14-.3.35-.05.59s1.11.47.42,1c-.41.3-.83-.31-1.13-.65-.53-.61-1.22-1.15-1.08-2.32.76.62,1.43.78,2-.19,1-1.79,3.26-2.18,4.2-4.06.29-.57.86.1,1.09.42a9.48,9.48,0,0,1,2,4.93A25.34,25.34,0,0,0,50.46,231.15Z"/><path d="M35.2,193.65c2.86,1.63,4.57,4.32,7.37,5.61.27.12.69.37.41.8s-.71.11-1-.09a14.72,14.72,0,0,1-4.12-3A23.91,23.91,0,0,0,34.22,194c-.53-.42-1.32-.87-.95-1.71.45-1,1.24-.29,1.85-.14a28.7,28.7,0,0,1,6.19,2.6c.49.25.93.73,1.72.56-.83-2.48-3.12-3.93-4.25-6.19a1.36,1.36,0,0,1,1.89.63c1.61,2.27,3.26,4.51,4.85,6.79.27.38.77.85.2,1.4a1.06,1.06,0,0,1-1.46,0,54.2,54.2,0,0,0-6-3.44A5.15,5.15,0,0,0,35.2,193.65Zm8.12,2.28c0-.11.12-.21.1-.3s-.12-.17-.19-.25a1.9,1.9,0,0,0-.11.39S43.25,195.87,43.32,195.93Z"/><path d="M66,211a1.08,1.08,0,0,1-.81-.67c-.54-1-1.47-1.6.29-2.69a10.82,10.82,0,0,0,3.82-4.55A7.48,7.48,0,0,0,70.32,200c0-2.23,2.61-4.72,4.78-5.16,1.24-.26,2.48,1,2.33,3.19-.19,2.62-2.91,5.18-5.49,5.68a4.16,4.16,0,0,0-3.15,1.92c-.51.92-1.12,1.8-1.72,2.68A6.61,6.61,0,0,0,66,211Zm10.47-13.75c0-1.61-.51-1.91-2-1.18a5.45,5.45,0,0,0-3.25,5c0,1.4.52,1.89,1.83,1.38S76.46,198.78,76.43,197.28Z"/><path d="M68.48,216.44c-.47,0-.94.07-1.2-.34a27.72,27.72,0,0,1-1.37-2.44c-.64-1.29.74-1.52,1.25-2.16,1-1.2,2-2.31,3-3.46a2.26,2.26,0,0,1,2.34-.82c.82.26.86,1.25.84,2-.11,2.77-1.62,4.86-3.48,6.73A1.76,1.76,0,0,1,68.48,216.44ZM72,207.59c-1.62,2-2.68,4.09-4.46,5.59-.9.76-.35,1.33.12,1.92.6.74,1.22.35,1.64-.15a14,14,0,0,0,2.45-3.84A5,5,0,0,0,72,207.59Z"/><path d="M56.43,220.23c1.26.56,1.23.55,1.76-.44a2.22,2.22,0,0,1,2-1.23,10.84,10.84,0,0,1,3,.29c.68.18,1.64.22,1.6,1.06a2.14,2.14,0,0,1-1.45,1.83A7.7,7.7,0,0,1,60,222c.11,1.05,1.47,1.38,1.17,2.64-1.3-.84-2.22-2-3.71-2.53-.12,1.41,1.34,2.43.7,3.91-.9-1.82-2.25-3.5-1.72-5.8Zm5-.79c-.57.55-2.12-.4-2.1.7s1.53,1,2.51,1a3.73,3.73,0,0,0,1-.13c.34-.09.68-.24.67-.69a.72.72,0,0,0-.75-.78C62.37,219.53,62,219.49,61.4,219.44ZM59.33,222a4.62,4.62,0,0,0,.47.19s.08-.18.12-.27a2.54,2.54,0,0,0-.44-.15S59.38,222,59.33,222Z"/><path d="M62.5,205.82a23.8,23.8,0,0,0,2.55-5.26c.16-.45.3-1.19,1-.9s.33.91.12,1.35c-1,2-2,4-3,5.94-.41.79-1.23,1.18-1.46.15a21.05,21.05,0,0,1-.38-9.14l.54,0Z"/><path d="M50.67,195.74c-.89,1.27-2.51.86-3.57,1.68-.25.19-.53-.55-.27-.74,1.07-.79.3-1.61.07-2.35-.68-2.25-2.06-4.18-2.82-6.42-.49-1.45-1.47.35-2.28-.19A6.36,6.36,0,0,1,45.5,186c.35-.06.75-.09.81.39s-.33.41-.61.4c-1.21,0-.88.72-.59,1.27,1.19,2.3,2.49,4.54,3.63,6.86C49.21,195.9,50.11,195,50.67,195.74Z"/><path d="M48.18,185.75c1.29-1.35,3.1-1.57,4.78-2.08.28-.08.53.24.52.58s-.31.46-.62.45c-1.91-.12-1.37.94-1,2a64.7,64.7,0,0,0,2.69,6.84c.31.63.48,1.34-.25,1.64s-1-.4-1.21-1A64.14,64.14,0,0,1,50.93,187C50.32,185,50.14,184.93,48.18,185.75Z"/><path d="M74.14,220.72c-2.68.39-5.34-.7-8-.05-.5.12-.49-.37-.52-.72a3.5,3.5,0,0,1,.5-2.25c1.54,1.79,3.77,1.27,5.67,1.43,1.31.1,1.31-.34,1.72-.13.81.42.85,1,.59,1.78Z"/><path d="M50.21,199.83c.27-.88.5-1.72.8-2.54.2-.59.72-.57,1.18-.4a1,1,0,0,1,.64,1.15c0,.24-.07.5-.39.26-.84-.61-.69.19-.72.55-.25,2.37.92,4.15,2.45,5.78a3.29,3.29,0,0,0,.44.28c.31.22,1.19-.75,1,.44-.15.88-.89.8-1.55.7a1.4,1.4,0,0,1-.63-.29C51.52,204.24,50.93,202,50.21,199.83Z"/><path d="M226.85,209.05c.73.19.85-.67,1.42-.81s1.6-.43,1.73.26c.4,2.07,2.81,2,3.57,4.07.28-1.16.5-1.85.61-2.57.39-2.47.42-2.52,2.87-2.53a31.29,31.29,0,0,1-2.89-9c-.07-.46-.36-1.06.24-1.22s.78.48.89,1a30.59,30.59,0,0,0,2.31,6.35c.65-1.66.56-3.31.86-4.9.1-.56-.05-1.41.72-1.37s.48.8.43,1.37c-.24,2.44-.43,4.89-.54,7.38a41,41,0,0,0,3.36-6.73c.36-1-1-.6-1-1.54,2-.06,3.26,1.32,4.73,2.21a.6.6,0,0,1,.07.61.52.52,0,0,1-.79,0c-2-2.13-2.19-.12-2.69,1.2-.57,1.54-1.17,3.06-1.78,4.58-.2.49-.49.93.06,1.4.32.26.67.72.18,1s-.72-.25-1-.49c-.86-.61-1.22-2-2.64-1.86.06.56,1.1.91.35,1.48s-.58-.49-1-.61c-.87-.25-1.82-.68-1.62.94a2.4,2.4,0,0,1-.09,1.06c-.42,1.4-.75,2.71,1.53,2.47-.25.77-.69.67-1.1.63-.25,0-.61-.29-.66.22a1.23,1.23,0,0,0,.23,1.17c.26.25.54.15.8,0,.05,0,.08-.09.13-.12,3.1-1.66,3.1-1.66,5.56.57l-.06,0c.14,2-1.51,3.69-3.91,4a17.45,17.45,0,0,1-1.94,0c.8,1.32,1.93,2,2.42,3.12.27.63.5,1.23.06,1.83-.53.75-1.19.37-2.27.29.81-.66,2-.74,1.26-1.78s-1.44-2.08-2.77-2.29c-.32-.05-.55.46-.42,1a17.35,17.35,0,0,1,.23,1.92c.2,1.43-.49,2.06-1.85,2.16a2,2,0,0,1-2.23-1.47c-.25-.62-.06-1.45-.81-1.86-.71.4-.64,1.57-1.75,1.75-.24-1.22.94-2.08.83-3.26-.78-.19-1.34.34-2,.48s-1.44,1.07-1.59-.53c0-.57-.83-.29-1.23-.18-2.12.63-4.2,1.43-6.35,1.91-1.36.31-1.2.95-.83,1.83.28.68.61,1.34,1,2.16-1.88-.72-3.44-4.15-2.81-5.78.21-.54.77-.87,1-.29.53,1.27,1.3.62,2,.44,3.24-.81,6.48-1.65,9.72-2.44.43-.1.81-.17,1-.6-1.13-.6-2.58-.35-3.55-1.44-.66-.73-1.41-1.45-1-2.46a2.74,2.74,0,0,1,2.36-1.29c1-.14,1.95.42,3,.4l.16.23c0-.05.09-.1.09-.14s-.11-.21-.24-.1c.17-.78-.59-1-.9-1.56-.46-.75-1.21-1.31-1.43-2.23Zm2,10c1.27.93,2.91-.26,4.16.86.33.29.49,0,.7-.22s.65-.51,1-.76c-1.13-.93.26-2.45-.78-3.39a3.65,3.65,0,0,1-1.13-2.14,3.78,3.78,0,0,0-1.28-2.07,1.06,1.06,0,0,0-1.45-.18c-.47.45.16.84.43,1.13,1.08,1.15,2.19,2.29.6,3.81C230.11,217,230.6,218.86,228.81,219.05Zm-.87-2.63c1.1.07,2,0,2.23-.83s-.58-1.26-1.17-1.58a5.49,5.49,0,0,0-2.69-.74c-.58,0-1.28.06-1.54.65s.34,1.05.75,1.44A4.1,4.1,0,0,0,227.94,216.42ZM236.8,218a5,5,0,0,0,3.26-1.62,1.21,1.21,0,0,0,.15-1.48c-.24-.57-.88-.55-1.39-.31a7.52,7.52,0,0,0-2.7,1.93c-.23.28-.62.67-.4,1.08S236.41,218,236.8,218Zm-3.32,5.1c-.07-1.28-.43-2.56-1.89-2.71-1.05-.11-.68,1-.67,1.62,0,1.1-.21,2.53,1.46,2.68C233.39,224.82,233.59,224,233.48,223.14Zm-3.9-13.59c0-.67-.16-1.08-.81-.94-.4.09-.88.31-.78.78a1.16,1.16,0,0,0,1.09,1C229.68,210.37,229.55,209.82,229.58,209.55Z"/><path d="M238.63,229.08c.57,1.22,1.13,2.45,1.7,3.67.23.48.61,1.05,0,1.42s-1,0-1.43-.42c-1.08-1-2.16-2-3.21-3.05a3.25,3.25,0,0,0-1.82-1.11,8.77,8.77,0,0,1,.63,3.85c-.07.65-.16,1.38-.93,1.51s-1.57.33-1.93-.68c1.82.12,2.09-.88,1.82-2.41a6.79,6.79,0,0,0-1-3c-.59-.8-1.08-2.35-2.15-1.87s-.1,1.81.06,2.76c.26,1.56,1.52,2.82,1.35,4.51-1.58-1.23-3.05-5.64-2.53-7.51.18-.63.78-1.35,1.17-1,1.2,1,2.94.55,4.07,1.72a31.76,31.76,0,0,0,4,3.9l.17.24.06-.22-.26,0c.26-1.45-.94-2.08-1.66-3-.38-.45-1-.92-.7-1.49s1-.22,1.61-.08c1.61.41,3,1.5,4.62,1.73a.45.45,0,0,0,.68.15l-.4-.44c-1.1-.67-2.23-1.31-3.29-2-.31-.21-1-.46-.53-1s.72,0,1.06.14c2.32,1.11,4.39,2.69,6.82,3.58.4.14.77.4.73.89s-.61.41-1,.46c-2.25.31-4.26-.66-6.35-1.19l-1.18-.31c-.11-.08-.26-.25-.32-.22C238.25,228.8,238.56,228.93,238.63,229.08Z"/><path d="M241.67,215.32c-1.11-3-.54-5.36,2.26-7.22a21.86,21.86,0,0,0,4.45-3.17c.4-.45,2.05.82,2.15,1.74.22,2-1.34,7.78-4,9-2.16,1-3.06,1.05-4.91-.43Zm7.53-9.61c-2.15,1.74-4.28,3.1-6.09,4.87a2.69,2.69,0,0,0-.22,3.89c1.17,1.22,2.3.42,3.18-.5C248.23,211.73,248.93,208.92,249.2,205.71Z"/><path d="M247.17,186.71c1,1,.94,2.23-.09,2.9a1.57,1.57,0,0,0-.82,2,14,14,0,0,1-.84,6.59c-.11.35-.16.92-.79.68s-.46-.64-.36-1c.25-1.14.5-2.28.79-3.41a5.92,5.92,0,0,0-.69-4.5c-.52,2.21-.89,4-1.4,5.75-.15.54-.21,1.59-1.06,1.35-1-.28-.42-1.13-.22-1.77.83-2.62,1.67-5.24,2.48-7.87.61-2,.59-2,2.63-1l-.16.17c-2-.45-1.73,1.24-1.93,2.2s.84.64,1.28.56c1.33-.23,1.44-1.14,1-2.24a.53.53,0,0,1,0-.18Z"/><path d="M227,228.13a4.3,4.3,0,0,1,.31-.86c.3-.47-.21-1.48.54-1.46s.64,1.05.61,1.59a28.22,28.22,0,0,0-.15,5.81.55.55,0,0,1-.41.68c-.42.07-.63-.28-.82-.57a12.18,12.18,0,0,1-1.35-4c-.15-.63-.29-1.25-.51-2.2a16.72,16.72,0,0,1-1.63,3.62c-.21.38-.28.85-.8.7s-.46-.76-.27-1a13.42,13.42,0,0,0,2.28-5.65.54.54,0,0,1,.66-.45,1.26,1.26,0,0,1,.57.61C226.5,225.91,226.2,227.14,227,228.13Z"/><path d="M239.68,185.64a2.32,2.32,0,0,1,1.52,1.6,9.43,9.43,0,0,1-.15,6.91,2.7,2.7,0,0,1-2.54,1.9,3.35,3.35,0,0,1-3.21-1.84c-1-2.09-.27-7.07,1.39-8.75.79-.8,1.64-1.16,2.49,0l0,0a2.44,2.44,0,0,0-2.76,1.84,9.59,9.59,0,0,0-.52,5.71,2.4,2.4,0,0,0,2.15,2c1.21.19,1.86-.67,2.15-1.69a9,9,0,0,0-.73-7.46Z"/><path d="M228.54,185.29c.5-1.23,1.52-1.06,2.34-1.14a29.69,29.69,0,0,1,3.89-.13c.53,0,1.12.37,1,1s-.68.37-1.15.21a7.72,7.72,0,0,0-3.08-.1c.83,2.92,1.64,5.79,2.47,8.65.17.56.56,1.29-.11,1.54-.84.32-1-.5-1.15-1.16-.63-2.49-1.29-5-1.95-7.46C230.34,185.05,230.32,185.06,228.54,185.29Z"/><path d="M222,230.5c-1.72.46-2.38-.51-3.17-1.16a1.1,1.1,0,0,1-.42-1.23c.2-.48.69-.37,1.07-.16.66.36.66-.25.8-.55a20.45,20.45,0,0,1,2.76-4.3,1.42,1.42,0,0,0,.36-.75c0-.34-.86-.82.1-1s1.42.62,1.63,1.32-.44.5-.88.5-.61.5-.88.79a14.89,14.89,0,0,0-2.26,4C220.64,228.91,220.4,229.83,222,230.5Z"/><path d="M246.8,186.35l.37.36-.17.15a.3.3,0,0,1-.36-.34Z"/><path d="M239.18,185.42l.5.23-.18.16c-.2-.07-.55,0-.29-.42Z"/><path d="M263.17,642.64l.79-.38a11.43,11.43,0,0,0,2.41-1.41,2.11,2.11,0,0,1,.23-.19.79.79,0,0,1,.22-.06c0,.08,0,.18-.06.22a8.65,8.65,0,0,1-.92.67c-1,.59-2.12,1.15-3.17,1.73a1.24,1.24,0,0,0-.32.23c-1.4,1.36-2.76,2.75-4.19,4.06-1.26,1.15-2.57,2.24-3.9,3.3a21.43,21.43,0,0,1-4.57,3c-.81.35-1.67.6-2.52.87a1.26,1.26,0,0,1-.58,0c-.53-.07-.69-.4-.4-.86a6.65,6.65,0,0,1,.72-.87,32.23,32.23,0,0,1,6.19-4.85c1.35-.84,2.73-1.64,4.12-2.41a.88.88,0,0,0,.49-.77c.09-.79.23-1.58.3-2.37.09-1.07.14-2.14.19-3.21,0-.42-.05-.85-.06-1.27,0-.08.08-.16.12-.24.06.07.15.12.16.2a2.55,2.55,0,0,1,.08.61c0,.8,0,1.59,0,2.39,0,.63-.11,1.27-.18,1.9s-.14,1.18-.2,1.77c0,.16,0,.32,0,.51l.78-.4c1.12-.58,2.23-1.15,3.34-1.74a2.13,2.13,0,0,0,.49-.46,19.37,19.37,0,0,0,3.37-4.84,6,6,0,0,0,.68-2.68A1.2,1.2,0,0,0,266,634a3.29,3.29,0,0,0-2.61,0,17.53,17.53,0,0,0-5.91,3.1,43.61,43.61,0,0,0-3.7,3.49,33.7,33.7,0,0,0-3.59,4.82c-.24.36-.45.72-.66,1.08,0,.08-.09.17-.17.33l1-.54.06.11-.77.46a3.49,3.49,0,0,1-.39.19c-.07,0-.2.05-.23,0a.28.28,0,0,1,0-.25,8.17,8.17,0,0,1,.56-1c1.05-1.5,2.09-3,3.19-4.49a22.75,22.75,0,0,1,2.83-3,19.62,19.62,0,0,1,2.68-2.22,18.91,18.91,0,0,1,5.6-2.59,3.54,3.54,0,0,1,2,0,1.51,1.51,0,0,1,1.18,1.53,6.24,6.24,0,0,1-.8,3,18.76,18.76,0,0,1-2.53,3.82l-.56.68Zm-5.6,3.24-.21.1c-1.84,1-3.64,2.07-5.37,3.25a27.64,27.64,0,0,0-4.71,3.91,5.26,5.26,0,0,0-.66.89c-.14.23-.07.33.19.33a4.58,4.58,0,0,0,.83-.09,12.1,12.1,0,0,0,4-1.89,55.2,55.2,0,0,0,5.88-4.69c1.3-1.19,2.55-2.41,3.83-3.62l.24-.26,0-.06-3.49,1.84c.06.11.15.19.14.26a1.58,1.58,0,0,1-.15.48c0,.09-.15.19-.22.19s-.18-.11-.22-.19A1.93,1.93,0,0,1,257.57,645.88Z"/><path d="M271.07,640.73l-.58.85a1.24,1.24,0,0,1-.22.28c-.11.07-.28.18-.36.14s-.21-.22-.29-.35a1,1,0,0,1,0-.28c-.17.27-.29.5-.44.71s-.52.64-.79,1a.7.7,0,0,1-.25.15c-.18.08-.4.14-.51-.05a.63.63,0,0,1-.06-.52c.13-.37.33-.73.5-1.1a.37.37,0,0,0,.05-.24c-.25.33-.49.67-.75,1-.39.49-.78,1-1.18,1.44-.16.19-.36.41-.62.24s-.14-.44,0-.66a12.13,12.13,0,0,1,2.18-3.27c.12-.12.4-.28.45-.23s0,.33-.11.48a4.56,4.56,0,0,1-.38.59s-.08,0-.13,0,0-.1,0-.14a2.86,2.86,0,0,0,.18-.35,11.53,11.53,0,0,0-1.84,2.94l0,0a7.14,7.14,0,0,0,.55-.55,20,20,0,0,0,2.45-3.48.3.3,0,0,1,.4-.18.29.29,0,0,1,.17.4,2.21,2.21,0,0,1-.18.42c-.37.77-.75,1.54-1.12,2.3,0,.05,0,.1-.05.15l.07,0c.22-.28.45-.53.64-.82.28-.45.53-.92.8-1.38a.82.82,0,0,1,.21-.27.44.44,0,0,1,.35-.06.4.4,0,0,1,.2.28,1.85,1.85,0,0,1,0,.47,1.82,1.82,0,0,0,.64-1,12.67,12.67,0,0,1,.92-2.81,42.12,42.12,0,0,1,3.07-5.93.7.7,0,0,1,.21-.24.32.32,0,0,1,.27,0,.26.26,0,0,1,0,.23,21.35,21.35,0,0,0-1.31,3.64,16.05,16.05,0,0,1-2.59,5.24.8.8,0,0,0,.08,1.17l.15.14c.22-.25.43-.48.62-.73.44-.61.87-1.22,1.31-1.82a.36.36,0,0,1,.44-.18.34.34,0,0,1,.27.38c0,.06,0,.12,0,.16a2.83,2.83,0,0,1,.76-.22c.3,0,.39.3.44.56a34.27,34.27,0,0,1,8.18-3.35h.15l0,.07a.88.88,0,0,1-.21.12c-1.57.62-3.15,1.2-4.7,1.85a11.76,11.76,0,0,0-3.11,1.87.66.66,0,0,1-.65.15c-.26-.1-.3-.34-.33-.64l-.5.34c-.44.32-.66.24-.83-.33-.32.47-.62.92-.93,1.36a5,5,0,0,1-.52.69.51.51,0,0,1-.91-.08C271.29,641.2,271.2,641,271.07,640.73Zm.33-1.31.13.07c.42-.65.88-1.29,1.25-2a19.06,19.06,0,0,0,1.43-3.72c.16-.51.32-1,.49-1.52l-.07,0A32.69,32.69,0,0,0,271.4,639.42Z"/></g></g></svg>